<svg width="182" height="25" viewBox="0 0 182 25" fill="none" xmlns="http://www.w3.org/2000/svg">
<path d="M50.5596 7.19672C48.9491 7.19672 47.4045 7.85325 46.2656 9.02187C45.1267 10.1905 44.4869 11.7755 44.4869 13.4282C44.4869 15.0808 45.1267 16.6658 46.2656 17.8345C47.4045 19.0031 48.9491 19.6596 50.5596 19.6596C52.3326 19.6596 54.2774 18.7314 55.6856 17.2895L58.3058 20.2103C56.2193 22.4071 53.204 23.8242 50.3305 23.8242C44.4417 23.8242 39.9822 19.344 39.9822 13.4653C39.9822 7.58658 44.505 3.22705 50.4963 3.22705C53.4156 3.26568 56.2056 4.46856 58.2757 6.58101L55.6825 9.82049C54.3347 8.23633 52.3899 7.19672 50.5596 7.19672Z" fill="#ffffff"/>
<path d="M65.6117 2.16284V23.6232H61.2698V2.16284H65.6117Z" fill="#ffffff"/>
<path d="M84.6591 15.8416C84.6591 20.5848 81.3905 23.7964 76.542 23.7964C71.6935 23.7964 68.4009 20.5848 68.4009 15.8416C68.4009 11.0984 71.6694 7.91772 76.542 7.91772C81.4147 7.91772 84.6591 11.0706 84.6591 15.8416ZM72.7368 15.9004C72.7368 18.4468 74.2866 20.1826 76.542 20.1826C78.7974 20.1826 80.3201 18.4468 80.3201 15.9004C80.3201 13.354 78.7703 11.6089 76.542 11.6089C74.3138 11.6089 72.7368 13.3571 72.7368 15.9004Z" fill="#ffffff"/>
<path d="M101.683 8.06299V23.623H97.3711V20.891C96.3278 22.8588 94.579 23.8117 92.2965 23.8117C88.9435 23.8117 86.8298 21.5283 86.8298 17.8526V8.06299H91.1688V16.5593C91.1688 18.5271 92.2693 19.7121 94.0152 19.7121C96.1017 19.6843 97.3711 18.0073 97.3711 15.7486V8.06299H101.683Z" fill="#ffffff"/>
<path d="M120.595 2.16284V23.6232H116.283V21.3367C115.209 22.9302 113.569 23.7965 111.492 23.7965C107.177 23.7965 104.33 20.5849 104.33 15.786C104.33 11.0428 107.15 7.88995 111.377 7.88995C113.518 7.88995 115.182 8.75629 116.283 10.3466V2.16284H120.595ZM116.283 15.9005C116.283 13.3571 114.73 11.5904 112.505 11.5904C110.279 11.5904 108.699 13.385 108.672 15.9005C108.699 18.4469 110.222 20.2105 112.505 20.2105C114.73 20.2105 116.283 18.4469 116.283 15.9005Z" fill="#ffffff"/>
<path d="M128.091 8.06299L131.67 19.3996L135.222 8.06299H139.533L133.804 23.623H129.36L123.61 8.09083L128.091 8.06299Z" fill="#ffffff"/>
<path d="M156.162 15.8416C156.162 20.5848 152.891 23.7964 148.045 23.7964C143.2 23.7964 139.904 20.5848 139.904 15.8416C139.904 11.0984 143.176 7.91772 148.045 7.91772C152.915 7.91772 156.162 11.0706 156.162 15.8416ZM144.24 15.9004C144.24 18.4468 145.79 20.1826 148.045 20.1826C150.301 20.1826 151.821 18.4468 151.821 15.9004C151.821 13.354 150.271 11.6089 148.045 11.6089C145.82 11.6089 144.24 13.3571 144.24 15.9004Z" fill="#ffffff"/>
<path d="M163.122 8.06299V23.623H158.783V8.06299H163.122ZM163.067 3.63848C163.056 4.064 162.922 4.4765 162.683 4.82444C162.444 5.17238 162.11 5.44032 161.724 5.5948C161.337 5.74928 160.915 5.78345 160.509 5.69302C160.104 5.60259 159.733 5.39159 159.444 5.08637C159.155 4.78115 158.96 4.39525 158.883 3.9769C158.807 3.55854 158.852 3.12627 159.013 2.73411C159.174 2.34194 159.445 2.00728 159.791 1.77192C160.136 1.53655 160.542 1.41094 160.957 1.41077C161.24 1.40537 161.522 1.45977 161.785 1.57062C162.047 1.68148 162.285 1.84642 162.483 2.05523C162.68 2.26405 162.834 2.51229 162.935 2.78462C163.036 3.05695 163.081 3.34756 163.067 3.63848Z" fill="#ffffff"/>
<path d="M182 2.16284V23.6232H177.688V21.3367C176.618 22.9302 174.975 23.7965 172.897 23.7965C168.585 23.7965 165.736 20.5849 165.736 15.786C165.736 11.0428 168.555 7.88995 172.782 7.88995C174.926 7.88995 176.588 8.75629 177.688 10.3466V2.16284H182ZM177.688 15.9005C177.688 13.3571 176.138 11.5904 173.91 11.5904C171.682 11.5904 170.105 13.385 170.078 15.9005C170.105 18.4469 171.628 20.2105 173.91 20.2105C176.144 20.2105 177.694 18.4469 177.694 15.9005H177.688Z" fill="#ffffff"/>
<path d="M30.2399 9.38118C29.9052 6.7919 28.6675 4.41476 26.756 2.68995C24.8445 0.965133 22.3887 0.00949959 19.8433 0C18.3393 0.0103992 16.8536 0.339826 15.4796 0.967592C14.1055 1.59536 12.8728 2.50789 11.8589 3.64789C11.7775 3.62314 11.6931 3.59529 11.5996 3.57054L11.3735 3.51175C11.2257 3.47772 11.072 3.44987 10.8157 3.40965L10.692 3.39109C10.4627 3.36509 10.2323 3.35166 10.0016 3.35086C8.45308 3.36105 6.96363 3.96181 5.82286 5.03633C4.68209 6.11086 3.97153 7.58233 3.82936 9.1646C2.66631 9.98303 1.71155 11.0758 1.04523 12.3512C0.37891 13.6266 0.0204727 15.0475 0 16.4944C0.00239435 18.7487 0.876137 20.9099 2.42952 22.5039C3.98291 24.0979 6.08907 24.9944 8.28589 24.9969H15.9476L14.4671 21.2005H8.28589C7.06497 21.1989 5.89447 20.7007 5.03086 19.8151C4.16726 18.9295 3.68099 17.7287 3.67859 16.4759C3.70351 15.5367 3.97311 14.6216 4.45935 13.8255C4.94559 13.0295 5.63074 12.3816 6.44357 11.9493L7.48986 11.4387V9.6875C7.49066 9.00419 7.75554 8.3491 8.2264 7.86593C8.69726 7.38276 9.33566 7.11096 10.0016 7.11014C10.1024 7.11199 10.203 7.11922 10.3031 7.1318L10.4056 7.15037C10.5051 7.16584 10.6046 7.19059 10.7252 7.22153C10.8199 7.25254 10.9126 7.28974 11.0026 7.33291L11.1383 7.3979C11.1991 7.42598 11.2576 7.45909 11.3132 7.4969C11.6509 7.7568 11.9162 8.18378 12.272 8.87376C12.2992 8.95421 12.3323 9.03774 12.3625 9.12438L12.468 9.43378C15.426 16.9462 17.1869 21.5811 17.8171 23.2519C18.1186 23.9449 18.5045 24.8948 19.8584 24.8948C20.3031 24.912 20.7417 24.7845 21.1116 24.5306C21.4814 24.2766 21.7636 23.9092 21.9178 23.4808C22.5208 21.9802 23.1239 20.5631 23.6485 19.2574C24.2154 17.8991 24.4627 17.237 24.6255 16.7976C24.6918 16.612 24.7461 16.4882 24.8004 16.3366C25.5059 14.604 25.9612 13.4808 26.2929 12.6238C27.1281 12.6238 27.9845 12.6764 28.1985 12.6918C29.1467 12.904 29.9959 13.4419 30.6056 14.2166C31.2154 14.9914 31.549 15.9565 31.5515 16.9523C31.5507 18.0845 31.112 19.1701 30.3319 19.9706C29.5517 20.7712 28.4938 21.2213 27.3905 21.2222H25.4456L23.9621 25H27.3905C29.4697 25 31.4637 24.1524 32.9339 22.6438C34.4041 21.1351 35.2301 19.089 35.2301 16.9554C35.2196 15.3285 34.7402 13.7411 33.8522 12.3933C32.9642 11.0454 31.7073 9.99737 30.2399 9.38118ZM24.719 8.9573C24.4154 9.00248 24.1279 9.12615 23.8837 9.31667C23.6395 9.50719 23.4465 9.75831 23.3229 10.0464C23.2859 10.1077 23.2537 10.1718 23.2264 10.2382L19.979 19.0346L19.9609 19.0873L16.5748 9.73081C16.4059 9.24504 16.2431 8.80259 16.0923 8.37871L15.9868 8.09406C15.7783 7.27909 15.4145 6.51458 14.9164 5.84467C16.2432 4.53847 18.0048 3.7995 19.8433 3.77784C22.8103 3.77784 25.4818 5.90655 26.3562 8.8521C25.809 8.85701 25.2625 8.89213 24.719 8.9573Z" fill="#FF1C00"/>
</svg>
