<svg width="249" height="189" viewBox="0 0 249 189" fill="none" xmlns="http://www.w3.org/2000/svg">
<path d="M63.8182 0.910156C65.3176 0.910156 66.5314 2.12399 66.5314 3.62339C66.5314 5.12279 65.3176 6.33657 63.8182 6.33657C62.3188 6.33657 61.1051 5.12279 61.1051 3.62339C61.1051 2.12399 62.3188 0.910156 63.8182 0.910156Z" fill="#3E3D4A"/>
<path d="M72.4821 0.910156C73.9815 0.910156 75.1951 2.12399 75.1951 3.62339C75.1951 5.12279 73.9815 6.33657 72.4821 6.33657C70.9827 6.33657 69.7689 5.12279 69.7689 3.62339C69.7689 2.12399 70.9827 0.910156 72.4821 0.910156Z" fill="#3E3D4A"/>
<path d="M89.8554 0.910156C91.3548 0.910156 92.5686 2.12399 92.5686 3.62339C92.5686 5.12279 91.3548 6.33657 89.8554 6.33657C88.356 6.33657 87.1421 5.12279 87.1421 3.62339C87.1421 2.12399 88.356 0.910156 89.8554 0.910156Z" fill="#3E3D4A"/>
<path d="M72.4821 9.60996C73.9815 9.60996 75.1951 10.8237 75.1951 12.3231C75.1951 13.8225 73.9815 15.0364 72.4821 15.0364C70.9827 15.0364 69.7689 13.8225 69.7689 12.3231C69.7689 10.8237 70.9827 9.60996 72.4821 9.60996Z" fill="#3E3D4A"/>
<path d="M81.1916 9.60996C82.691 9.60996 83.9049 10.8237 83.9049 12.3231C83.9049 13.8225 82.691 15.0364 81.1916 15.0364C79.6922 15.0364 78.4784 13.8225 78.4784 12.3231C78.4784 10.8237 79.6922 9.60996 81.1916 9.60996Z" fill="#3E3D4A"/>
<path d="M89.8554 9.60996C91.3548 9.60996 92.5686 10.8237 92.5686 12.3231C92.5686 13.8225 91.3548 15.0364 89.8554 15.0364C88.356 15.0364 87.1421 13.8225 87.1421 12.3231C87.1421 10.8237 88.356 9.60996 89.8554 9.60996Z" fill="#3E3D4A"/>
<path d="M98.5195 9.60996C100.019 9.60996 101.233 10.8237 101.233 12.3231C101.233 13.8225 100.019 15.0364 98.5195 15.0364C97.0201 15.0364 95.8063 13.8225 95.8063 12.3231C95.8063 10.8237 97.0201 9.60996 98.5195 9.60996Z" fill="#3E3D4A"/>
<path d="M107.183 9.60996C108.683 9.60996 109.897 10.8237 109.897 12.3231C109.897 13.8225 108.683 15.0364 107.183 15.0364C105.684 15.0364 104.47 13.8225 104.47 12.3231C104.47 10.8237 105.684 9.60996 107.183 9.60996Z" fill="#3E3D4A"/>
<path d="M115.893 9.60996C117.392 9.60996 118.606 10.8237 118.606 12.3231C118.606 13.8225 117.392 15.0364 115.893 15.0364C114.393 15.0364 113.18 13.8225 113.18 12.3231C113.18 10.8237 114.393 9.60996 115.893 9.60996Z" fill="#3E3D4A"/>
<path d="M98.5195 18.274C100.019 18.274 101.233 19.4878 101.233 20.9872C101.233 22.4866 100.019 23.7003 98.5195 23.7003C97.0201 23.7003 95.8063 22.4866 95.8063 20.9872C95.8063 19.4878 97.0201 18.274 98.5195 18.274Z" fill="#3E3D4A"/>
<path d="M107.183 18.274C108.683 18.274 109.897 19.4878 109.897 20.9872C109.897 22.4866 108.683 23.7003 107.183 23.7003C105.684 23.7003 104.47 22.4866 104.47 20.9872C104.47 19.4878 105.684 18.274 107.183 18.274Z" fill="#3E3D4A"/>
<path d="M115.893 18.274C117.392 18.274 118.606 19.4878 118.606 20.9872C118.606 22.4866 117.392 23.7003 115.893 23.7003C114.393 23.7003 113.18 22.4866 113.18 20.9872C113.18 19.4878 114.393 18.274 115.893 18.274Z" fill="#3E3D4A"/>
<path d="M124.557 18.274C126.056 18.274 127.27 19.4878 127.27 20.9872C127.27 22.4866 126.056 23.7003 124.557 23.7003C123.057 23.7003 121.843 22.4866 121.843 20.9872C121.843 19.4878 123.057 18.274 124.557 18.274Z" fill="#3E3D4A"/>
<path d="M133.221 18.274C134.72 18.274 135.934 19.4878 135.934 20.9872C135.934 22.4866 134.72 23.7003 133.221 23.7003C131.721 23.7003 130.508 22.4866 130.508 20.9872C130.508 19.4878 131.721 18.274 133.221 18.274Z" fill="#3E3D4A"/>
<path d="M89.8554 26.9832C91.3548 26.9832 92.5686 28.1969 92.5686 29.6963C92.5686 31.1957 91.3548 32.4096 89.8554 32.4096C88.356 32.4096 87.1421 31.1957 87.1421 29.6963C87.1421 28.1969 88.356 26.9832 89.8554 26.9832Z" fill="#3E3D4A"/>
<path d="M98.5195 26.9832C100.019 26.9832 101.233 28.1969 101.233 29.6963C101.233 31.1957 100.019 32.4096 98.5195 32.4096C97.0201 32.4096 95.8063 31.1957 95.8063 29.6963C95.8063 28.1969 97.0201 26.9832 98.5195 26.9832Z" fill="#3E3D4A"/>
<path d="M107.183 26.9832C108.683 26.9832 109.897 28.1969 109.897 29.6963C109.897 31.1957 108.683 32.4096 107.183 32.4096C105.684 32.4096 104.47 31.1957 104.47 29.6963C104.47 28.1969 105.684 26.9832 107.183 26.9832Z" fill="#3E3D4A"/>
<path d="M124.557 26.9832C126.056 26.9832 127.27 28.1969 127.27 29.6963C127.27 31.1957 126.056 32.4096 124.557 32.4096C123.057 32.4096 121.843 31.1957 121.843 29.6963C121.843 28.1969 123.057 26.9832 124.557 26.9832Z" fill="#3E3D4A"/>
<path d="M176.586 26.9832C178.086 26.9832 179.3 28.1969 179.3 29.6963C179.3 31.1957 178.086 32.4096 176.586 32.4096C175.087 32.4096 173.873 31.1957 173.873 29.6963C173.873 28.1969 175.087 26.9832 176.586 26.9832Z" fill="#3E3D4A"/>
<path d="M107.183 35.683C108.683 35.683 109.897 36.8967 109.897 38.3961C109.897 39.8955 108.683 41.1094 107.183 41.1094C105.684 41.1094 104.47 39.8955 104.47 38.3961C104.47 36.8967 105.684 35.683 107.183 35.683Z" fill="#3E3D4A"/>
<path d="M63.8182 44.3469C65.3176 44.3469 66.5314 45.5608 66.5314 47.0602C66.5314 48.5596 65.3176 49.7733 63.8182 49.7733C62.3188 49.7733 61.1051 48.5596 61.1051 47.0602C61.1051 45.5608 62.3188 44.3469 63.8182 44.3469Z" fill="#3E3D4A"/>
<path d="M72.4821 44.3469C73.9815 44.3469 75.1951 45.5608 75.1951 47.0602C75.1951 48.5596 73.9815 49.7733 72.4821 49.7733C70.9827 49.7733 69.7689 48.5596 69.7689 47.0602C69.7689 45.5608 70.9827 44.3469 72.4821 44.3469Z" fill="#3E3D4A"/>
<path d="M81.1916 44.3469C82.691 44.3469 83.9049 45.5608 83.9049 47.0602C83.9049 48.5596 82.691 49.7733 81.1916 49.7733C79.6922 49.7733 78.4784 48.5596 78.4784 47.0602C78.4784 45.5608 79.6922 44.3469 81.1916 44.3469Z" fill="#3E3D4A"/>
<path d="M107.183 44.3469C108.683 44.3469 109.897 45.5608 109.897 47.0602C109.897 48.5596 108.683 49.7733 107.183 49.7733C105.684 49.7733 104.47 48.5596 104.47 47.0602C104.47 45.5608 105.684 44.3469 107.183 44.3469Z" fill="#3E3D4A"/>
<path d="M46.4541 53.0467C47.9535 53.0467 49.1673 54.2606 49.1673 55.76C49.1673 57.2594 47.9535 58.4731 46.4541 58.4731C44.9547 58.4731 43.741 57.2594 43.741 55.76C43.741 54.2606 44.9547 53.0467 46.4541 53.0467Z" fill="#3E3D4A"/>
<path d="M55.154 53.0467C56.6534 53.0467 57.8672 54.2606 57.8672 55.76C57.8672 57.2594 56.6534 58.4731 55.154 58.4731C53.6546 58.4731 52.4407 57.2594 52.4407 55.76C52.4407 54.2606 53.6546 53.0467 55.154 53.0467Z" fill="#3E3D4A"/>
<path d="M63.8182 53.0467C65.3176 53.0467 66.5314 54.2606 66.5314 55.76C66.5314 57.2594 65.3176 58.4731 63.8182 58.4731C62.3188 58.4731 61.1051 57.2594 61.1051 55.76C61.1051 54.2606 62.3188 53.0467 63.8182 53.0467Z" fill="#3E3D4A"/>
<path d="M72.4821 53.0467C73.9815 53.0467 75.1951 54.2606 75.1951 55.76C75.1951 57.2594 73.9815 58.4731 72.4821 58.4731C70.9827 58.4731 69.7689 57.2594 69.7689 55.76C69.7689 54.2606 70.9827 53.0467 72.4821 53.0467Z" fill="#3E3D4A"/>
<path d="M81.1916 53.0467C82.691 53.0467 83.9049 54.2606 83.9049 55.76C83.9049 57.2594 82.691 58.4731 81.1916 58.4731C79.6922 58.4731 78.4784 57.2594 78.4784 55.76C78.4784 54.2606 79.6922 53.0467 81.1916 53.0467Z" fill="#3E3D4A"/>
<path d="M107.183 53.0467C108.683 53.0467 109.897 54.2606 109.897 55.76C109.897 57.2594 108.683 58.4731 107.183 58.4731C105.684 58.4731 104.47 57.2594 104.47 55.76C104.47 54.2606 105.684 53.0467 107.183 53.0467Z" fill="#3E3D4A"/>
<path d="M115.893 53.0467C117.392 53.0467 118.606 54.2606 118.606 55.76C118.606 57.2594 117.392 58.4731 115.893 58.4731C114.393 58.4731 113.18 57.2594 113.18 55.76C113.18 54.2606 114.393 53.0467 115.893 53.0467Z" fill="#3E3D4A"/>
<path d="M202.623 53.0467C204.123 53.0467 205.337 54.2606 205.337 55.76C205.337 57.2594 204.123 58.4731 202.623 58.4731C201.124 58.4731 199.91 57.2594 199.91 55.76C199.91 54.2606 201.124 53.0467 202.623 53.0467Z" fill="#3E3D4A"/>
<path d="M29.117 61.756C30.6164 61.756 31.8302 62.9697 31.8302 64.4691C31.8302 65.9685 30.6164 67.1823 29.117 67.1823C27.6176 67.1823 26.4038 65.9685 26.4038 64.4691C26.4038 62.9697 27.6176 61.756 29.117 61.756Z" fill="#3E3D4A"/>
<path d="M37.7807 61.756C39.2801 61.756 40.494 62.9697 40.494 64.4691C40.494 65.9685 39.2801 67.1823 37.7807 67.1823C36.2813 67.1823 35.0675 65.9685 35.0675 64.4691C35.0675 62.9697 36.2813 61.756 37.7807 61.756Z" fill="#3E3D4A"/>
<path d="M46.4541 61.756C47.9535 61.756 49.1673 62.9697 49.1673 64.4691C49.1673 65.9685 47.9535 67.1823 46.4541 67.1823C44.9547 67.1823 43.741 65.9685 43.741 64.4691C43.741 62.9697 44.9547 61.756 46.4541 61.756Z" fill="#3E3D4A"/>
<path d="M55.154 61.756C56.6534 61.756 57.8672 62.9697 57.8672 64.4691C57.8672 65.9685 56.6534 67.1823 55.154 67.1823C53.6546 67.1823 52.4407 65.9685 52.4407 64.4691C52.4407 62.9697 53.6546 61.756 55.154 61.756Z" fill="#3E3D4A"/>
<path d="M63.8182 61.756C65.3176 61.756 66.5314 62.9697 66.5314 64.4691C66.5314 65.9685 65.3176 67.1823 63.8182 67.1823C62.3188 67.1823 61.1051 65.9685 61.1051 64.4691C61.1051 62.9697 62.3188 61.756 63.8182 61.756Z" fill="#3E3D4A"/>
<path d="M72.4821 61.756C73.9815 61.756 75.1951 62.9697 75.1951 64.4691C75.1951 65.9685 73.9815 67.1823 72.4821 67.1823C70.9827 67.1823 69.7689 65.9685 69.7689 64.4691C69.7689 62.9697 70.9827 61.756 72.4821 61.756Z" fill="#3E3D4A"/>
<path d="M81.1916 61.756C82.691 61.756 83.9049 62.9697 83.9049 64.4691C83.9049 65.9685 82.691 67.1823 81.1916 67.1823C79.6922 67.1823 78.4784 65.9685 78.4784 64.4691C78.4784 62.9697 79.6922 61.756 81.1916 61.756Z" fill="#3E3D4A"/>
<path d="M89.8554 61.756C91.3548 61.756 92.5686 62.9697 92.5686 64.4691C92.5686 65.9685 91.3548 67.1823 89.8554 67.1823C88.356 67.1823 87.1421 65.9685 87.1421 64.4691C87.1421 62.9697 88.356 61.756 89.8554 61.756Z" fill="#3E3D4A"/>
<path d="M107.183 61.756C108.683 61.756 109.897 62.9697 109.897 64.4691C109.897 65.9685 108.683 67.1823 107.183 67.1823C105.684 67.1823 104.47 65.9685 104.47 64.4691C104.47 62.9697 105.684 61.756 107.183 61.756Z" fill="#3E3D4A"/>
<path d="M115.893 61.756C117.392 61.756 118.606 62.9697 118.606 64.4691C118.606 65.9685 117.392 67.1823 115.893 67.1823C114.393 67.1823 113.18 65.9685 113.18 64.4691C113.18 62.9697 114.393 61.756 115.893 61.756Z" fill="#3E3D4A"/>
<path d="M246.025 61.756C247.524 61.756 248.738 62.9697 248.738 64.4691C248.738 65.9685 247.524 67.1823 246.025 67.1823C244.525 67.1823 243.311 65.9685 243.311 64.4691C243.311 62.9697 244.525 61.756 246.025 61.756Z" fill="#3E3D4A"/>
<path d="M29.117 70.42C30.6164 70.42 31.8302 71.6339 31.8302 73.1333C31.8302 74.6327 30.6164 75.8464 29.117 75.8464C27.6176 75.8464 26.4038 74.6327 26.4038 73.1333C26.4038 71.6339 27.6176 70.42 29.117 70.42Z" fill="#3E3D4A"/>
<path d="M37.7807 70.42C39.2801 70.42 40.494 71.6339 40.494 73.1333C40.494 74.6327 39.2801 75.8464 37.7807 75.8464C36.2813 75.8464 35.0675 74.6327 35.0675 73.1333C35.0675 71.6339 36.2813 70.42 37.7807 70.42Z" fill="#3E3D4A"/>
<path d="M46.4541 70.42C47.9535 70.42 49.1673 71.6339 49.1673 73.1333C49.1673 74.6327 47.9535 75.8464 46.4541 75.8464C44.9547 75.8464 43.741 74.6327 43.741 73.1333C43.741 71.6339 44.9547 70.42 46.4541 70.42Z" fill="#3E3D4A"/>
<path d="M55.154 70.42C56.6534 70.42 57.8672 71.6339 57.8672 73.1333C57.8672 74.6327 56.6534 75.8464 55.154 75.8464C53.6546 75.8464 52.4407 74.6327 52.4407 73.1333C52.4407 71.6339 53.6546 70.42 55.154 70.42Z" fill="#3E3D4A"/>
<path d="M63.8182 70.42C65.3176 70.42 66.5314 71.6339 66.5314 73.1333C66.5314 74.6327 65.3176 75.8464 63.8182 75.8464C62.3188 75.8464 61.1051 74.6327 61.1051 73.1333C61.1051 71.6339 62.3188 70.42 63.8182 70.42Z" fill="#3E3D4A"/>
<path d="M72.4821 70.42C73.9815 70.42 75.1951 71.6339 75.1951 73.1333C75.1951 74.6327 73.9815 75.8464 72.4821 75.8464C70.9827 75.8464 69.7689 74.6327 69.7689 73.1333C69.7689 71.6339 70.9827 70.42 72.4821 70.42Z" fill="#3E3D4A"/>
<path d="M81.1916 70.42C82.691 70.42 83.9049 71.6339 83.9049 73.1333C83.9049 74.6327 82.691 75.8464 81.1916 75.8464C79.6922 75.8464 78.4784 74.6327 78.4784 73.1333C78.4784 71.6339 79.6922 70.42 81.1916 70.42Z" fill="#3E3D4A"/>
<path d="M89.8554 70.42C91.3548 70.42 92.5686 71.6339 92.5686 73.1333C92.5686 74.6327 91.3548 75.8464 89.8554 75.8464C88.356 75.8464 87.1421 74.6327 87.1421 73.1333C87.1421 71.6339 88.356 70.42 89.8554 70.42Z" fill="#3E3D4A"/>
<path d="M98.5195 70.42C100.019 70.42 101.233 71.6339 101.233 73.1333C101.233 74.6327 100.019 75.8464 98.5195 75.8464C97.0201 75.8464 95.8063 74.6327 95.8063 73.1333C95.8063 71.6339 97.0201 70.42 98.5195 70.42Z" fill="#3E3D4A"/>
<path d="M107.183 70.42C108.683 70.42 109.897 71.6339 109.897 73.1333C109.897 74.6327 108.683 75.8464 107.183 75.8464C105.684 75.8464 104.47 74.6327 104.47 73.1333C104.47 71.6339 105.684 70.42 107.183 70.42Z" fill="#3E3D4A"/>
<path d="M115.893 70.42C117.392 70.42 118.606 71.6339 118.606 73.1333C118.606 74.6327 117.392 75.8464 115.893 75.8464C114.393 75.8464 113.18 74.6327 113.18 73.1333C113.18 71.6339 114.393 70.42 115.893 70.42Z" fill="#3E3D4A"/>
<path d="M124.557 70.42C126.056 70.42 127.27 71.6339 127.27 73.1333C127.27 74.6327 126.056 75.8464 124.557 75.8464C123.057 75.8464 121.843 74.6327 121.843 73.1333C121.843 71.6339 123.057 70.42 124.557 70.42Z" fill="#3E3D4A"/>
<path d="M3.07957 79.1197C4.57897 79.1197 5.79258 80.3335 5.79258 81.8329C5.79258 83.3323 4.57897 84.5461 3.07957 84.5461C1.58017 84.5461 0.366333 83.3323 0.366333 81.8329C0.366333 80.3335 1.58017 79.1197 3.07957 79.1197Z" fill="#3E3D4A"/>
<path d="M11.7531 79.1197C13.2525 79.1197 14.4664 80.3335 14.4664 81.8329C14.4664 83.3323 13.2525 84.5461 11.7531 84.5461C10.2537 84.5461 9.03988 83.3323 9.03988 81.8329C9.03988 80.3335 10.2537 79.1197 11.7531 79.1197Z" fill="#3E3D4A"/>
<path d="M20.4528 79.1197C21.9522 79.1197 23.166 80.3335 23.166 81.8329C23.166 83.3323 21.9522 84.5461 20.4528 84.5461C18.9534 84.5461 17.7396 83.3323 17.7396 81.8329C17.7396 80.3335 18.9534 79.1197 20.4528 79.1197Z" fill="#3E3D4A"/>
<path d="M29.117 79.1197C30.6164 79.1197 31.8302 80.3335 31.8302 81.8329C31.8302 83.3323 30.6164 84.5461 29.117 84.5461C27.6176 84.5461 26.4038 83.3323 26.4038 81.8329C26.4038 80.3335 27.6176 79.1197 29.117 79.1197Z" fill="#3E3D4A"/>
<path d="M37.7807 79.1197C39.2801 79.1197 40.494 80.3335 40.494 81.8329C40.494 83.3323 39.2801 84.5461 37.7807 84.5461C36.2813 84.5461 35.0675 83.3323 35.0675 81.8329C35.0675 80.3335 36.2813 79.1197 37.7807 79.1197Z" fill="#3E3D4A"/>
<path d="M46.4541 79.1197C47.9535 79.1197 49.1673 80.3335 49.1673 81.8329C49.1673 83.3323 47.9535 84.5461 46.4541 84.5461C44.9547 84.5461 43.741 83.3323 43.741 81.8329C43.741 80.3335 44.9547 79.1197 46.4541 79.1197Z" fill="#3E3D4A"/>
<path d="M55.154 79.1197C56.6534 79.1197 57.8672 80.3335 57.8672 81.8329C57.8672 83.3323 56.6534 84.5461 55.154 84.5461C53.6546 84.5461 52.4407 83.3323 52.4407 81.8329C52.4407 80.3335 53.6546 79.1197 55.154 79.1197Z" fill="#3E3D4A"/>
<path d="M63.8182 79.1197C65.3176 79.1197 66.5314 80.3335 66.5314 81.8329C66.5314 83.3323 65.3176 84.5461 63.8182 84.5461C62.3188 84.5461 61.1051 83.3323 61.1051 81.8329C61.1051 80.3335 62.3188 79.1197 63.8182 79.1197Z" fill="#3E3D4A"/>
<path d="M72.4821 79.1197C73.9815 79.1197 75.1951 80.3335 75.1951 81.8329C75.1951 83.3323 73.9815 84.5461 72.4821 84.5461C70.9827 84.5461 69.7689 83.3323 69.7689 81.8329C69.7689 80.3335 70.9827 79.1197 72.4821 79.1197Z" fill="#3E3D4A"/>
<path d="M81.1916 79.1197C82.691 79.1197 83.9049 80.3335 83.9049 81.8329C83.9049 83.3323 82.691 84.5461 81.1916 84.5461C79.6922 84.5461 78.4784 83.3323 78.4784 81.8329C78.4784 80.3335 79.6922 79.1197 81.1916 79.1197Z" fill="#3E3D4A"/>
<path d="M89.8554 79.1197C91.3548 79.1197 92.5686 80.3335 92.5686 81.8329C92.5686 83.3323 91.3548 84.5461 89.8554 84.5461C88.356 84.5461 87.1421 83.3323 87.1421 81.8329C87.1421 80.3335 88.356 79.1197 89.8554 79.1197Z" fill="#3E3D4A"/>
<path d="M98.5195 79.1197C100.019 79.1197 101.233 80.3335 101.233 81.8329C101.233 83.3323 100.019 84.5461 98.5195 84.5461C97.0201 84.5461 95.8063 83.3323 95.8063 81.8329C95.8063 80.3335 97.0201 79.1197 98.5195 79.1197Z" fill="#3E3D4A"/>
<path d="M107.183 79.1197C108.683 79.1197 109.897 80.3335 109.897 81.8329C109.897 83.3323 108.683 84.5461 107.183 84.5461C105.684 84.5461 104.47 83.3323 104.47 81.8329C104.47 80.3335 105.684 79.1197 107.183 79.1197Z" fill="#3E3D4A"/>
<path d="M115.893 79.1197C117.392 79.1197 118.606 80.3335 118.606 81.8329C118.606 83.3323 117.392 84.5461 115.893 84.5461C114.393 84.5461 113.18 83.3323 113.18 81.8329C113.18 80.3335 114.393 79.1197 115.893 79.1197Z" fill="#3E3D4A"/>
<path d="M124.557 79.1197C126.056 79.1197 127.27 80.3335 127.27 81.8329C127.27 83.3323 126.056 84.5461 124.557 84.5461C123.057 84.5461 121.843 83.3323 121.843 81.8329C121.843 80.3335 123.057 79.1197 124.557 79.1197Z" fill="#3E3D4A"/>
<path d="M133.221 79.1197C134.72 79.1197 135.934 80.3335 135.934 81.8329C135.934 83.3323 134.72 84.5461 133.221 84.5461C131.721 84.5461 130.508 83.3323 130.508 81.8329C130.508 80.3335 131.721 79.1197 133.221 79.1197Z" fill="#3E3D4A"/>
<path d="M3.07957 87.8195C4.57897 87.8195 5.79258 89.0333 5.79258 90.5327C5.79258 92.0321 4.57897 93.2459 3.07957 93.2459C1.58017 93.2459 0.366333 92.0321 0.366333 90.5327C0.366333 89.0333 1.58017 87.8195 3.07957 87.8195Z" fill="#3E3D4A"/>
<path d="M11.7531 87.8195C13.2525 87.8195 14.4664 89.0333 14.4664 90.5327C14.4664 92.0321 13.2525 93.2459 11.7531 93.2459C10.2537 93.2459 9.03988 92.0321 9.03988 90.5327C9.03988 89.0333 10.2537 87.8195 11.7531 87.8195Z" fill="#3E3D4A"/>
<path d="M20.4528 87.8195C21.9522 87.8195 23.166 89.0333 23.166 90.5327C23.166 92.0321 21.9522 93.2459 20.4528 93.2459C18.9534 93.2459 17.7396 92.0321 17.7396 90.5327C17.7396 89.0333 18.9534 87.8195 20.4528 87.8195Z" fill="#3E3D4A"/>
<path d="M29.117 87.8195C30.6164 87.8195 31.8302 89.0333 31.8302 90.5327C31.8302 92.0321 30.6164 93.2459 29.117 93.2459C27.6176 93.2459 26.4038 92.0321 26.4038 90.5327C26.4038 89.0333 27.6176 87.8195 29.117 87.8195Z" fill="#3E3D4A"/>
<path d="M37.7807 87.8195C39.2801 87.8195 40.494 89.0333 40.494 90.5327C40.494 92.0321 39.2801 93.2459 37.7807 93.2459C36.2813 93.2459 35.0675 92.0321 35.0675 90.5327C35.0675 89.0333 36.2813 87.8195 37.7807 87.8195Z" fill="#3E3D4A"/>
<path d="M46.4541 87.8195C47.9535 87.8195 49.1673 89.0333 49.1673 90.5327C49.1673 92.0321 47.9535 93.2459 46.4541 93.2459C44.9547 93.2459 43.741 92.0321 43.741 90.5327C43.741 89.0333 44.9547 87.8195 46.4541 87.8195Z" fill="#3E3D4A"/>
<path d="M55.154 87.8195C56.6534 87.8195 57.8672 89.0333 57.8672 90.5327C57.8672 92.0321 56.6534 93.2459 55.154 93.2459C53.6546 93.2459 52.4407 92.0321 52.4407 90.5327C52.4407 89.0333 53.6546 87.8195 55.154 87.8195Z" fill="#3E3D4A"/>
<path d="M63.8182 87.8195C65.3176 87.8195 66.5314 89.0333 66.5314 90.5327C66.5314 92.0321 65.3176 93.2459 63.8182 93.2459C62.3188 93.2459 61.1051 92.0321 61.1051 90.5327C61.1051 89.0333 62.3188 87.8195 63.8182 87.8195Z" fill="#3E3D4A"/>
<path d="M72.4821 87.8195C73.9815 87.8195 75.1951 89.0333 75.1951 90.5327C75.1951 92.0321 73.9815 93.2459 72.4821 93.2459C70.9827 93.2459 69.7689 92.0321 69.7689 90.5327C69.7689 89.0333 70.9827 87.8195 72.4821 87.8195Z" fill="#3E3D4A"/>
<path d="M81.1916 87.8195C82.691 87.8195 83.9049 89.0333 83.9049 90.5327C83.9049 92.0321 82.691 93.2459 81.1916 93.2459C79.6922 93.2459 78.4784 92.0321 78.4784 90.5327C78.4784 89.0333 79.6922 87.8195 81.1916 87.8195Z" fill="#3E3D4A"/>
<path d="M89.8554 87.8195C91.3548 87.8195 92.5686 89.0333 92.5686 90.5327C92.5686 92.0321 91.3548 93.2459 89.8554 93.2459C88.356 93.2459 87.1421 92.0321 87.1421 90.5327C87.1421 89.0333 88.356 87.8195 89.8554 87.8195Z" fill="#3E3D4A"/>
<path d="M98.5195 87.8195C100.019 87.8195 101.233 89.0333 101.233 90.5327C101.233 92.0321 100.019 93.2459 98.5195 93.2459C97.0201 93.2459 95.8063 92.0321 95.8063 90.5327C95.8063 89.0333 97.0201 87.8195 98.5195 87.8195Z" fill="#3E3D4A"/>
<path d="M107.183 87.8195C108.683 87.8195 109.897 89.0333 109.897 90.5327C109.897 92.0321 108.683 93.2459 107.183 93.2459C105.684 93.2459 104.47 92.0321 104.47 90.5327C104.47 89.0333 105.684 87.8195 107.183 87.8195Z" fill="#3E3D4A"/>
<path d="M115.893 87.8195C117.392 87.8195 118.606 89.0333 118.606 90.5327C118.606 92.0321 117.392 93.2459 115.893 93.2459C114.393 93.2459 113.18 92.0321 113.18 90.5327C113.18 89.0333 114.393 87.8195 115.893 87.8195Z" fill="#3E3D4A"/>
<path d="M124.557 87.8195C126.056 87.8195 127.27 89.0333 127.27 90.5327C127.27 92.0321 126.056 93.2459 124.557 93.2459C123.057 93.2459 121.843 92.0321 121.843 90.5327C121.843 89.0333 123.057 87.8195 124.557 87.8195Z" fill="#3E3D4A"/>
<path d="M133.221 87.8195C134.72 87.8195 135.934 89.0333 135.934 90.5327C135.934 92.0321 134.72 93.2459 133.221 93.2459C131.721 93.2459 130.508 92.0321 130.508 90.5327C130.508 89.0333 131.721 87.8195 133.221 87.8195Z" fill="#3E3D4A"/>
<path d="M141.885 87.8195C143.384 87.8195 144.598 89.0333 144.598 90.5327C144.598 92.0321 143.384 93.2459 141.885 93.2459C140.386 93.2459 139.172 92.0321 139.172 90.5327C139.172 89.0333 140.386 87.8195 141.885 87.8195Z" fill="#3E3D4A"/>
<path d="M3.07957 96.493C4.57897 96.493 5.79258 97.7068 5.79258 99.2062C5.79258 100.706 4.57897 101.919 3.07957 101.919C1.58017 101.919 0.366333 100.706 0.366333 99.2062C0.366333 97.7068 1.58017 96.493 3.07957 96.493Z" fill="#3E3D4A"/>
<path d="M11.7531 96.493C13.2525 96.493 14.4664 97.7068 14.4664 99.2062C14.4664 100.706 13.2525 101.919 11.7531 101.919C10.2537 101.919 9.03988 100.706 9.03988 99.2062C9.03988 97.7068 10.2537 96.493 11.7531 96.493Z" fill="#3E3D4A"/>
<path d="M20.4528 96.493C21.9522 96.493 23.166 97.7068 23.166 99.2062C23.166 100.706 21.9522 101.919 20.4528 101.919C18.9534 101.919 17.7396 100.706 17.7396 99.2062C17.7396 97.7068 18.9534 96.493 20.4528 96.493Z" fill="#3E3D4A"/>
<path d="M29.117 96.493C30.6164 96.493 31.8302 97.7068 31.8302 99.2062C31.8302 100.706 30.6164 101.919 29.117 101.919C27.6176 101.919 26.4038 100.706 26.4038 99.2062C26.4038 97.7068 27.6176 96.493 29.117 96.493Z" fill="#3E3D4A"/>
<path d="M37.7807 96.493C39.2801 96.493 40.494 97.7068 40.494 99.2062C40.494 100.706 39.2801 101.919 37.7807 101.919C36.2813 101.919 35.0675 100.706 35.0675 99.2062C35.0675 97.7068 36.2813 96.493 37.7807 96.493Z" fill="#3E3D4A"/>
<path d="M46.4541 96.493C47.9535 96.493 49.1673 97.7068 49.1673 99.2062C49.1673 100.706 47.9535 101.919 46.4541 101.919C44.9547 101.919 43.741 100.706 43.741 99.2062C43.741 97.7068 44.9547 96.493 46.4541 96.493Z" fill="#3E3D4A"/>
<path d="M55.154 96.493C56.6534 96.493 57.8672 97.7068 57.8672 99.2062C57.8672 100.706 56.6534 101.919 55.154 101.919C53.6546 101.919 52.4407 100.706 52.4407 99.2062C52.4407 97.7068 53.6546 96.493 55.154 96.493Z" fill="#3E3D4A"/>
<path d="M63.8182 96.493C65.3176 96.493 66.5314 97.7068 66.5314 99.2062C66.5314 100.706 65.3176 101.919 63.8182 101.919C62.3188 101.919 61.1051 100.706 61.1051 99.2062C61.1051 97.7068 62.3188 96.493 63.8182 96.493Z" fill="#3E3D4A"/>
<path d="M72.4821 96.493C73.9815 96.493 75.1951 97.7068 75.1951 99.2062C75.1951 100.706 73.9815 101.919 72.4821 101.919C70.9827 101.919 69.7689 100.706 69.7689 99.2062C69.7689 97.7068 70.9827 96.493 72.4821 96.493Z" fill="#3E3D4A"/>
<path d="M81.1916 96.493C82.691 96.493 83.9049 97.7068 83.9049 99.2062C83.9049 100.706 82.691 101.919 81.1916 101.919C79.6922 101.919 78.4784 100.706 78.4784 99.2062C78.4784 97.7068 79.6922 96.493 81.1916 96.493Z" fill="#3E3D4A"/>
<path d="M89.8554 96.493C91.3548 96.493 92.5686 97.7068 92.5686 99.2062C92.5686 100.706 91.3548 101.919 89.8554 101.919C88.356 101.919 87.1421 100.706 87.1421 99.2062C87.1421 97.7068 88.356 96.493 89.8554 96.493Z" fill="#3E3D4A"/>
<path d="M98.5195 96.493C100.019 96.493 101.233 97.7068 101.233 99.2062C101.233 100.706 100.019 101.919 98.5195 101.919C97.0201 101.919 95.8063 100.706 95.8063 99.2062C95.8063 97.7068 97.0201 96.493 98.5195 96.493Z" fill="#3E3D4A"/>
<path d="M107.183 96.493C108.683 96.493 109.897 97.7068 109.897 99.2062C109.897 100.706 108.683 101.919 107.183 101.919C105.684 101.919 104.47 100.706 104.47 99.2062C104.47 97.7068 105.684 96.493 107.183 96.493Z" fill="#3E3D4A"/>
<path d="M115.893 96.493C117.392 96.493 118.606 97.7068 118.606 99.2062C118.606 100.706 117.392 101.919 115.893 101.919C114.393 101.919 113.18 100.706 113.18 99.2062C113.18 97.7068 114.393 96.493 115.893 96.493Z" fill="#3E3D4A"/>
<path d="M124.557 96.493C126.056 96.493 127.27 97.7068 127.27 99.2062C127.27 100.706 126.056 101.919 124.557 101.919C123.057 101.919 121.843 100.706 121.843 99.2062C121.843 97.7068 123.057 96.493 124.557 96.493Z" fill="#3E3D4A"/>
<path d="M133.221 96.493C134.72 96.493 135.934 97.7068 135.934 99.2062C135.934 100.706 134.72 101.919 133.221 101.919C131.721 101.919 130.508 100.706 130.508 99.2062C130.508 97.7068 131.721 96.493 133.221 96.493Z" fill="#3E3D4A"/>
<path d="M141.885 96.493C143.384 96.493 144.598 97.7068 144.598 99.2062C144.598 100.706 143.384 101.919 141.885 101.919C140.386 101.919 139.172 100.706 139.172 99.2062C139.172 97.7068 140.386 96.493 141.885 96.493Z" fill="#3E3D4A"/>
<path d="M3.07957 105.193C4.57897 105.193 5.79258 106.406 5.79258 107.906C5.79258 109.405 4.57897 110.619 3.07957 110.619C1.58017 110.619 0.366333 109.405 0.366333 107.906C0.366333 106.406 1.58017 105.193 3.07957 105.193Z" fill="#3E3D4A"/>
<path d="M11.7531 105.193C13.2525 105.193 14.4664 106.406 14.4664 107.906C14.4664 109.405 13.2525 110.619 11.7531 110.619C10.2537 110.619 9.03988 109.405 9.03988 107.906C9.03988 106.406 10.2537 105.193 11.7531 105.193Z" fill="#3E3D4A"/>
<path d="M20.4528 105.193C21.9522 105.193 23.166 106.406 23.166 107.906C23.166 109.405 21.9522 110.619 20.4528 110.619C18.9534 110.619 17.7396 109.405 17.7396 107.906C17.7396 106.406 18.9534 105.193 20.4528 105.193Z" fill="#3E3D4A"/>
<path d="M29.117 105.193C30.6164 105.193 31.8302 106.406 31.8302 107.906C31.8302 109.405 30.6164 110.619 29.117 110.619C27.6176 110.619 26.4038 109.405 26.4038 107.906C26.4038 106.406 27.6176 105.193 29.117 105.193Z" fill="#3E3D4A"/>
<path d="M37.7807 105.193C39.2801 105.193 40.494 106.406 40.494 107.906C40.494 109.405 39.2801 110.619 37.7807 110.619C36.2813 110.619 35.0675 109.405 35.0675 107.906C35.0675 106.406 36.2813 105.193 37.7807 105.193Z" fill="#3E3D4A"/>
<path d="M46.4541 105.193C47.9535 105.193 49.1673 106.406 49.1673 107.906C49.1673 109.405 47.9535 110.619 46.4541 110.619C44.9547 110.619 43.741 109.405 43.741 107.906C43.741 106.406 44.9547 105.193 46.4541 105.193Z" fill="#3E3D4A"/>
<path d="M55.154 105.193C56.6534 105.193 57.8672 106.406 57.8672 107.906C57.8672 109.405 56.6534 110.619 55.154 110.619C53.6546 110.619 52.4407 109.405 52.4407 107.906C52.4407 106.406 53.6546 105.193 55.154 105.193Z" fill="#3E3D4A"/>
<path d="M63.8182 105.193C65.3176 105.193 66.5314 106.406 66.5314 107.906C66.5314 109.405 65.3176 110.619 63.8182 110.619C62.3188 110.619 61.1051 109.405 61.1051 107.906C61.1051 106.406 62.3188 105.193 63.8182 105.193Z" fill="#3E3D4A"/>
<path d="M72.4821 105.193C73.9815 105.193 75.1951 106.406 75.1951 107.906C75.1951 109.405 73.9815 110.619 72.4821 110.619C70.9827 110.619 69.7689 109.405 69.7689 107.906C69.7689 106.406 70.9827 105.193 72.4821 105.193Z" fill="#3E3D4A"/>
<path d="M81.1916 105.193C82.691 105.193 83.9049 106.406 83.9049 107.906C83.9049 109.405 82.691 110.619 81.1916 110.619C79.6922 110.619 78.4784 109.405 78.4784 107.906C78.4784 106.406 79.6922 105.193 81.1916 105.193Z" fill="#3E3D4A"/>
<path d="M89.8554 105.193C91.3548 105.193 92.5686 106.406 92.5686 107.906C92.5686 109.405 91.3548 110.619 89.8554 110.619C88.356 110.619 87.1421 109.405 87.1421 107.906C87.1421 106.406 88.356 105.193 89.8554 105.193Z" fill="#3E3D4A"/>
<path d="M98.5195 105.193C100.019 105.193 101.233 106.406 101.233 107.906C101.233 109.405 100.019 110.619 98.5195 110.619C97.0201 110.619 95.8063 109.405 95.8063 107.906C95.8063 106.406 97.0201 105.193 98.5195 105.193Z" fill="#3E3D4A"/>
<path d="M107.183 105.193C108.683 105.193 109.897 106.406 109.897 107.906C109.897 109.405 108.683 110.619 107.183 110.619C105.684 110.619 104.47 109.405 104.47 107.906C104.47 106.406 105.684 105.193 107.183 105.193Z" fill="#3E3D4A"/>
<path d="M115.893 105.193C117.392 105.193 118.606 106.406 118.606 107.906C118.606 109.405 117.392 110.619 115.893 110.619C114.393 110.619 113.18 109.405 113.18 107.906C113.18 106.406 114.393 105.193 115.893 105.193Z" fill="#3E3D4A"/>
<path d="M124.557 105.193C126.056 105.193 127.27 106.406 127.27 107.906C127.27 109.405 126.056 110.619 124.557 110.619C123.057 110.619 121.843 109.405 121.843 107.906C121.843 106.406 123.057 105.193 124.557 105.193Z" fill="#3E3D4A"/>
<path d="M133.221 105.193C134.72 105.193 135.934 106.406 135.934 107.906C135.934 109.405 134.72 110.619 133.221 110.619C131.721 110.619 130.508 109.405 130.508 107.906C130.508 106.406 131.721 105.193 133.221 105.193Z" fill="#3E3D4A"/>
<path d="M141.885 105.193C143.384 105.193 144.598 106.406 144.598 107.906C144.598 109.405 143.384 110.619 141.885 110.619C140.386 110.619 139.172 109.405 139.172 107.906C139.172 106.406 140.386 105.193 141.885 105.193Z" fill="#3E3D4A"/>
<path d="M150.594 105.193C152.094 105.193 153.307 106.406 153.307 107.906C153.307 109.405 152.094 110.619 150.594 110.619C149.095 110.619 147.881 109.405 147.881 107.906C147.881 106.406 149.095 105.193 150.594 105.193Z" fill="#3E3D4A"/>
<path d="M3.07957 113.893C4.57897 113.893 5.79258 115.106 5.79258 116.606C5.79258 118.105 4.57897 119.319 3.07957 119.319C1.58017 119.319 0.366333 118.105 0.366333 116.606C0.366333 115.106 1.58017 113.893 3.07957 113.893Z" fill="#3E3D4A"/>
<path d="M11.7531 113.893C13.2525 113.893 14.4664 115.106 14.4664 116.606C14.4664 118.105 13.2525 119.319 11.7531 119.319C10.2537 119.319 9.03988 118.105 9.03988 116.606C9.03988 115.106 10.2537 113.893 11.7531 113.893Z" fill="#3E3D4A"/>
<path d="M20.4528 113.893C21.9522 113.893 23.166 115.106 23.166 116.606C23.166 118.105 21.9522 119.319 20.4528 119.319C18.9534 119.319 17.7396 118.105 17.7396 116.606C17.7396 115.106 18.9534 113.893 20.4528 113.893Z" fill="#3E3D4A"/>
<path d="M29.117 113.893C30.6164 113.893 31.8302 115.106 31.8302 116.606C31.8302 118.105 30.6164 119.319 29.117 119.319C27.6176 119.319 26.4038 118.105 26.4038 116.606C26.4038 115.106 27.6176 113.893 29.117 113.893Z" fill="#3E3D4A"/>
<path d="M37.7807 113.893C39.2801 113.893 40.494 115.106 40.494 116.606C40.494 118.105 39.2801 119.319 37.7807 119.319C36.2813 119.319 35.0675 118.105 35.0675 116.606C35.0675 115.106 36.2813 113.893 37.7807 113.893Z" fill="#3E3D4A"/>
<path d="M46.4541 113.893C47.9535 113.893 49.1673 115.106 49.1673 116.606C49.1673 118.105 47.9535 119.319 46.4541 119.319C44.9547 119.319 43.741 118.105 43.741 116.606C43.741 115.106 44.9547 113.893 46.4541 113.893Z" fill="#3E3D4A"/>
<path d="M55.154 113.893C56.6534 113.893 57.8672 115.106 57.8672 116.606C57.8672 118.105 56.6534 119.319 55.154 119.319C53.6546 119.319 52.4407 118.105 52.4407 116.606C52.4407 115.106 53.6546 113.893 55.154 113.893Z" fill="#3E3D4A"/>
<path d="M63.8182 113.893C65.3176 113.893 66.5314 115.106 66.5314 116.606C66.5314 118.105 65.3176 119.319 63.8182 119.319C62.3188 119.319 61.1051 118.105 61.1051 116.606C61.1051 115.106 62.3188 113.893 63.8182 113.893Z" fill="#3E3D4A"/>
<path d="M72.4821 113.893C73.9815 113.893 75.1951 115.106 75.1951 116.606C75.1951 118.105 73.9815 119.319 72.4821 119.319C70.9827 119.319 69.7689 118.105 69.7689 116.606C69.7689 115.106 70.9827 113.893 72.4821 113.893Z" fill="#3E3D4A"/>
<path d="M81.1916 113.893C82.691 113.893 83.9049 115.106 83.9049 116.606C83.9049 118.105 82.691 119.319 81.1916 119.319C79.6922 119.319 78.4784 118.105 78.4784 116.606C78.4784 115.106 79.6922 113.893 81.1916 113.893Z" fill="#3E3D4A"/>
<path d="M89.8554 113.893C91.3548 113.893 92.5686 115.106 92.5686 116.606C92.5686 118.105 91.3548 119.319 89.8554 119.319C88.356 119.319 87.1421 118.105 87.1421 116.606C87.1421 115.106 88.356 113.893 89.8554 113.893Z" fill="#3E3D4A"/>
<path d="M98.5195 113.893C100.019 113.893 101.233 115.106 101.233 116.606C101.233 118.105 100.019 119.319 98.5195 119.319C97.0201 119.319 95.8063 118.105 95.8063 116.606C95.8063 115.106 97.0201 113.893 98.5195 113.893Z" fill="#3E3D4A"/>
<path d="M107.183 113.893C108.683 113.893 109.897 115.106 109.897 116.606C109.897 118.105 108.683 119.319 107.183 119.319C105.684 119.319 104.47 118.105 104.47 116.606C104.47 115.106 105.684 113.893 107.183 113.893Z" fill="#3E3D4A"/>
<path d="M115.893 113.893C117.392 113.893 118.606 115.106 118.606 116.606C118.606 118.105 117.392 119.319 115.893 119.319C114.393 119.319 113.18 118.105 113.18 116.606C113.18 115.106 114.393 113.893 115.893 113.893Z" fill="#3E3D4A"/>
<path d="M124.557 113.893C126.056 113.893 127.27 115.106 127.27 116.606C127.27 118.105 126.056 119.319 124.557 119.319C123.057 119.319 121.843 118.105 121.843 116.606C121.843 115.106 123.057 113.893 124.557 113.893Z" fill="#3E3D4A"/>
<path d="M133.221 113.893C134.72 113.893 135.934 115.106 135.934 116.606C135.934 118.105 134.72 119.319 133.221 119.319C131.721 119.319 130.508 118.105 130.508 116.606C130.508 115.106 131.721 113.893 133.221 113.893Z" fill="#3E3D4A"/>
<path d="M141.885 113.893C143.384 113.893 144.598 115.106 144.598 116.606C144.598 118.105 143.384 119.319 141.885 119.319C140.386 119.319 139.172 118.105 139.172 116.606C139.172 115.106 140.386 113.893 141.885 113.893Z" fill="#3E3D4A"/>
<path d="M11.7531 122.556C13.2525 122.556 14.4664 123.77 14.4664 125.27C14.4664 126.769 13.2525 127.983 11.7531 127.983C10.2537 127.983 9.03988 126.769 9.03988 125.27C9.03988 123.77 10.2537 122.556 11.7531 122.556Z" fill="#3E3D4A"/>
<path d="M20.4528 122.556C21.9522 122.556 23.166 123.77 23.166 125.27C23.166 126.769 21.9522 127.983 20.4528 127.983C18.9534 127.983 17.7396 126.769 17.7396 125.27C17.7396 123.77 18.9534 122.556 20.4528 122.556Z" fill="#3E3D4A"/>
<path d="M29.117 122.556C30.6164 122.556 31.8302 123.77 31.8302 125.27C31.8302 126.769 30.6164 127.983 29.117 127.983C27.6176 127.983 26.4038 126.769 26.4038 125.27C26.4038 123.77 27.6176 122.556 29.117 122.556Z" fill="#3E3D4A"/>
<path d="M37.7807 122.556C39.2801 122.556 40.494 123.77 40.494 125.27C40.494 126.769 39.2801 127.983 37.7807 127.983C36.2813 127.983 35.0675 126.769 35.0675 125.27C35.0675 123.77 36.2813 122.556 37.7807 122.556Z" fill="#3E3D4A"/>
<path d="M46.4541 122.556C47.9535 122.556 49.1673 123.77 49.1673 125.27C49.1673 126.769 47.9535 127.983 46.4541 127.983C44.9547 127.983 43.741 126.769 43.741 125.27C43.741 123.77 44.9547 122.556 46.4541 122.556Z" fill="#3E3D4A"/>
<path d="M72.4821 122.556C73.9815 122.556 75.1951 123.77 75.1951 125.27C75.1951 126.769 73.9815 127.983 72.4821 127.983C70.9827 127.983 69.7689 126.769 69.7689 125.27C69.7689 123.77 70.9827 122.556 72.4821 122.556Z" fill="#3E3D4A"/>
<path d="M81.1916 122.556C82.691 122.556 83.9049 123.77 83.9049 125.27C83.9049 126.769 82.691 127.983 81.1916 127.983C79.6922 127.983 78.4784 126.769 78.4784 125.27C78.4784 123.77 79.6922 122.556 81.1916 122.556Z" fill="#3E3D4A"/>
<path d="M89.8554 122.556C91.3548 122.556 92.5686 123.77 92.5686 125.27C92.5686 126.769 91.3548 127.983 89.8554 127.983C88.356 127.983 87.1421 126.769 87.1421 125.27C87.1421 123.77 88.356 122.556 89.8554 122.556Z" fill="#3E3D4A"/>
<path d="M98.5195 122.556C100.019 122.556 101.233 123.77 101.233 125.27C101.233 126.769 100.019 127.983 98.5195 127.983C97.0201 127.983 95.8063 126.769 95.8063 125.27C95.8063 123.77 97.0201 122.556 98.5195 122.556Z" fill="#3E3D4A"/>
<path d="M107.183 122.556C108.683 122.556 109.897 123.77 109.897 125.27C109.897 126.769 108.683 127.983 107.183 127.983C105.684 127.983 104.47 126.769 104.47 125.27C104.47 123.77 105.684 122.556 107.183 122.556Z" fill="#3E3D4A"/>
<path d="M115.893 122.556C117.392 122.556 118.606 123.77 118.606 125.27C118.606 126.769 117.392 127.983 115.893 127.983C114.393 127.983 113.18 126.769 113.18 125.27C113.18 123.77 114.393 122.556 115.893 122.556Z" fill="#3E3D4A"/>
<path d="M124.557 122.556C126.056 122.556 127.27 123.77 127.27 125.27C127.27 126.769 126.056 127.983 124.557 127.983C123.057 127.983 121.843 126.769 121.843 125.27C121.843 123.77 123.057 122.556 124.557 122.556Z" fill="#3E3D4A"/>
<path d="M133.221 122.556C134.72 122.556 135.934 123.77 135.934 125.27C135.934 126.769 134.72 127.983 133.221 127.983C131.721 127.983 130.508 126.769 130.508 125.27C130.508 123.77 131.721 122.556 133.221 122.556Z" fill="#3E3D4A"/>
<path d="M141.885 122.556C143.384 122.556 144.598 123.77 144.598 125.27C144.598 126.769 143.384 127.983 141.885 127.983C140.386 127.983 139.172 126.769 139.172 125.27C139.172 123.77 140.386 122.556 141.885 122.556Z" fill="#3E3D4A"/>
<path d="M3.07957 131.256C4.57897 131.256 5.79258 132.47 5.79258 133.969C5.79258 135.469 4.57897 136.683 3.07957 136.683C1.58017 136.683 0.366333 135.469 0.366333 133.969C0.366333 132.47 1.58017 131.256 3.07957 131.256Z" fill="#3E3D4A"/>
<path d="M11.7531 131.256C13.2525 131.256 14.4664 132.47 14.4664 133.969C14.4664 135.469 13.2525 136.683 11.7531 136.683C10.2537 136.683 9.03988 135.469 9.03988 133.969C9.03988 132.47 10.2537 131.256 11.7531 131.256Z" fill="#3E3D4A"/>
<path d="M81.1916 136.683C82.6901 136.683 83.9049 135.468 83.9049 133.969C83.9049 132.471 82.6901 131.256 81.1916 131.256C79.6932 131.256 78.4784 132.471 78.4784 133.969C78.4784 135.468 79.6932 136.683 81.1916 136.683Z" fill="#3E3D4A"/>
<path d="M89.8565 136.682C91.355 136.68 92.5683 135.464 92.5666 133.965C92.5648 132.467 91.3486 131.254 89.8501 131.255C88.3517 131.257 87.1383 132.473 87.1401 133.972C87.1418 135.47 88.358 136.684 89.8565 136.682Z" fill="#3E3D4A"/>
<path d="M98.5195 131.256C100.019 131.256 101.233 132.47 101.233 133.969C101.233 135.469 100.019 136.683 98.5195 136.683C97.0201 136.683 95.8063 135.469 95.8063 133.969C95.8063 132.47 97.0201 131.256 98.5195 131.256Z" fill="#3E3D4A"/>
<path d="M107.183 131.256C108.683 131.256 109.897 132.47 109.897 133.969C109.897 135.469 108.683 136.683 107.183 136.683C105.684 136.683 104.47 135.469 104.47 133.969C104.47 132.47 105.684 131.256 107.183 131.256Z" fill="#3E3D4A"/>
<path d="M115.894 136.682C117.393 136.68 118.606 135.464 118.604 133.965C118.602 132.467 117.386 131.254 115.888 131.255C114.389 131.257 113.176 132.473 113.178 133.972C113.179 135.47 114.396 136.684 115.894 136.682Z" fill="#3E3D4A"/>
<path d="M124.557 136.683C126.055 136.683 127.27 135.468 127.27 133.969C127.27 132.471 126.055 131.256 124.557 131.256C123.058 131.256 121.843 132.471 121.843 133.969C121.843 135.468 123.058 136.683 124.557 136.683Z" fill="#3E3D4A"/>
<path d="M133.221 131.256C134.72 131.256 135.934 132.47 135.934 133.969C135.934 135.469 134.72 136.683 133.221 136.683C131.721 136.683 130.508 135.469 130.508 133.969C130.508 132.47 131.721 131.256 133.221 131.256Z" fill="#3E3D4A"/>
<path d="M98.5195 139.966C100.019 139.966 101.233 141.179 101.233 142.679C101.233 144.178 100.019 145.392 98.5195 145.392C97.0201 145.392 95.8063 144.178 95.8063 142.679C95.8063 141.179 97.0201 139.966 98.5195 139.966Z" fill="#3E3D4A"/>
<path d="M107.183 139.966C108.683 139.966 109.897 141.179 109.897 142.679C109.897 144.178 108.683 145.392 107.183 145.392C105.684 145.392 104.47 144.178 104.47 142.679C104.47 141.179 105.684 139.966 107.183 139.966Z" fill="#3E3D4A"/>
<path d="M115.894 145.391C117.393 145.389 118.606 144.173 118.604 142.674C118.602 141.176 117.386 139.963 115.888 139.965C114.389 139.966 113.176 141.183 113.178 142.681C113.179 144.179 114.396 145.393 115.894 145.391Z" fill="#3E3D4A"/>
<path d="M124.557 145.392C126.055 145.392 127.27 144.177 127.27 142.679C127.27 141.18 126.055 139.966 124.557 139.966C123.058 139.966 121.843 141.18 121.843 142.679C121.843 144.177 123.058 145.392 124.557 145.392Z" fill="#3E3D4A"/>
<path d="M133.221 139.966C134.72 139.966 135.934 141.179 135.934 142.679C135.934 144.178 134.72 145.392 133.221 145.392C131.721 145.392 130.508 144.178 130.508 142.679C130.508 141.179 131.721 139.966 133.221 139.966Z" fill="#3E3D4A"/>
<path d="M228.661 145.392C230.159 145.392 231.374 144.177 231.374 142.679C231.374 141.18 230.159 139.966 228.661 139.966C227.162 139.966 225.948 141.18 225.948 142.679C225.948 144.177 227.162 145.392 228.661 145.392Z" fill="#3E3D4A"/>
<path d="M107.183 148.629C108.683 148.629 109.897 149.843 109.897 151.343C109.897 152.842 108.683 154.056 107.183 154.056C105.684 154.056 104.47 152.842 104.47 151.343C104.47 149.843 105.684 148.629 107.183 148.629Z" fill="#3E3D4A"/>
<path d="M115.893 148.629C117.392 148.629 118.606 149.843 118.606 151.343C118.606 152.842 117.392 154.056 115.893 154.056C114.393 154.056 113.18 152.842 113.18 151.343C113.18 149.843 114.393 148.629 115.893 148.629Z" fill="#3E3D4A"/>
<path d="M124.557 148.629C126.056 148.629 127.27 149.843 127.27 151.343C127.27 152.842 126.056 154.056 124.557 154.056C123.057 154.056 121.843 152.842 121.843 151.343C121.843 149.843 123.057 148.629 124.557 148.629Z" fill="#3E3D4A"/>
<path d="M237.325 148.629C238.824 148.629 240.038 149.843 240.038 151.343C240.038 152.842 238.824 154.056 237.325 154.056C235.826 154.056 234.612 152.842 234.612 151.343C234.612 149.843 235.826 148.629 237.325 148.629Z" fill="#3E3D4A"/>
<path d="M246.025 148.629C247.524 148.629 248.738 149.843 248.738 151.343C248.738 152.842 247.524 154.056 246.025 154.056C244.525 154.056 243.311 152.842 243.311 151.343C243.311 149.843 244.525 148.629 246.025 148.629Z" fill="#3E3D4A"/>
<path d="M237.325 157.329C238.824 157.329 240.038 158.543 240.038 160.043C240.038 161.542 238.824 162.756 237.325 162.756C235.826 162.756 234.612 161.542 234.612 160.043C234.612 158.543 235.826 157.329 237.325 157.329Z" fill="#3E3D4A"/>
<path d="M124.557 171.455C126.055 171.455 127.27 170.241 127.27 168.742C127.27 167.244 126.055 166.029 124.557 166.029C123.058 166.029 121.843 167.244 121.843 168.742C121.843 170.241 123.058 171.455 124.557 171.455Z" fill="#3E3D4A"/>
<path d="M219.997 166.029C221.496 166.029 222.71 167.243 222.71 168.742C222.71 170.242 221.496 171.455 219.997 171.455C218.497 171.455 217.283 170.242 217.283 168.742C217.283 167.243 218.497 166.029 219.997 166.029Z" fill="#3E3D4A"/>
<path d="M228.661 171.455C230.159 171.455 231.374 170.241 231.374 168.742C231.374 167.244 230.159 166.029 228.661 166.029C227.162 166.029 225.948 167.244 225.948 168.742C225.948 170.241 227.162 171.455 228.661 171.455Z" fill="#3E3D4A"/>
<path d="M211.287 174.703C212.787 174.703 214.001 175.916 214.001 177.416C214.001 178.915 212.787 180.129 211.287 180.129C209.788 180.129 208.574 178.915 208.574 177.416C208.574 175.916 209.788 174.703 211.287 174.703Z" fill="#3E3D4A"/>
<path d="M219.997 174.703C221.496 174.703 222.71 175.916 222.71 177.416C222.71 178.915 221.496 180.129 219.997 180.129C218.497 180.129 217.283 178.915 217.283 177.416C217.283 175.916 218.497 174.703 219.997 174.703Z" fill="#3E3D4A"/>
<path d="M202.623 183.402C204.123 183.402 205.337 184.616 205.337 186.115C205.337 187.615 204.123 188.829 202.623 188.829C201.124 188.829 199.91 187.615 199.91 186.115C199.91 184.616 201.124 183.402 202.623 183.402Z" fill="#3E3D4A"/>
<path d="M211.287 183.402C212.787 183.402 214.001 184.616 214.001 186.115C214.001 187.615 212.787 188.829 211.287 188.829C209.788 188.829 208.574 187.615 208.574 186.115C208.574 184.616 209.788 183.402 211.287 183.402Z" fill="#3E3D4A"/>
</svg>
