<svg width="596" height="414" viewBox="0 0 596 414" fill="none" xmlns="http://www.w3.org/2000/svg">
<path d="M257.601 224.542C257.419 223.148 256.747 221.869 255.709 220.94C254.672 220.012 253.339 219.497 251.957 219.492C251.14 219.498 250.334 219.675 249.588 220.013C248.842 220.351 248.173 220.842 247.622 221.456C247.578 221.443 247.532 221.428 247.482 221.414L247.359 221.383C247.279 221.364 247.195 221.349 247.056 221.328L246.989 221.318C246.864 221.304 246.739 221.297 246.614 221.296C245.773 221.302 244.965 221.625 244.346 222.203C243.726 222.782 243.341 223.574 243.263 224.426C242.632 224.866 242.114 225.455 241.752 226.141C241.39 226.828 241.196 227.593 241.185 228.372C241.186 229.585 241.66 230.749 242.503 231.607C243.347 232.465 244.49 232.948 245.683 232.949H249.842L249.038 230.905H245.683C245.02 230.904 244.384 230.636 243.916 230.159C243.447 229.683 243.183 229.036 243.182 228.362C243.195 227.856 243.341 227.363 243.605 226.935C243.869 226.506 244.241 226.158 244.683 225.925L245.251 225.65V224.707C245.251 224.339 245.395 223.987 245.65 223.727C245.906 223.467 246.253 223.32 246.614 223.32C246.669 223.321 246.723 223.325 246.778 223.331L246.833 223.341C246.887 223.35 246.941 223.363 247.007 223.38C247.058 223.396 247.109 223.416 247.157 223.44L247.231 223.475C247.264 223.49 247.296 223.508 247.326 223.528C247.509 223.668 247.653 223.898 247.847 224.269C247.861 224.313 247.879 224.358 247.896 224.404L247.953 224.571C249.559 228.615 250.515 231.11 250.857 232.009C251.02 232.383 251.23 232.894 251.965 232.894C252.206 232.903 252.444 232.835 252.645 232.698C252.846 232.561 252.999 232.363 253.083 232.133C253.41 231.325 253.738 230.562 254.022 229.859C254.33 229.128 254.464 228.771 254.553 228.535C254.589 228.435 254.618 228.368 254.648 228.287C255.031 227.354 255.278 226.749 255.458 226.288C255.911 226.288 256.376 226.316 256.492 226.325C257.007 226.439 257.468 226.728 257.799 227.145C258.13 227.563 258.311 228.082 258.313 228.618C258.312 229.228 258.074 229.812 257.651 230.243C257.227 230.674 256.653 230.916 256.054 230.917H254.998L254.193 232.951H256.054C257.182 232.951 258.265 232.494 259.063 231.682C259.861 230.87 260.31 229.768 260.31 228.62C260.304 227.744 260.044 226.889 259.562 226.164C259.079 225.438 258.397 224.874 257.601 224.542V224.542ZM254.603 224.314C254.439 224.339 254.283 224.405 254.15 224.508C254.018 224.61 253.913 224.745 253.846 224.901C253.826 224.933 253.808 224.968 253.793 225.004L252.03 229.739L252.021 229.767L250.182 224.731C250.091 224.469 250.002 224.231 249.92 224.003L249.863 223.849C249.75 223.411 249.552 222.999 249.282 222.639C250.002 221.935 250.959 221.538 251.957 221.526C253.567 221.526 255.018 222.672 255.492 224.258C255.195 224.26 254.899 224.279 254.603 224.314V224.314Z" fill="white"/>
</svg>
