<svg width="20" height="14" viewBox="0 0 20 14" fill="none" xmlns="http://www.w3.org/2000/svg">
<path d="M16.4993 5.25724C16.3176 3.86334 15.6457 2.58364 14.608 1.65512C13.5704 0.726595 12.2372 0.212145 10.8554 0.207031C10.0389 0.21263 9.23238 0.389971 8.48648 0.727919C7.74058 1.06587 7.0714 1.55711 6.521 2.17081C6.4768 2.15749 6.43097 2.1425 6.38023 2.12917L6.25746 2.09752C6.17726 2.0792 6.09378 2.06421 5.95465 2.04256L5.88754 2.03257C5.76306 2.01857 5.63793 2.01134 5.5127 2.01091C4.67209 2.0164 3.86353 2.33981 3.24425 2.91826C2.62497 3.49671 2.23924 4.28885 2.16206 5.14064C1.53068 5.58123 1.01238 6.16951 0.650665 6.85611C0.288947 7.54271 0.0943657 8.30758 0.083252 9.08653C0.0845518 10.3001 0.558871 11.4635 1.40214 12.3216C2.24541 13.1797 3.38876 13.6624 4.58133 13.6637H8.74057L7.93688 11.62H4.58133C3.91854 11.6191 3.28312 11.3509 2.81431 10.8741C2.34549 10.3974 2.08151 9.75098 2.08021 9.07654C2.09374 8.57097 2.24009 8.07832 2.50405 7.64978C2.76802 7.22125 3.13995 6.87247 3.58121 6.63972L4.1492 6.36489V5.42214C4.14963 5.05429 4.29342 4.70163 4.54903 4.44153C4.80465 4.18142 5.15121 4.0351 5.5127 4.03466C5.56742 4.03565 5.62206 4.03955 5.67638 4.04632L5.73203 4.05631C5.78605 4.06464 5.84007 4.07797 5.90554 4.09462C5.95695 4.11132 6.00725 4.13134 6.05613 4.15458L6.12979 4.18957C6.1628 4.20469 6.19455 4.22251 6.22473 4.24286C6.40805 4.38278 6.5521 4.61264 6.74525 4.98407C6.75998 5.02738 6.77798 5.07235 6.79435 5.11899L6.85164 5.28555C8.4574 9.32972 9.41332 11.8248 9.75542 12.7243C9.91911 13.0974 10.1286 13.6087 10.8636 13.6087C11.105 13.618 11.3431 13.5494 11.5439 13.4126C11.7447 13.2759 11.8978 13.0781 11.9815 12.8475C12.3089 12.0397 12.6363 11.2768 12.9211 10.5739C13.2288 9.84273 13.363 9.48628 13.4514 9.24976C13.4874 9.14983 13.5169 9.0832 13.5464 9.00159C13.9294 8.06883 14.1766 7.4642 14.3566 7.00282C14.81 7.00282 15.2749 7.03114 15.3911 7.03947C15.9058 7.15366 16.3668 7.44326 16.6978 7.86033C17.0288 8.2774 17.21 8.79696 17.2113 9.33305C17.2109 9.94253 16.9727 10.5269 16.5492 10.9579C16.1257 11.3889 15.5514 11.6312 14.9524 11.6316H13.8967L13.0913 13.6654H14.9524C16.0811 13.6654 17.1636 13.2091 17.9618 12.3969C18.7599 11.5848 19.2083 10.4833 19.2083 9.33471C19.2026 8.45888 18.9423 7.60433 18.4602 6.87874C17.9782 6.15314 17.2959 5.58895 16.4993 5.25724ZM13.5022 5.02904C13.3374 5.05337 13.1813 5.11994 13.0488 5.22251C12.9162 5.32507 12.8114 5.46025 12.7443 5.61535C12.7243 5.64834 12.7067 5.68287 12.6919 5.71862L10.929 10.454L10.9192 10.4823L9.08104 5.44545C8.98937 5.18395 8.90098 4.94576 8.81914 4.71757L8.76185 4.56433C8.64864 4.12561 8.45114 3.71405 8.18077 3.35341C8.90102 2.65024 9.85732 2.25243 10.8554 2.24077C12.4661 2.24077 13.9163 3.38673 14.391 4.97241C14.0939 4.97506 13.7972 4.99396 13.5022 5.02904Z" fill="white"/>
</svg>
