<svg width="101" height="93" viewBox="0 0 101 93" fill="none" xmlns="http://www.w3.org/2000/svg">
<path d="M2.71323 0C4.21263 0 5.42647 1.2138 5.42647 2.7132C5.42647 4.2126 4.21263 5.42642 2.71323 5.42642C1.21384 5.42642 0 4.2126 0 2.7132C0 1.2138 1.21384 0 2.71323 0Z" fill="#3E3D4A"/>
<path d="M11.3774 0C12.8768 0 14.0906 1.2138 14.0906 2.7132C14.0906 4.2126 12.8768 5.42642 11.3774 5.42642C9.87801 5.42642 8.66418 4.2126 8.66418 2.7132C8.66418 1.2138 9.87801 0 11.3774 0Z" fill="#3E3D4A"/>
<path d="M20.0414 0C21.5408 0 22.7546 1.2138 22.7546 2.7132C22.7546 4.2126 21.5408 5.42642 20.0414 5.42642C18.542 5.42642 17.3282 4.2126 17.3282 2.7132C17.3282 1.2138 18.542 0 20.0414 0Z" fill="#3E3D4A"/>
<path d="M28.7054 0C30.2048 0 31.4187 1.2138 31.4187 2.7132C31.4187 4.2126 30.2048 5.42642 28.7054 5.42642C27.206 5.42642 25.9922 4.2126 25.9922 2.7132C25.9922 1.2138 27.206 0 28.7054 0Z" fill="#3E3D4A"/>
<path d="M37.4147 0C38.9141 0 40.128 1.2138 40.128 2.7132C40.128 4.2126 38.9141 5.42642 37.4147 5.42642C35.9153 5.42642 34.7015 4.2126 34.7015 2.7132C34.7015 1.2138 35.9153 0 37.4147 0Z" fill="#3E3D4A"/>
<path d="M46.0787 0C47.5781 0 48.7919 1.2138 48.7919 2.7132C48.7919 4.2126 47.5781 5.42642 46.0787 5.42642C44.5793 5.42642 43.3655 4.2126 43.3655 2.7132C43.3655 1.2138 44.5793 0 46.0787 0Z" fill="#3E3D4A"/>
<path d="M54.7427 0C56.2421 0 57.4559 1.2138 57.4559 2.7132C57.4559 4.2126 56.2421 5.42642 54.7427 5.42642C53.2433 5.42642 52.0294 4.2126 52.0294 2.7132C52.0294 1.2138 53.2433 0 54.7427 0Z" fill="#3E3D4A"/>
<path d="M63.4066 0C64.906 0 66.1199 1.2138 66.1199 2.7132C66.1199 4.2126 64.906 5.42642 63.4066 5.42642C61.9072 5.42642 60.6934 4.2126 60.6934 2.7132C60.6934 1.2138 61.9072 0 63.4066 0Z" fill="#3E3D4A"/>
<path d="M72.1159 0C73.6153 0 74.8291 1.2138 74.8291 2.7132C74.8291 4.2126 73.6153 5.42642 72.1159 5.42642C70.6165 5.42642 69.4029 4.2126 69.4029 2.7132C69.4029 1.2138 70.6165 0 72.1159 0Z" fill="#3E3D4A"/>
<path d="M11.3774 8.66403C12.8768 8.66403 14.0906 9.87786 14.0906 11.3773C14.0906 12.8767 12.8768 14.0905 11.3774 14.0905C9.87801 14.0905 8.66418 12.8767 8.66418 11.3773C8.66418 9.87786 9.87801 8.66403 11.3774 8.66403Z" fill="#3E3D4A"/>
<path d="M20.0414 8.66403C21.5408 8.66403 22.7546 9.87786 22.7546 11.3773C22.7546 12.8767 21.5408 14.0905 20.0414 14.0905C18.542 14.0905 17.3282 12.8767 17.3282 11.3773C17.3282 9.87786 18.542 8.66403 20.0414 8.66403Z" fill="#3E3D4A"/>
<path d="M28.7054 8.66403C30.2048 8.66403 31.4187 9.87786 31.4187 11.3773C31.4187 12.8767 30.2048 14.0905 28.7054 14.0905C27.206 14.0905 25.9922 12.8767 25.9922 11.3773C25.9922 9.87786 27.206 8.66403 28.7054 8.66403Z" fill="#3E3D4A"/>
<path d="M37.4147 8.66403C38.9141 8.66403 40.128 9.87786 40.128 11.3773C40.128 12.8767 38.9141 14.0905 37.4147 14.0905C35.9153 14.0905 34.7015 12.8767 34.7015 11.3773C34.7015 9.87786 35.9153 8.66403 37.4147 8.66403Z" fill="#3E3D4A"/>
<path d="M46.0787 8.66403C47.5781 8.66403 48.7919 9.87786 48.7919 11.3773C48.7919 12.8767 47.5781 14.0905 46.0787 14.0905C44.5793 14.0905 43.3655 12.8767 43.3655 11.3773C43.3655 9.87786 44.5793 8.66403 46.0787 8.66403Z" fill="#3E3D4A"/>
<path d="M54.7427 8.66403C56.2421 8.66403 57.4559 9.87786 57.4559 11.3773C57.4559 12.8767 56.2421 14.0905 54.7427 14.0905C53.2433 14.0905 52.0294 12.8767 52.0294 11.3773C52.0294 9.87786 53.2433 8.66403 54.7427 8.66403Z" fill="#3E3D4A"/>
<path d="M63.4066 8.66403C64.906 8.66403 66.1199 9.87786 66.1199 11.3773C66.1199 12.8767 64.906 14.0905 63.4066 14.0905C61.9072 14.0905 60.6934 12.8767 60.6934 11.3773C60.6934 9.87786 61.9072 8.66403 63.4066 8.66403Z" fill="#3E3D4A"/>
<path d="M72.1159 8.66403C73.6153 8.66403 74.8291 9.87786 74.8291 11.3773C74.8291 12.8767 73.6153 14.0905 72.1159 14.0905C70.6165 14.0905 69.4029 12.8767 69.4029 11.3773C69.4029 9.87786 70.6165 8.66403 72.1159 8.66403Z" fill="#3E3D4A"/>
<path d="M11.3774 17.3638C12.8768 17.3638 14.0906 18.5776 14.0906 20.077C14.0906 21.5764 12.8768 22.7902 11.3774 22.7902C9.87801 22.7902 8.66418 21.5764 8.66418 20.077C8.66418 18.5776 9.87801 17.3638 11.3774 17.3638Z" fill="#3E3D4A"/>
<path d="M20.0414 17.3638C21.5408 17.3638 22.7546 18.5776 22.7546 20.077C22.7546 21.5764 21.5408 22.7902 20.0414 22.7902C18.542 22.7902 17.3282 21.5764 17.3282 20.077C17.3282 18.5776 18.542 17.3638 20.0414 17.3638Z" fill="#3E3D4A"/>
<path d="M28.7054 17.3638C30.2048 17.3638 31.4187 18.5776 31.4187 20.077C31.4187 21.5764 30.2048 22.7902 28.7054 22.7902C27.206 22.7902 25.9922 21.5764 25.9922 20.077C25.9922 18.5776 27.206 17.3638 28.7054 17.3638Z" fill="#3E3D4A"/>
<path d="M37.4147 17.3638C38.9141 17.3638 40.128 18.5776 40.128 20.077C40.128 21.5764 38.9141 22.7902 37.4147 22.7902C35.9153 22.7902 34.7015 21.5764 34.7015 20.077C34.7015 18.5776 35.9153 17.3638 37.4147 17.3638Z" fill="#3E3D4A"/>
<path d="M46.0787 17.3638C47.5781 17.3638 48.7919 18.5776 48.7919 20.077C48.7919 21.5764 47.5781 22.7902 46.0787 22.7902C44.5793 22.7902 43.3655 21.5764 43.3655 20.077C43.3655 18.5776 44.5793 17.3638 46.0787 17.3638Z" fill="#3E3D4A"/>
<path d="M54.7427 17.3638C56.2421 17.3638 57.4559 18.5776 57.4559 20.077C57.4559 21.5764 56.2421 22.7902 54.7427 22.7902C53.2433 22.7902 52.0294 21.5764 52.0294 20.077C52.0294 18.5776 53.2433 17.3638 54.7427 17.3638Z" fill="#3E3D4A"/>
<path d="M63.4066 17.3638C64.906 17.3638 66.1199 18.5776 66.1199 20.077C66.1199 21.5764 64.906 22.7902 63.4066 22.7902C61.9072 22.7902 60.6934 21.5764 60.6934 20.077C60.6934 18.5776 61.9072 17.3638 63.4066 17.3638Z" fill="#3E3D4A"/>
<path d="M72.1159 17.3638C73.6153 17.3638 74.8291 18.5776 74.8291 20.077C74.8291 21.5764 73.6153 22.7902 72.1159 22.7902C70.6165 22.7902 69.4029 21.5764 69.4029 20.077C69.4029 18.5776 70.6165 17.3638 72.1159 17.3638Z" fill="#3E3D4A"/>
<path d="M11.3774 26.0635C12.8768 26.0635 14.0906 27.2773 14.0906 28.7767C14.0906 30.2761 12.8768 31.4899 11.3774 31.4899C9.87801 31.4899 8.66418 30.2761 8.66418 28.7767C8.66418 27.2773 9.87801 26.0635 11.3774 26.0635Z" fill="#3E3D4A"/>
<path d="M20.0414 26.0635C21.5408 26.0635 22.7546 27.2773 22.7546 28.7767C22.7546 30.2761 21.5408 31.4899 20.0414 31.4899C18.542 31.4899 17.3282 30.2761 17.3282 28.7767C17.3282 27.2773 18.542 26.0635 20.0414 26.0635Z" fill="#3E3D4A"/>
<path d="M28.7054 26.0635C30.2048 26.0635 31.4187 27.2773 31.4187 28.7767C31.4187 30.2761 30.2048 31.4899 28.7054 31.4899C27.206 31.4899 25.9922 30.2761 25.9922 28.7767C25.9922 27.2773 27.206 26.0635 28.7054 26.0635Z" fill="#3E3D4A"/>
<path d="M37.4147 26.0635C38.9141 26.0635 40.128 27.2773 40.128 28.7767C40.128 30.2761 38.9141 31.4899 37.4147 31.4899C35.9153 31.4899 34.7015 30.2761 34.7015 28.7767C34.7015 27.2773 35.9153 26.0635 37.4147 26.0635Z" fill="#3E3D4A"/>
<path d="M46.0787 26.0635C47.5781 26.0635 48.7919 27.2773 48.7919 28.7767C48.7919 30.2761 47.5781 31.4899 46.0787 31.4899C44.5793 31.4899 43.3655 30.2761 43.3655 28.7767C43.3655 27.2773 44.5793 26.0635 46.0787 26.0635Z" fill="#3E3D4A"/>
<path d="M54.7427 26.0635C56.2421 26.0635 57.4559 27.2773 57.4559 28.7767C57.4559 30.2761 56.2421 31.4899 54.7427 31.4899C53.2433 31.4899 52.0294 30.2761 52.0294 28.7767C52.0294 27.2773 53.2433 26.0635 54.7427 26.0635Z" fill="#3E3D4A"/>
<path d="M72.1159 26.0635C73.6153 26.0635 74.8291 27.2773 74.8291 28.7767C74.8291 30.2761 73.6153 31.4899 72.1159 31.4899C70.6165 31.4899 69.4029 30.2761 69.4029 28.7767C69.4029 27.2773 70.6165 26.0635 72.1159 26.0635Z" fill="#3E3D4A"/>
<path d="M11.3774 34.7371C12.8768 34.7371 14.0906 35.9509 14.0906 37.4503C14.0906 38.9497 12.8768 40.1635 11.3774 40.1635C9.87801 40.1635 8.66418 38.9497 8.66418 37.4503C8.66418 35.9509 9.87801 34.7371 11.3774 34.7371Z" fill="#3E3D4A"/>
<path d="M20.0414 34.7371C21.5408 34.7371 22.7546 35.9509 22.7546 37.4503C22.7546 38.9497 21.5408 40.1635 20.0414 40.1635C18.542 40.1635 17.3282 38.9497 17.3282 37.4503C17.3282 35.9509 18.542 34.7371 20.0414 34.7371Z" fill="#3E3D4A"/>
<path d="M28.7054 34.7371C30.2048 34.7371 31.4187 35.9509 31.4187 37.4503C31.4187 38.9497 30.2048 40.1635 28.7054 40.1635C27.206 40.1635 25.9922 38.9497 25.9922 37.4503C25.9922 35.9509 27.206 34.7371 28.7054 34.7371Z" fill="#3E3D4A"/>
<path d="M37.4147 34.7371C38.9141 34.7371 40.128 35.9509 40.128 37.4503C40.128 38.9497 38.9141 40.1635 37.4147 40.1635C35.9153 40.1635 34.7015 38.9497 34.7015 37.4503C34.7015 35.9509 35.9153 34.7371 37.4147 34.7371Z" fill="#3E3D4A"/>
<path d="M46.0787 34.7371C47.5781 34.7371 48.7919 35.9509 48.7919 37.4503C48.7919 38.9497 47.5781 40.1635 46.0787 40.1635C44.5793 40.1635 43.3655 38.9497 43.3655 37.4503C43.3655 35.9509 44.5793 34.7371 46.0787 34.7371Z" fill="#3E3D4A"/>
<path d="M54.7427 34.7371C56.2421 34.7371 57.4559 35.9509 57.4559 37.4503C57.4559 38.9497 56.2421 40.1635 54.7427 40.1635C53.2433 40.1635 52.0294 38.9497 52.0294 37.4503C52.0294 35.9509 53.2433 34.7371 54.7427 34.7371Z" fill="#3E3D4A"/>
<path d="M20.0414 43.4368C21.5408 43.4368 22.7546 44.6506 22.7546 46.15C22.7546 47.6494 21.5408 48.8632 20.0414 48.8632C18.542 48.8632 17.3282 47.6494 17.3282 46.15C17.3282 44.6506 18.542 43.4368 20.0414 43.4368Z" fill="#3E3D4A"/>
<path d="M28.7054 43.4368C30.2048 43.4368 31.4187 44.6506 31.4187 46.15C31.4187 47.6494 30.2048 48.8632 28.7054 48.8632C27.206 48.8632 25.9922 47.6494 25.9922 46.15C25.9922 44.6506 27.206 43.4368 28.7054 43.4368Z" fill="#3E3D4A"/>
<path d="M37.4147 43.4368C38.9141 43.4368 40.128 44.6506 40.128 46.15C40.128 47.6494 38.9141 48.8632 37.4147 48.8632C35.9153 48.8632 34.7015 47.6494 34.7015 46.15C34.7015 44.6506 35.9153 43.4368 37.4147 43.4368Z" fill="#3E3D4A"/>
<path d="M46.0787 43.4368C47.5781 43.4368 48.7919 44.6506 48.7919 46.15C48.7919 47.6494 47.5781 48.8632 46.0787 48.8632C44.5793 48.8632 43.3655 47.6494 43.3655 46.15C43.3655 44.6506 44.5793 43.4368 46.0787 43.4368Z" fill="#3E3D4A"/>
<path d="M54.7427 43.4368C56.2421 43.4368 57.4559 44.6506 57.4559 46.15C57.4559 47.6494 56.2421 48.8632 54.7427 48.8632C53.2433 48.8632 52.0294 47.6494 52.0294 46.15C52.0294 44.6506 53.2433 43.4368 54.7427 43.4368Z" fill="#3E3D4A"/>
<path d="M63.4066 43.4368C64.906 43.4368 66.1199 44.6506 66.1199 46.15C66.1199 47.6494 64.906 48.8632 63.4066 48.8632C61.9072 48.8632 60.6934 47.6494 60.6934 46.15C60.6934 44.6506 61.9072 43.4368 63.4066 43.4368Z" fill="#3E3D4A"/>
<path d="M20.0414 52.1366C21.5408 52.1366 22.7546 53.3504 22.7546 54.8498C22.7546 56.3492 21.5408 57.5629 20.0414 57.5629C18.542 57.5629 17.3282 56.3492 17.3282 54.8498C17.3282 53.3504 18.542 52.1366 20.0414 52.1366Z" fill="#3E3D4A"/>
<path d="M28.7054 52.1366C30.2048 52.1366 31.4187 53.3504 31.4187 54.8498C31.4187 56.3492 30.2048 57.5629 28.7054 57.5629C27.206 57.5629 25.9922 56.3492 25.9922 54.8498C25.9922 53.3504 27.206 52.1366 28.7054 52.1366Z" fill="#3E3D4A"/>
<path d="M37.4147 52.1366C38.9141 52.1366 40.128 53.3504 40.128 54.8498C40.128 56.3492 38.9141 57.5629 37.4147 57.5629C35.9153 57.5629 34.7015 56.3492 34.7015 54.8498C34.7015 53.3504 35.9153 52.1366 37.4147 52.1366Z" fill="#3E3D4A"/>
<path d="M46.0787 52.1366C47.5781 52.1366 48.7919 53.3504 48.7919 54.8498C48.7919 56.3492 47.5781 57.5629 46.0787 57.5629C44.5793 57.5629 43.3655 56.3492 43.3655 54.8498C43.3655 53.3504 44.5793 52.1366 46.0787 52.1366Z" fill="#3E3D4A"/>
<path d="M54.7427 52.1366C56.2421 52.1366 57.4559 53.3504 57.4559 54.8498C57.4559 56.3492 56.2421 57.5629 54.7427 57.5629C53.2433 57.5629 52.0294 56.3492 52.0294 54.8498C52.0294 53.3504 53.2433 52.1366 54.7427 52.1366Z" fill="#3E3D4A"/>
<path d="M63.4066 52.1366C64.906 52.1366 66.1199 53.3504 66.1199 54.8498C66.1199 56.3492 64.906 57.5629 63.4066 57.5629C61.9072 57.5629 60.6934 56.3492 60.6934 54.8498C60.6934 53.3504 61.9072 52.1366 63.4066 52.1366Z" fill="#3E3D4A"/>
<path d="M72.1159 52.1366C73.6153 52.1366 74.8291 53.3504 74.8291 54.8498C74.8291 56.3492 73.6153 57.5629 72.1159 57.5629C70.6165 57.5629 69.4029 56.3492 69.4029 54.8498C69.4029 53.3504 70.6165 52.1366 72.1159 52.1366Z" fill="#3E3D4A"/>
<path d="M80.7801 52.1366C82.2795 52.1366 83.4931 53.3504 83.4931 54.8498C83.4931 56.3492 82.2795 57.5629 80.7801 57.5629C79.2807 57.5629 78.0668 56.3492 78.0668 54.8498C78.0668 53.3504 79.2807 52.1366 80.7801 52.1366Z" fill="#3E3D4A"/>
<path d="M89.444 52.1366C90.9434 52.1366 92.1571 53.3504 92.1571 54.8498C92.1571 56.3492 90.9434 57.5629 89.444 57.5629C87.9446 57.5629 86.7308 56.3492 86.7308 54.8498C86.7308 53.3504 87.9446 52.1366 89.444 52.1366Z" fill="#3E3D4A"/>
<path d="M98.1082 52.1366C99.6076 52.1366 100.821 53.3504 100.821 54.8498C100.821 56.3492 99.6076 57.5629 98.1082 57.5629C96.6088 57.5629 95.395 56.3492 95.395 54.8498C95.395 53.3504 96.6088 52.1366 98.1082 52.1366Z" fill="#3E3D4A"/>
<path d="M28.7054 60.8006C30.2048 60.8006 31.4187 62.0144 31.4187 63.5138C31.4187 65.0132 30.2048 66.227 28.7054 66.227C27.206 66.227 25.9922 65.0132 25.9922 63.5138C25.9922 62.0144 27.206 60.8006 28.7054 60.8006Z" fill="#3E3D4A"/>
<path d="M37.4147 60.8006C38.9141 60.8006 40.128 62.0144 40.128 63.5138C40.128 65.0132 38.9141 66.227 37.4147 66.227C35.9153 66.227 34.7015 65.0132 34.7015 63.5138C34.7015 62.0144 35.9153 60.8006 37.4147 60.8006Z" fill="#3E3D4A"/>
<path d="M46.0787 60.8006C47.5781 60.8006 48.7919 62.0144 48.7919 63.5138C48.7919 65.0132 47.5781 66.227 46.0787 66.227C44.5793 66.227 43.3655 65.0132 43.3655 63.5138C43.3655 62.0144 44.5793 60.8006 46.0787 60.8006Z" fill="#3E3D4A"/>
<path d="M54.7427 60.8006C56.2421 60.8006 57.4559 62.0144 57.4559 63.5138C57.4559 65.0132 56.2421 66.227 54.7427 66.227C53.2433 66.227 52.0294 65.0132 52.0294 63.5138C52.0294 62.0144 53.2433 60.8006 54.7427 60.8006Z" fill="#3E3D4A"/>
<path d="M63.4066 60.8006C64.906 60.8006 66.1199 62.0144 66.1199 63.5138C66.1199 65.0132 64.906 66.227 63.4066 66.227C61.9072 66.227 60.6934 65.0132 60.6934 63.5138C60.6934 62.0144 61.9072 60.8006 63.4066 60.8006Z" fill="#3E3D4A"/>
<path d="M72.1159 60.8006C73.6153 60.8006 74.8291 62.0144 74.8291 63.5138C74.8291 65.0132 73.6153 66.227 72.1159 66.227C70.6165 66.227 69.4029 65.0132 69.4029 63.5138C69.4029 62.0144 70.6165 60.8006 72.1159 60.8006Z" fill="#3E3D4A"/>
<path d="M80.7801 60.8006C82.2795 60.8006 83.4931 62.0144 83.4931 63.5138C83.4931 65.0132 82.2795 66.227 80.7801 66.227C79.2807 66.227 78.0668 65.0132 78.0668 63.5138C78.0668 62.0144 79.2807 60.8006 80.7801 60.8006Z" fill="#3E3D4A"/>
<path d="M89.444 60.8006C90.9434 60.8006 92.1571 62.0144 92.1571 63.5138C92.1571 65.0132 90.9434 66.227 89.444 66.227C87.9446 66.227 86.7308 65.0132 86.7308 63.5138C86.7308 62.0144 87.9446 60.8006 89.444 60.8006Z" fill="#3E3D4A"/>
<path d="M28.7054 69.5098C30.2048 69.5098 31.4187 70.7236 31.4187 72.223C31.4187 73.7224 30.2048 74.9362 28.7054 74.9362C27.206 74.9362 25.9922 73.7224 25.9922 72.223C25.9922 70.7236 27.206 69.5098 28.7054 69.5098Z" fill="#3E3D4A"/>
<path d="M37.4147 69.5098C38.9141 69.5098 40.128 70.7236 40.128 72.223C40.128 73.7224 38.9141 74.9362 37.4147 74.9362C35.9153 74.9362 34.7015 73.7224 34.7015 72.223C34.7015 70.7236 35.9153 69.5098 37.4147 69.5098Z" fill="#3E3D4A"/>
<path d="M46.0787 69.5098C47.5781 69.5098 48.7919 70.7236 48.7919 72.223C48.7919 73.7224 47.5781 74.9362 46.0787 74.9362C44.5793 74.9362 43.3655 73.7224 43.3655 72.223C43.3655 70.7236 44.5793 69.5098 46.0787 69.5098Z" fill="#3E3D4A"/>
<path d="M54.7427 69.5098C56.2421 69.5098 57.4559 70.7236 57.4559 72.223C57.4559 73.7224 56.2421 74.9362 54.7427 74.9362C53.2433 74.9362 52.0294 73.7224 52.0294 72.223C52.0294 70.7236 53.2433 69.5098 54.7427 69.5098Z" fill="#3E3D4A"/>
<path d="M63.4066 69.5098C64.906 69.5098 66.1199 70.7236 66.1199 72.223C66.1199 73.7224 64.906 74.9362 63.4066 74.9362C61.9072 74.9362 60.6934 73.7224 60.6934 72.223C60.6934 70.7236 61.9072 69.5098 63.4066 69.5098Z" fill="#3E3D4A"/>
<path d="M72.1159 69.5098C73.6153 69.5098 74.8291 70.7236 74.8291 72.223C74.8291 73.7224 73.6153 74.9362 72.1159 74.9362C70.6165 74.9362 69.4029 73.7224 69.4029 72.223C69.4029 70.7236 70.6165 69.5098 72.1159 69.5098Z" fill="#3E3D4A"/>
<path d="M80.7801 69.5098C82.2795 69.5098 83.4931 70.7236 83.4931 72.223C83.4931 73.7224 82.2795 74.9362 80.7801 74.9362C79.2807 74.9362 78.0668 73.7224 78.0668 72.223C78.0668 70.7236 79.2807 69.5098 80.7801 69.5098Z" fill="#3E3D4A"/>
<path d="M89.444 69.5098C90.9434 69.5098 92.1571 70.7236 92.1571 72.223C92.1571 73.7224 90.9434 74.9362 89.444 74.9362C87.9446 74.9362 86.7308 73.7224 86.7308 72.223C86.7308 70.7236 87.9446 69.5098 89.444 69.5098Z" fill="#3E3D4A"/>
<path d="M37.4147 78.2096C38.9141 78.2096 40.128 79.4233 40.128 80.9227C40.128 82.4221 38.9141 83.636 37.4147 83.636C35.9153 83.636 34.7015 82.4221 34.7015 80.9227C34.7015 79.4233 35.9153 78.2096 37.4147 78.2096Z" fill="#3E3D4A"/>
<path d="M46.0787 78.2096C47.5781 78.2096 48.7919 79.4233 48.7919 80.9227C48.7919 82.4221 47.5781 83.636 46.0787 83.636C44.5793 83.636 43.3655 82.4221 43.3655 80.9227C43.3655 79.4233 44.5793 78.2096 46.0787 78.2096Z" fill="#3E3D4A"/>
<path d="M54.7427 78.2096C56.2421 78.2096 57.4559 79.4233 57.4559 80.9227C57.4559 82.4221 56.2421 83.636 54.7427 83.636C53.2433 83.636 52.0294 82.4221 52.0294 80.9227C52.0294 79.4233 53.2433 78.2096 54.7427 78.2096Z" fill="#3E3D4A"/>
<path d="M63.4066 78.2096C64.906 78.2096 66.1199 79.4233 66.1199 80.9227C66.1199 82.4221 64.906 83.636 63.4066 83.636C61.9072 83.636 60.6934 82.4221 60.6934 80.9227C60.6934 79.4233 61.9072 78.2096 63.4066 78.2096Z" fill="#3E3D4A"/>
<path d="M72.1159 78.2096C73.6153 78.2096 74.8291 79.4233 74.8291 80.9227C74.8291 82.4221 73.6153 83.636 72.1159 83.636C70.6165 83.636 69.4029 82.4221 69.4029 80.9227C69.4029 79.4233 70.6165 78.2096 72.1159 78.2096Z" fill="#3E3D4A"/>
<path d="M46.0787 86.8736C47.5781 86.8736 48.7919 88.0874 48.7919 89.5868C48.7919 91.0862 47.5781 92.3 46.0787 92.3C44.5793 92.3 43.3655 91.0862 43.3655 89.5868C43.3655 88.0874 44.5793 86.8736 46.0787 86.8736Z" fill="#3E3D4A"/>
<path d="M54.7427 86.8736C56.2421 86.8736 57.4559 88.0874 57.4559 89.5868C57.4559 91.0862 56.2421 92.3 54.7427 92.3C53.2433 92.3 52.0294 91.0862 52.0294 89.5868C52.0294 88.0874 53.2433 86.8736 54.7427 86.8736Z" fill="#3E3D4A"/>
</svg>
