<svg width="180" height="285" viewBox="0 0 180 285" fill="none" xmlns="http://www.w3.org/2000/svg">
<path d="M37.989 0.761719C39.4884 0.761719 40.7022 1.9755 40.7022 3.4749C40.7022 4.9743 39.4884 6.18808 37.989 6.18808C36.4896 6.18808 35.2758 4.9743 35.2758 3.4749C35.2758 1.9755 36.4896 0.761719 37.989 0.761719Z" fill="#3E3D4A"/>
<path d="M29.325 9.47089C30.8244 9.47089 32.0382 10.6847 32.0382 12.1841C32.0382 13.6835 30.8244 14.8973 29.325 14.8973C27.8256 14.8973 26.6118 13.6835 26.6118 12.1841C26.6118 10.6847 27.8256 9.47089 29.325 9.47089Z" fill="#3E3D4A"/>
<path d="M46.6531 9.47089C48.1525 9.47089 49.3663 10.6847 49.3663 12.1841C49.3663 13.6835 48.1525 14.8973 46.6531 14.8973C45.1537 14.8973 43.9399 13.6835 43.9399 12.1841C43.9399 10.6847 45.1537 9.47089 46.6531 9.47089Z" fill="#3E3D4A"/>
<path d="M55.3623 9.47089C56.8617 9.47089 58.0755 10.6847 58.0755 12.1841C58.0755 13.6835 56.8617 14.8973 55.3623 14.8973C53.8629 14.8973 52.6491 13.6835 52.6491 12.1841C52.6491 10.6847 53.8629 9.47089 55.3623 9.47089Z" fill="#3E3D4A"/>
<path d="M64.0263 9.47089C65.5257 9.47089 66.7395 10.6847 66.7395 12.1841C66.7395 13.6835 65.5257 14.8973 64.0263 14.8973C62.5269 14.8973 61.3131 13.6835 61.3131 12.1841C61.3131 10.6847 62.5269 9.47089 64.0263 9.47089Z" fill="#3E3D4A"/>
<path d="M72.6904 9.47089C74.1898 9.47089 75.4036 10.6847 75.4036 12.1841C75.4036 13.6835 74.1898 14.8973 72.6904 14.8973C71.191 14.8973 69.9772 13.6835 69.9772 12.1841C69.9772 10.6847 71.191 9.47089 72.6904 9.47089Z" fill="#3E3D4A"/>
<path d="M20.6609 18.135C22.1603 18.135 23.3741 19.3488 23.3741 20.8482C23.3741 22.3476 22.1603 23.5614 20.6609 23.5614C19.1615 23.5614 17.9478 22.3476 17.9478 20.8482C17.9478 19.3488 19.1615 18.135 20.6609 18.135Z" fill="#3E3D4A"/>
<path d="M29.325 18.135C30.8244 18.135 32.0382 19.3488 32.0382 20.8482C32.0382 22.3476 30.8244 23.5614 29.325 23.5614C27.8256 23.5614 26.6118 22.3476 26.6118 20.8482C26.6118 19.3488 27.8256 18.135 29.325 18.135Z" fill="#3E3D4A"/>
<path d="M37.989 18.135C39.4884 18.135 40.7022 19.3488 40.7022 20.8482C40.7022 22.3476 39.4884 23.5614 37.989 23.5614C36.4896 23.5614 35.2758 22.3476 35.2758 20.8482C35.2758 19.3488 36.4896 18.135 37.989 18.135Z" fill="#3E3D4A"/>
<path d="M46.6531 18.135C48.1525 18.135 49.3663 19.3488 49.3663 20.8482C49.3663 22.3476 48.1525 23.5614 46.6531 23.5614C45.1537 23.5614 43.9399 22.3476 43.9399 20.8482C43.9399 19.3488 45.1537 18.135 46.6531 18.135Z" fill="#3E3D4A"/>
<path d="M55.3623 18.135C56.8617 18.135 58.0755 19.3488 58.0755 20.8482C58.0755 22.3476 56.8617 23.5614 55.3623 23.5614C53.8629 23.5614 52.6491 22.3476 52.6491 20.8482C52.6491 19.3488 53.8629 18.135 55.3623 18.135Z" fill="#3E3D4A"/>
<path d="M64.0263 18.135C65.5257 18.135 66.7395 19.3488 66.7395 20.8482C66.7395 22.3476 65.5257 23.5614 64.0263 23.5614C62.5269 23.5614 61.3131 22.3476 61.3131 20.8482C61.3131 19.3488 62.5269 18.135 64.0263 18.135Z" fill="#3E3D4A"/>
<path d="M72.6904 18.135C74.1898 18.135 75.4036 19.3488 75.4036 20.8482C75.4036 22.3476 74.1898 23.5614 72.6904 23.5614C71.191 23.5614 69.9772 22.3476 69.9772 20.8482C69.9772 19.3488 71.191 18.135 72.6904 18.135Z" fill="#3E3D4A"/>
<path d="M81.3544 18.135C82.8538 18.135 84.0676 19.3488 84.0676 20.8482C84.0676 22.3476 82.8538 23.5614 81.3544 23.5614C79.855 23.5614 78.6411 22.3476 78.6411 20.8482C78.6411 19.3488 79.855 18.135 81.3544 18.135Z" fill="#3E3D4A"/>
<path d="M20.6609 26.8347C22.1603 26.8347 23.3741 28.0485 23.3741 29.5479C23.3741 31.0473 22.1603 32.2611 20.6609 32.2611C19.1615 32.2611 17.9478 31.0473 17.9478 29.5479C17.9478 28.0485 19.1615 26.8347 20.6609 26.8347Z" fill="#3E3D4A"/>
<path d="M29.325 26.8347C30.8244 26.8347 32.0382 28.0485 32.0382 29.5479C32.0382 31.0473 30.8244 32.2611 29.325 32.2611C27.8256 32.2611 26.6118 31.0473 26.6118 29.5479C26.6118 28.0485 27.8256 26.8347 29.325 26.8347Z" fill="#3E3D4A"/>
<path d="M37.989 26.8347C39.4884 26.8347 40.7022 28.0485 40.7022 29.5479C40.7022 31.0473 39.4884 32.2611 37.989 32.2611C36.4896 32.2611 35.2758 31.0473 35.2758 29.5479C35.2758 28.0485 36.4896 26.8347 37.989 26.8347Z" fill="#3E3D4A"/>
<path d="M46.6531 26.8347C48.1525 26.8347 49.3663 28.0485 49.3663 29.5479C49.3663 31.0473 48.1525 32.2611 46.6531 32.2611C45.1537 32.2611 43.9399 31.0473 43.9399 29.5479C43.9399 28.0485 45.1537 26.8347 46.6531 26.8347Z" fill="#3E3D4A"/>
<path d="M55.3623 26.8347C56.8617 26.8347 58.0755 28.0485 58.0755 29.5479C58.0755 31.0473 56.8617 32.2611 55.3623 32.2611C53.8629 32.2611 52.6491 31.0473 52.6491 29.5479C52.6491 28.0485 53.8629 26.8347 55.3623 26.8347Z" fill="#3E3D4A"/>
<path d="M64.0263 26.8347C65.5257 26.8347 66.7395 28.0485 66.7395 29.5479C66.7395 31.0473 65.5257 32.2611 64.0263 32.2611C62.5269 32.2611 61.3131 31.0473 61.3131 29.5479C61.3131 28.0485 62.5269 26.8347 64.0263 26.8347Z" fill="#3E3D4A"/>
<path d="M72.6904 26.8347C74.1898 26.8347 75.4036 28.0485 75.4036 29.5479C75.4036 31.0473 74.1898 32.2611 72.6904 32.2611C71.191 32.2611 69.9772 31.0473 69.9772 29.5479C69.9772 28.0485 71.191 26.8347 72.6904 26.8347Z" fill="#3E3D4A"/>
<path d="M81.3544 26.8347C82.8538 26.8347 84.0676 28.0485 84.0676 29.5479C84.0676 31.0473 82.8538 32.2611 81.3544 32.2611C79.855 32.2611 78.6411 31.0473 78.6411 29.5479C78.6411 28.0485 79.855 26.8347 81.3544 26.8347Z" fill="#3E3D4A"/>
<path d="M90.0635 26.8347C91.563 26.8347 92.7768 28.0485 92.7768 29.5479C92.7768 31.0473 91.563 32.2611 90.0635 32.2611C88.5641 32.2611 87.3504 31.0473 87.3504 29.5479C87.3504 28.0485 88.5641 26.8347 90.0635 26.8347Z" fill="#3E3D4A"/>
<path d="M98.7277 26.8347C100.227 26.8347 101.441 28.0485 101.441 29.5479C101.441 31.0473 100.227 32.2611 98.7277 32.2611C97.2283 32.2611 96.0145 31.0473 96.0145 29.5479C96.0145 28.0485 97.2283 26.8347 98.7277 26.8347Z" fill="#3E3D4A"/>
<path d="M107.392 26.8347C108.891 26.8347 110.105 28.0485 110.105 29.5479C110.105 31.0473 108.891 32.2611 107.392 32.2611C105.892 32.2611 104.678 31.0473 104.678 29.5479C104.678 28.0485 105.892 26.8347 107.392 26.8347Z" fill="#3E3D4A"/>
<path d="M20.6609 35.5345C22.1603 35.5345 23.3741 36.7483 23.3741 38.2477C23.3741 39.7471 22.1603 40.9609 20.6609 40.9609C19.1615 40.9609 17.9478 39.7471 17.9478 38.2477C17.9478 36.7483 19.1615 35.5345 20.6609 35.5345Z" fill="#3E3D4A"/>
<path d="M29.325 35.5345C30.8244 35.5345 32.0382 36.7483 32.0382 38.2477C32.0382 39.7471 30.8244 40.9609 29.325 40.9609C27.8256 40.9609 26.6118 39.7471 26.6118 38.2477C26.6118 36.7483 27.8256 35.5345 29.325 35.5345Z" fill="#3E3D4A"/>
<path d="M37.989 35.5345C39.4884 35.5345 40.7022 36.7483 40.7022 38.2477C40.7022 39.7471 39.4884 40.9609 37.989 40.9609C36.4896 40.9609 35.2758 39.7471 35.2758 38.2477C35.2758 36.7483 36.4896 35.5345 37.989 35.5345Z" fill="#3E3D4A"/>
<path d="M46.6531 35.5345C48.1525 35.5345 49.3663 36.7483 49.3663 38.2477C49.3663 39.7471 48.1525 40.9609 46.6531 40.9609C45.1537 40.9609 43.9399 39.7471 43.9399 38.2477C43.9399 36.7483 45.1537 35.5345 46.6531 35.5345Z" fill="#3E3D4A"/>
<path d="M55.3623 35.5345C56.8617 35.5345 58.0755 36.7483 58.0755 38.2477C58.0755 39.7471 56.8617 40.9609 55.3623 40.9609C53.8629 40.9609 52.6491 39.7471 52.6491 38.2477C52.6491 36.7483 53.8629 35.5345 55.3623 35.5345Z" fill="#3E3D4A"/>
<path d="M64.0263 35.5345C65.5257 35.5345 66.7395 36.7483 66.7395 38.2477C66.7395 39.7471 65.5257 40.9609 64.0263 40.9609C62.5269 40.9609 61.3131 39.7471 61.3131 38.2477C61.3131 36.7483 62.5269 35.5345 64.0263 35.5345Z" fill="#3E3D4A"/>
<path d="M72.6904 35.5345C74.1898 35.5345 75.4036 36.7483 75.4036 38.2477C75.4036 39.7471 74.1898 40.9609 72.6904 40.9609C71.191 40.9609 69.9772 39.7471 69.9772 38.2477C69.9772 36.7483 71.191 35.5345 72.6904 35.5345Z" fill="#3E3D4A"/>
<path d="M81.3544 35.5345C82.8538 35.5345 84.0676 36.7483 84.0676 38.2477C84.0676 39.7471 82.8538 40.9609 81.3544 40.9609C79.855 40.9609 78.6411 39.7471 78.6411 38.2477C78.6411 36.7483 79.855 35.5345 81.3544 35.5345Z" fill="#3E3D4A"/>
<path d="M90.0635 35.5345C91.563 35.5345 92.7768 36.7483 92.7768 38.2477C92.7768 39.7471 91.563 40.9609 90.0635 40.9609C88.5641 40.9609 87.3504 39.7471 87.3504 38.2477C87.3504 36.7483 88.5641 35.5345 90.0635 35.5345Z" fill="#3E3D4A"/>
<path d="M98.7277 35.5345C100.227 35.5345 101.441 36.7483 101.441 38.2477C101.441 39.7471 100.227 40.9609 98.7277 40.9609C97.2283 40.9609 96.0145 39.7471 96.0145 38.2477C96.0145 36.7483 97.2283 35.5345 98.7277 35.5345Z" fill="#3E3D4A"/>
<path d="M107.392 35.5345C108.891 35.5345 110.105 36.7483 110.105 38.2477C110.105 39.7471 108.891 40.9609 107.392 40.9609C105.892 40.9609 104.678 39.7471 104.678 38.2477C104.678 36.7483 105.892 35.5345 107.392 35.5345Z" fill="#3E3D4A"/>
<path d="M116.056 35.5345C117.555 35.5345 118.769 36.7483 118.769 38.2477C118.769 39.7471 117.555 40.9609 116.056 40.9609C114.556 40.9609 113.343 39.7471 113.343 38.2477C113.343 36.7483 114.556 35.5345 116.056 35.5345Z" fill="#3E3D4A"/>
<path d="M11.9517 44.208C13.4511 44.208 14.6649 45.4218 14.6649 46.9212C14.6649 48.4206 13.4511 49.6344 11.9517 49.6344C10.4523 49.6344 9.23853 48.4206 9.23853 46.9212C9.23853 45.4218 10.4523 44.208 11.9517 44.208Z" fill="#3E3D4A"/>
<path d="M20.6609 44.208C22.1603 44.208 23.3741 45.4218 23.3741 46.9212C23.3741 48.4206 22.1603 49.6344 20.6609 49.6344C19.1615 49.6344 17.9478 48.4206 17.9478 46.9212C17.9478 45.4218 19.1615 44.208 20.6609 44.208Z" fill="#3E3D4A"/>
<path d="M29.325 44.208C30.8244 44.208 32.0382 45.4218 32.0382 46.9212C32.0382 48.4206 30.8244 49.6344 29.325 49.6344C27.8256 49.6344 26.6118 48.4206 26.6118 46.9212C26.6118 45.4218 27.8256 44.208 29.325 44.208Z" fill="#3E3D4A"/>
<path d="M37.989 44.208C39.4884 44.208 40.7022 45.4218 40.7022 46.9212C40.7022 48.4206 39.4884 49.6344 37.989 49.6344C36.4896 49.6344 35.2758 48.4206 35.2758 46.9212C35.2758 45.4218 36.4896 44.208 37.989 44.208Z" fill="#3E3D4A"/>
<path d="M46.6531 44.208C48.1525 44.208 49.3663 45.4218 49.3663 46.9212C49.3663 48.4206 48.1525 49.6344 46.6531 49.6344C45.1537 49.6344 43.9399 48.4206 43.9399 46.9212C43.9399 45.4218 45.1537 44.208 46.6531 44.208Z" fill="#3E3D4A"/>
<path d="M55.3623 44.208C56.8617 44.208 58.0755 45.4218 58.0755 46.9212C58.0755 48.4206 56.8617 49.6344 55.3623 49.6344C53.8629 49.6344 52.6491 48.4206 52.6491 46.9212C52.6491 45.4218 53.8629 44.208 55.3623 44.208Z" fill="#3E3D4A"/>
<path d="M64.0263 44.208C65.5257 44.208 66.7395 45.4218 66.7395 46.9212C66.7395 48.4206 65.5257 49.6344 64.0263 49.6344C62.5269 49.6344 61.3131 48.4206 61.3131 46.9212C61.3131 45.4218 62.5269 44.208 64.0263 44.208Z" fill="#3E3D4A"/>
<path d="M72.6904 44.208C74.1898 44.208 75.4036 45.4218 75.4036 46.9212C75.4036 48.4206 74.1898 49.6344 72.6904 49.6344C71.191 49.6344 69.9772 48.4206 69.9772 46.9212C69.9772 45.4218 71.191 44.208 72.6904 44.208Z" fill="#3E3D4A"/>
<path d="M81.3544 44.208C82.8538 44.208 84.0676 45.4218 84.0676 46.9212C84.0676 48.4206 82.8538 49.6344 81.3544 49.6344C79.855 49.6344 78.6411 48.4206 78.6411 46.9212C78.6411 45.4218 79.855 44.208 81.3544 44.208Z" fill="#3E3D4A"/>
<path d="M90.0635 44.208C91.563 44.208 92.7768 45.4218 92.7768 46.9212C92.7768 48.4206 91.563 49.6344 90.0635 49.6344C88.5641 49.6344 87.3504 48.4206 87.3504 46.9212C87.3504 45.4218 88.5641 44.208 90.0635 44.208Z" fill="#3E3D4A"/>
<path d="M98.7277 44.208C100.227 44.208 101.441 45.4218 101.441 46.9212C101.441 48.4206 100.227 49.6344 98.7277 49.6344C97.2283 49.6344 96.0145 48.4206 96.0145 46.9212C96.0145 45.4218 97.2283 44.208 98.7277 44.208Z" fill="#3E3D4A"/>
<path d="M107.392 44.208C108.891 44.208 110.105 45.4218 110.105 46.9212C110.105 48.4206 108.891 49.6344 107.392 49.6344C105.892 49.6344 104.678 48.4206 104.678 46.9212C104.678 45.4218 105.892 44.208 107.392 44.208Z" fill="#3E3D4A"/>
<path d="M116.056 44.208C117.555 44.208 118.769 45.4218 118.769 46.9212C118.769 48.4206 117.555 49.6344 116.056 49.6344C114.556 49.6344 113.343 48.4206 113.343 46.9212C113.343 45.4218 114.556 44.208 116.056 44.208Z" fill="#3E3D4A"/>
<path d="M3.28764 52.9077C4.78704 52.9077 6.00082 54.1215 6.00082 55.6209C6.00082 57.1203 4.78704 58.3341 3.28764 58.3341C1.78824 58.3341 0.574463 57.1203 0.574463 55.6209C0.574463 54.1215 1.78824 52.9077 3.28764 52.9077Z" fill="#3E3D4A"/>
<path d="M11.9517 52.9077C13.4511 52.9077 14.6649 54.1215 14.6649 55.6209C14.6649 57.1203 13.4511 58.3341 11.9517 58.3341C10.4523 58.3341 9.23853 57.1203 9.23853 55.6209C9.23853 54.1215 10.4523 52.9077 11.9517 52.9077Z" fill="#3E3D4A"/>
<path d="M20.6609 52.9077C22.1603 52.9077 23.3741 54.1215 23.3741 55.6209C23.3741 57.1203 22.1603 58.3341 20.6609 58.3341C19.1615 58.3341 17.9478 57.1203 17.9478 55.6209C17.9478 54.1215 19.1615 52.9077 20.6609 52.9077Z" fill="#3E3D4A"/>
<path d="M29.325 52.9077C30.8244 52.9077 32.0382 54.1215 32.0382 55.6209C32.0382 57.1203 30.8244 58.3341 29.325 58.3341C27.8256 58.3341 26.6118 57.1203 26.6118 55.6209C26.6118 54.1215 27.8256 52.9077 29.325 52.9077Z" fill="#3E3D4A"/>
<path d="M37.989 52.9077C39.4884 52.9077 40.7022 54.1215 40.7022 55.6209C40.7022 57.1203 39.4884 58.3341 37.989 58.3341C36.4896 58.3341 35.2758 57.1203 35.2758 55.6209C35.2758 54.1215 36.4896 52.9077 37.989 52.9077Z" fill="#3E3D4A"/>
<path d="M46.6531 52.9077C48.1525 52.9077 49.3663 54.1215 49.3663 55.6209C49.3663 57.1203 48.1525 58.3341 46.6531 58.3341C45.1537 58.3341 43.9399 57.1203 43.9399 55.6209C43.9399 54.1215 45.1537 52.9077 46.6531 52.9077Z" fill="#3E3D4A"/>
<path d="M55.3623 52.9077C56.8617 52.9077 58.0755 54.1215 58.0755 55.6209C58.0755 57.1203 56.8617 58.3341 55.3623 58.3341C53.8629 58.3341 52.6491 57.1203 52.6491 55.6209C52.6491 54.1215 53.8629 52.9077 55.3623 52.9077Z" fill="#3E3D4A"/>
<path d="M64.0263 52.9077C65.5257 52.9077 66.7395 54.1215 66.7395 55.6209C66.7395 57.1203 65.5257 58.3341 64.0263 58.3341C62.5269 58.3341 61.3131 57.1203 61.3131 55.6209C61.3131 54.1215 62.5269 52.9077 64.0263 52.9077Z" fill="#3E3D4A"/>
<path d="M72.6904 52.9077C74.1898 52.9077 75.4036 54.1215 75.4036 55.6209C75.4036 57.1203 74.1898 58.3341 72.6904 58.3341C71.191 58.3341 69.9772 57.1203 69.9772 55.6209C69.9772 54.1215 71.191 52.9077 72.6904 52.9077Z" fill="#3E3D4A"/>
<path d="M81.3544 52.9077C82.8538 52.9077 84.0676 54.1215 84.0676 55.6209C84.0676 57.1203 82.8538 58.3341 81.3544 58.3341C79.855 58.3341 78.6411 57.1203 78.6411 55.6209C78.6411 54.1215 79.855 52.9077 81.3544 52.9077Z" fill="#3E3D4A"/>
<path d="M90.0635 52.9077C91.563 52.9077 92.7768 54.1215 92.7768 55.6209C92.7768 57.1203 91.563 58.3341 90.0635 58.3341C88.5641 58.3341 87.3504 57.1203 87.3504 55.6209C87.3504 54.1215 88.5641 52.9077 90.0635 52.9077Z" fill="#3E3D4A"/>
<path d="M98.7277 52.9077C100.227 52.9077 101.441 54.1215 101.441 55.6209C101.441 57.1203 100.227 58.3341 98.7277 58.3341C97.2283 58.3341 96.0145 57.1203 96.0145 55.6209C96.0145 54.1215 97.2283 52.9077 98.7277 52.9077Z" fill="#3E3D4A"/>
<path d="M107.392 52.9077C108.891 52.9077 110.105 54.1215 110.105 55.6209C110.105 57.1203 108.891 58.3341 107.392 58.3341C105.892 58.3341 104.678 57.1203 104.678 55.6209C104.678 54.1215 105.892 52.9077 107.392 52.9077Z" fill="#3E3D4A"/>
<path d="M116.056 52.9077C117.555 52.9077 118.769 54.1215 118.769 55.6209C118.769 57.1203 117.555 58.3341 116.056 58.3341C114.556 58.3341 113.343 57.1203 113.343 55.6209C113.343 54.1215 114.556 52.9077 116.056 52.9077Z" fill="#3E3D4A"/>
<path d="M124.765 52.9077C126.264 52.9077 127.478 54.1215 127.478 55.6209C127.478 57.1203 126.264 58.3341 124.765 58.3341C123.266 58.3341 122.052 57.1203 122.052 55.6209C122.052 54.1215 123.266 52.9077 124.765 52.9077Z" fill="#3E3D4A"/>
<path d="M133.429 52.9077C134.929 52.9077 136.142 54.1215 136.142 55.6209C136.142 57.1203 134.929 58.3341 133.429 58.3341C131.93 58.3341 130.716 57.1203 130.716 55.6209C130.716 54.1215 131.93 52.9077 133.429 52.9077Z" fill="#3E3D4A"/>
<path d="M142.093 52.9077C143.592 52.9077 144.806 54.1215 144.806 55.6209C144.806 57.1203 143.592 58.3341 142.093 58.3341C140.594 58.3341 139.38 57.1203 139.38 55.6209C139.38 54.1215 140.594 52.9077 142.093 52.9077Z" fill="#3E3D4A"/>
<path d="M3.28764 61.6075C4.78704 61.6075 6.00082 62.8212 6.00082 64.3206C6.00082 65.82 4.78704 67.0339 3.28764 67.0339C1.78824 67.0339 0.574463 65.82 0.574463 64.3206C0.574463 62.8212 1.78824 61.6075 3.28764 61.6075Z" fill="#3E3D4A"/>
<path d="M11.9517 61.6075C13.4511 61.6075 14.6649 62.8212 14.6649 64.3206C14.6649 65.82 13.4511 67.0339 11.9517 67.0339C10.4523 67.0339 9.23853 65.82 9.23853 64.3206C9.23853 62.8212 10.4523 61.6075 11.9517 61.6075Z" fill="#3E3D4A"/>
<path d="M20.6609 61.6075C22.1603 61.6075 23.3741 62.8212 23.3741 64.3206C23.3741 65.82 22.1603 67.0339 20.6609 67.0339C19.1615 67.0339 17.9478 65.82 17.9478 64.3206C17.9478 62.8212 19.1615 61.6075 20.6609 61.6075Z" fill="#3E3D4A"/>
<path d="M29.325 61.6075C30.8244 61.6075 32.0382 62.8212 32.0382 64.3206C32.0382 65.82 30.8244 67.0339 29.325 67.0339C27.8256 67.0339 26.6118 65.82 26.6118 64.3206C26.6118 62.8212 27.8256 61.6075 29.325 61.6075Z" fill="#3E3D4A"/>
<path d="M37.989 61.6075C39.4884 61.6075 40.7022 62.8212 40.7022 64.3206C40.7022 65.82 39.4884 67.0339 37.989 67.0339C36.4896 67.0339 35.2758 65.82 35.2758 64.3206C35.2758 62.8212 36.4896 61.6075 37.989 61.6075Z" fill="#3E3D4A"/>
<path d="M46.6531 61.6075C48.1525 61.6075 49.3663 62.8212 49.3663 64.3206C49.3663 65.82 48.1525 67.0339 46.6531 67.0339C45.1537 67.0339 43.9399 65.82 43.9399 64.3206C43.9399 62.8212 45.1537 61.6075 46.6531 61.6075Z" fill="#3E3D4A"/>
<path d="M55.3623 61.6075C56.8617 61.6075 58.0755 62.8212 58.0755 64.3206C58.0755 65.82 56.8617 67.0339 55.3623 67.0339C53.8629 67.0339 52.6491 65.82 52.6491 64.3206C52.6491 62.8212 53.8629 61.6075 55.3623 61.6075Z" fill="#3E3D4A"/>
<path d="M64.0263 61.6075C65.5257 61.6075 66.7395 62.8212 66.7395 64.3206C66.7395 65.82 65.5257 67.0339 64.0263 67.0339C62.5269 67.0339 61.3131 65.82 61.3131 64.3206C61.3131 62.8212 62.5269 61.6075 64.0263 61.6075Z" fill="#3E3D4A"/>
<path d="M72.6904 61.6075C74.1898 61.6075 75.4036 62.8212 75.4036 64.3206C75.4036 65.82 74.1898 67.0339 72.6904 67.0339C71.191 67.0339 69.9772 65.82 69.9772 64.3206C69.9772 62.8212 71.191 61.6075 72.6904 61.6075Z" fill="#3E3D4A"/>
<path d="M81.3544 61.6075C82.8538 61.6075 84.0676 62.8212 84.0676 64.3206C84.0676 65.82 82.8538 67.0339 81.3544 67.0339C79.855 67.0339 78.6411 65.82 78.6411 64.3206C78.6411 62.8212 79.855 61.6075 81.3544 61.6075Z" fill="#3E3D4A"/>
<path d="M90.0635 61.6075C91.563 61.6075 92.7768 62.8212 92.7768 64.3206C92.7768 65.82 91.563 67.0339 90.0635 67.0339C88.5641 67.0339 87.3504 65.82 87.3504 64.3206C87.3504 62.8212 88.5641 61.6075 90.0635 61.6075Z" fill="#3E3D4A"/>
<path d="M98.7277 61.6075C100.227 61.6075 101.441 62.8212 101.441 64.3206C101.441 65.82 100.227 67.0339 98.7277 67.0339C97.2283 67.0339 96.0145 65.82 96.0145 64.3206C96.0145 62.8212 97.2283 61.6075 98.7277 61.6075Z" fill="#3E3D4A"/>
<path d="M107.392 61.6075C108.891 61.6075 110.105 62.8212 110.105 64.3206C110.105 65.82 108.891 67.0339 107.392 67.0339C105.892 67.0339 104.678 65.82 104.678 64.3206C104.678 62.8212 105.892 61.6075 107.392 61.6075Z" fill="#3E3D4A"/>
<path d="M116.056 61.6075C117.555 61.6075 118.769 62.8212 118.769 64.3206C118.769 65.82 117.555 67.0339 116.056 67.0339C114.556 67.0339 113.343 65.82 113.343 64.3206C113.343 62.8212 114.556 61.6075 116.056 61.6075Z" fill="#3E3D4A"/>
<path d="M124.765 61.6075C126.264 61.6075 127.478 62.8212 127.478 64.3206C127.478 65.82 126.264 67.0339 124.765 67.0339C123.266 67.0339 122.052 65.82 122.052 64.3206C122.052 62.8212 123.266 61.6075 124.765 61.6075Z" fill="#3E3D4A"/>
<path d="M133.429 61.6075C134.929 61.6075 136.142 62.8212 136.142 64.3206C136.142 65.82 134.929 67.0339 133.429 67.0339C131.93 67.0339 130.716 65.82 130.716 64.3206C130.716 62.8212 131.93 61.6075 133.429 61.6075Z" fill="#3E3D4A"/>
<path d="M142.093 61.6075C143.592 61.6075 144.806 62.8212 144.806 64.3206C144.806 65.82 143.592 67.0339 142.093 67.0339C140.594 67.0339 139.38 65.82 139.38 64.3206C139.38 62.8212 140.594 61.6075 142.093 61.6075Z" fill="#3E3D4A"/>
<path d="M150.757 61.6075C152.257 61.6075 153.47 62.8212 153.47 64.3206C153.47 65.82 152.257 67.0339 150.757 67.0339C149.258 67.0339 148.044 65.82 148.044 64.3206C148.044 62.8212 149.258 61.6075 150.757 61.6075Z" fill="#3E3D4A"/>
<path d="M159.466 61.6075C160.966 61.6075 162.18 62.8212 162.18 64.3206C162.18 65.82 160.966 67.0339 159.466 67.0339C157.967 67.0339 156.753 65.82 156.753 64.3206C156.753 62.8212 157.967 61.6075 159.466 61.6075Z" fill="#3E3D4A"/>
<path d="M3.28764 70.2715C4.78704 70.2715 6.00082 71.4853 6.00082 72.9847C6.00082 74.4841 4.78704 75.6978 3.28764 75.6978C1.78824 75.6978 0.574463 74.4841 0.574463 72.9847C0.574463 71.4853 1.78824 70.2715 3.28764 70.2715Z" fill="#3E3D4A"/>
<path d="M11.9517 70.2715C13.4511 70.2715 14.6649 71.4853 14.6649 72.9847C14.6649 74.4841 13.4511 75.6978 11.9517 75.6978C10.4523 75.6978 9.23853 74.4841 9.23853 72.9847C9.23853 71.4853 10.4523 70.2715 11.9517 70.2715Z" fill="#3E3D4A"/>
<path d="M20.6609 70.2715C22.1603 70.2715 23.3741 71.4853 23.3741 72.9847C23.3741 74.4841 22.1603 75.6978 20.6609 75.6978C19.1615 75.6978 17.9478 74.4841 17.9478 72.9847C17.9478 71.4853 19.1615 70.2715 20.6609 70.2715Z" fill="#3E3D4A"/>
<path d="M29.325 70.2715C30.8244 70.2715 32.0382 71.4853 32.0382 72.9847C32.0382 74.4841 30.8244 75.6978 29.325 75.6978C27.8256 75.6978 26.6118 74.4841 26.6118 72.9847C26.6118 71.4853 27.8256 70.2715 29.325 70.2715Z" fill="#3E3D4A"/>
<path d="M37.989 70.2715C39.4884 70.2715 40.7022 71.4853 40.7022 72.9847C40.7022 74.4841 39.4884 75.6978 37.989 75.6978C36.4896 75.6978 35.2758 74.4841 35.2758 72.9847C35.2758 71.4853 36.4896 70.2715 37.989 70.2715Z" fill="#3E3D4A"/>
<path d="M46.6531 70.2715C48.1525 70.2715 49.3663 71.4853 49.3663 72.9847C49.3663 74.4841 48.1525 75.6978 46.6531 75.6978C45.1537 75.6978 43.9399 74.4841 43.9399 72.9847C43.9399 71.4853 45.1537 70.2715 46.6531 70.2715Z" fill="#3E3D4A"/>
<path d="M55.3623 70.2715C56.8617 70.2715 58.0755 71.4853 58.0755 72.9847C58.0755 74.4841 56.8617 75.6978 55.3623 75.6978C53.8629 75.6978 52.6491 74.4841 52.6491 72.9847C52.6491 71.4853 53.8629 70.2715 55.3623 70.2715Z" fill="#3E3D4A"/>
<path d="M64.0263 70.2715C65.5257 70.2715 66.7395 71.4853 66.7395 72.9847C66.7395 74.4841 65.5257 75.6978 64.0263 75.6978C62.5269 75.6978 61.3131 74.4841 61.3131 72.9847C61.3131 71.4853 62.5269 70.2715 64.0263 70.2715Z" fill="#3E3D4A"/>
<path d="M72.6904 70.2715C74.1898 70.2715 75.4036 71.4853 75.4036 72.9847C75.4036 74.4841 74.1898 75.6978 72.6904 75.6978C71.191 75.6978 69.9772 74.4841 69.9772 72.9847C69.9772 71.4853 71.191 70.2715 72.6904 70.2715Z" fill="#3E3D4A"/>
<path d="M81.3544 70.2715C82.8538 70.2715 84.0676 71.4853 84.0676 72.9847C84.0676 74.4841 82.8538 75.6978 81.3544 75.6978C79.855 75.6978 78.6411 74.4841 78.6411 72.9847C78.6411 71.4853 79.855 70.2715 81.3544 70.2715Z" fill="#3E3D4A"/>
<path d="M90.0635 70.2715C91.563 70.2715 92.7768 71.4853 92.7768 72.9847C92.7768 74.4841 91.563 75.6978 90.0635 75.6978C88.5641 75.6978 87.3504 74.4841 87.3504 72.9847C87.3504 71.4853 88.5641 70.2715 90.0635 70.2715Z" fill="#3E3D4A"/>
<path d="M98.7277 70.2715C100.227 70.2715 101.441 71.4853 101.441 72.9847C101.441 74.4841 100.227 75.6978 98.7277 75.6978C97.2283 75.6978 96.0145 74.4841 96.0145 72.9847C96.0145 71.4853 97.2283 70.2715 98.7277 70.2715Z" fill="#3E3D4A"/>
<path d="M107.392 70.2715C108.891 70.2715 110.105 71.4853 110.105 72.9847C110.105 74.4841 108.891 75.6978 107.392 75.6978C105.892 75.6978 104.678 74.4841 104.678 72.9847C104.678 71.4853 105.892 70.2715 107.392 70.2715Z" fill="#3E3D4A"/>
<path d="M116.056 70.2715C117.555 70.2715 118.769 71.4853 118.769 72.9847C118.769 74.4841 117.555 75.6978 116.056 75.6978C114.556 75.6978 113.343 74.4841 113.343 72.9847C113.343 71.4853 114.556 70.2715 116.056 70.2715Z" fill="#3E3D4A"/>
<path d="M124.765 70.2715C126.264 70.2715 127.478 71.4853 127.478 72.9847C127.478 74.4841 126.264 75.6978 124.765 75.6978C123.266 75.6978 122.052 74.4841 122.052 72.9847C122.052 71.4853 123.266 70.2715 124.765 70.2715Z" fill="#3E3D4A"/>
<path d="M133.429 70.2715C134.929 70.2715 136.142 71.4853 136.142 72.9847C136.142 74.4841 134.929 75.6978 133.429 75.6978C131.93 75.6978 130.716 74.4841 130.716 72.9847C130.716 71.4853 131.93 70.2715 133.429 70.2715Z" fill="#3E3D4A"/>
<path d="M142.093 70.2715C143.592 70.2715 144.806 71.4853 144.806 72.9847C144.806 74.4841 143.592 75.6978 142.093 75.6978C140.594 75.6978 139.38 74.4841 139.38 72.9847C139.38 71.4853 140.594 70.2715 142.093 70.2715Z" fill="#3E3D4A"/>
<path d="M150.757 70.2715C152.257 70.2715 153.47 71.4853 153.47 72.9847C153.47 74.4841 152.257 75.6978 150.757 75.6978C149.258 75.6978 148.044 74.4841 148.044 72.9847C148.044 71.4853 149.258 70.2715 150.757 70.2715Z" fill="#3E3D4A"/>
<path d="M159.466 70.2715C160.966 70.2715 162.18 71.4853 162.18 72.9847C162.18 74.4841 160.966 75.6978 159.466 75.6978C157.967 75.6978 156.753 74.4841 156.753 72.9847C156.753 71.4853 157.967 70.2715 159.466 70.2715Z" fill="#3E3D4A"/>
<path d="M168.13 70.2715C169.63 70.2715 170.844 71.4853 170.844 72.9847C170.844 74.4841 169.63 75.6978 168.13 75.6978C166.631 75.6978 165.417 74.4841 165.417 72.9847C165.417 71.4853 166.631 70.2715 168.13 70.2715Z" fill="#3E3D4A"/>
<path d="M176.794 70.2715C178.294 70.2715 179.508 71.4853 179.508 72.9847C179.508 74.4841 178.294 75.6978 176.794 75.6978C175.295 75.6978 174.081 74.4841 174.081 72.9847C174.081 71.4853 175.295 70.2715 176.794 70.2715Z" fill="#3E3D4A"/>
<path d="M11.9517 78.9807C13.4511 78.9807 14.6649 80.1944 14.6649 81.6938C14.6649 83.1932 13.4511 84.4071 11.9517 84.4071C10.4523 84.4071 9.23853 83.1932 9.23853 81.6938C9.23853 80.1944 10.4523 78.9807 11.9517 78.9807Z" fill="#3E3D4A"/>
<path d="M20.6609 78.9807C22.1603 78.9807 23.3741 80.1944 23.3741 81.6938C23.3741 83.1932 22.1603 84.4071 20.6609 84.4071C19.1615 84.4071 17.9478 83.1932 17.9478 81.6938C17.9478 80.1944 19.1615 78.9807 20.6609 78.9807Z" fill="#3E3D4A"/>
<path d="M29.325 78.9807C30.8244 78.9807 32.0382 80.1944 32.0382 81.6938C32.0382 83.1932 30.8244 84.4071 29.325 84.4071C27.8256 84.4071 26.6118 83.1932 26.6118 81.6938C26.6118 80.1944 27.8256 78.9807 29.325 78.9807Z" fill="#3E3D4A"/>
<path d="M37.989 78.9807C39.4884 78.9807 40.7022 80.1944 40.7022 81.6938C40.7022 83.1932 39.4884 84.4071 37.989 84.4071C36.4896 84.4071 35.2758 83.1932 35.2758 81.6938C35.2758 80.1944 36.4896 78.9807 37.989 78.9807Z" fill="#3E3D4A"/>
<path d="M46.6531 78.9807C48.1525 78.9807 49.3663 80.1944 49.3663 81.6938C49.3663 83.1932 48.1525 84.4071 46.6531 84.4071C45.1537 84.4071 43.9399 83.1932 43.9399 81.6938C43.9399 80.1944 45.1537 78.9807 46.6531 78.9807Z" fill="#3E3D4A"/>
<path d="M55.3623 78.9807C56.8617 78.9807 58.0755 80.1944 58.0755 81.6938C58.0755 83.1932 56.8617 84.4071 55.3623 84.4071C53.8629 84.4071 52.6491 83.1932 52.6491 81.6938C52.6491 80.1944 53.8629 78.9807 55.3623 78.9807Z" fill="#3E3D4A"/>
<path d="M64.0263 78.9807C65.5257 78.9807 66.7395 80.1944 66.7395 81.6938C66.7395 83.1932 65.5257 84.4071 64.0263 84.4071C62.5269 84.4071 61.3131 83.1932 61.3131 81.6938C61.3131 80.1944 62.5269 78.9807 64.0263 78.9807Z" fill="#3E3D4A"/>
<path d="M72.6904 78.9807C74.1898 78.9807 75.4036 80.1944 75.4036 81.6938C75.4036 83.1932 74.1898 84.4071 72.6904 84.4071C71.191 84.4071 69.9772 83.1932 69.9772 81.6938C69.9772 80.1944 71.191 78.9807 72.6904 78.9807Z" fill="#3E3D4A"/>
<path d="M81.3544 78.9807C82.8538 78.9807 84.0676 80.1944 84.0676 81.6938C84.0676 83.1932 82.8538 84.4071 81.3544 84.4071C79.855 84.4071 78.6411 83.1932 78.6411 81.6938C78.6411 80.1944 79.855 78.9807 81.3544 78.9807Z" fill="#3E3D4A"/>
<path d="M90.0635 78.9807C91.563 78.9807 92.7768 80.1944 92.7768 81.6938C92.7768 83.1932 91.563 84.4071 90.0635 84.4071C88.5641 84.4071 87.3504 83.1932 87.3504 81.6938C87.3504 80.1944 88.5641 78.9807 90.0635 78.9807Z" fill="#3E3D4A"/>
<path d="M98.7277 78.9807C100.227 78.9807 101.441 80.1944 101.441 81.6938C101.441 83.1932 100.227 84.4071 98.7277 84.4071C97.2283 84.4071 96.0145 83.1932 96.0145 81.6938C96.0145 80.1944 97.2283 78.9807 98.7277 78.9807Z" fill="#3E3D4A"/>
<path d="M107.392 78.9807C108.891 78.9807 110.105 80.1944 110.105 81.6938C110.105 83.1932 108.891 84.4071 107.392 84.4071C105.892 84.4071 104.678 83.1932 104.678 81.6938C104.678 80.1944 105.892 78.9807 107.392 78.9807Z" fill="#3E3D4A"/>
<path d="M116.056 78.9807C117.555 78.9807 118.769 80.1944 118.769 81.6938C118.769 83.1932 117.555 84.4071 116.056 84.4071C114.556 84.4071 113.343 83.1932 113.343 81.6938C113.343 80.1944 114.556 78.9807 116.056 78.9807Z" fill="#3E3D4A"/>
<path d="M124.765 78.9807C126.264 78.9807 127.478 80.1944 127.478 81.6938C127.478 83.1932 126.264 84.4071 124.765 84.4071C123.266 84.4071 122.052 83.1932 122.052 81.6938C122.052 80.1944 123.266 78.9807 124.765 78.9807Z" fill="#3E3D4A"/>
<path d="M133.429 78.9807C134.929 78.9807 136.142 80.1944 136.142 81.6938C136.142 83.1932 134.929 84.4071 133.429 84.4071C131.93 84.4071 130.716 83.1932 130.716 81.6938C130.716 80.1944 131.93 78.9807 133.429 78.9807Z" fill="#3E3D4A"/>
<path d="M142.093 78.9807C143.592 78.9807 144.806 80.1944 144.806 81.6938C144.806 83.1932 143.592 84.4071 142.093 84.4071C140.594 84.4071 139.38 83.1932 139.38 81.6938C139.38 80.1944 140.594 78.9807 142.093 78.9807Z" fill="#3E3D4A"/>
<path d="M150.757 78.9807C152.257 78.9807 153.47 80.1944 153.47 81.6938C153.47 83.1932 152.257 84.4071 150.757 84.4071C149.258 84.4071 148.044 83.1932 148.044 81.6938C148.044 80.1944 149.258 78.9807 150.757 78.9807Z" fill="#3E3D4A"/>
<path d="M159.466 78.9807C160.966 78.9807 162.18 80.1944 162.18 81.6938C162.18 83.1932 160.966 84.4071 159.466 84.4071C157.967 84.4071 156.753 83.1932 156.753 81.6938C156.753 80.1944 157.967 78.9807 159.466 78.9807Z" fill="#3E3D4A"/>
<path d="M168.13 78.9807C169.63 78.9807 170.844 80.1944 170.844 81.6938C170.844 83.1932 169.63 84.4071 168.13 84.4071C166.631 84.4071 165.417 83.1932 165.417 81.6938C165.417 80.1944 166.631 78.9807 168.13 78.9807Z" fill="#3E3D4A"/>
<path d="M176.794 78.9807C178.294 78.9807 179.508 80.1944 179.508 81.6938C179.508 83.1932 178.294 84.4071 176.794 84.4071C175.295 84.4071 174.081 83.1932 174.081 81.6938C174.081 80.1944 175.295 78.9807 176.794 78.9807Z" fill="#3E3D4A"/>
<path d="M20.6609 87.6805C22.1603 87.6805 23.3741 88.8942 23.3741 90.3936C23.3741 91.893 22.1603 93.1069 20.6609 93.1069C19.1615 93.1069 17.9478 91.893 17.9478 90.3936C17.9478 88.8942 19.1615 87.6805 20.6609 87.6805Z" fill="#3E3D4A"/>
<path d="M29.325 87.6805C30.8244 87.6805 32.0382 88.8942 32.0382 90.3936C32.0382 91.893 30.8244 93.1069 29.325 93.1069C27.8256 93.1069 26.6118 91.893 26.6118 90.3936C26.6118 88.8942 27.8256 87.6805 29.325 87.6805Z" fill="#3E3D4A"/>
<path d="M37.989 87.6805C39.4884 87.6805 40.7022 88.8942 40.7022 90.3936C40.7022 91.893 39.4884 93.1069 37.989 93.1069C36.4896 93.1069 35.2758 91.893 35.2758 90.3936C35.2758 88.8942 36.4896 87.6805 37.989 87.6805Z" fill="#3E3D4A"/>
<path d="M46.6531 87.6805C48.1525 87.6805 49.3663 88.8942 49.3663 90.3936C49.3663 91.893 48.1525 93.1069 46.6531 93.1069C45.1537 93.1069 43.9399 91.893 43.9399 90.3936C43.9399 88.8942 45.1537 87.6805 46.6531 87.6805Z" fill="#3E3D4A"/>
<path d="M55.3623 87.6805C56.8617 87.6805 58.0755 88.8942 58.0755 90.3936C58.0755 91.893 56.8617 93.1069 55.3623 93.1069C53.8629 93.1069 52.6491 91.893 52.6491 90.3936C52.6491 88.8942 53.8629 87.6805 55.3623 87.6805Z" fill="#3E3D4A"/>
<path d="M64.0263 87.6805C65.5257 87.6805 66.7395 88.8942 66.7395 90.3936C66.7395 91.893 65.5257 93.1069 64.0263 93.1069C62.5269 93.1069 61.3131 91.893 61.3131 90.3936C61.3131 88.8942 62.5269 87.6805 64.0263 87.6805Z" fill="#3E3D4A"/>
<path d="M72.6904 87.6805C74.1898 87.6805 75.4036 88.8942 75.4036 90.3936C75.4036 91.893 74.1898 93.1069 72.6904 93.1069C71.191 93.1069 69.9772 91.893 69.9772 90.3936C69.9772 88.8942 71.191 87.6805 72.6904 87.6805Z" fill="#3E3D4A"/>
<path d="M81.3544 87.6805C82.8538 87.6805 84.0676 88.8942 84.0676 90.3936C84.0676 91.893 82.8538 93.1069 81.3544 93.1069C79.855 93.1069 78.6411 91.893 78.6411 90.3936C78.6411 88.8942 79.855 87.6805 81.3544 87.6805Z" fill="#3E3D4A"/>
<path d="M90.0635 87.6805C91.563 87.6805 92.7768 88.8942 92.7768 90.3936C92.7768 91.893 91.563 93.1069 90.0635 93.1069C88.5641 93.1069 87.3504 91.893 87.3504 90.3936C87.3504 88.8942 88.5641 87.6805 90.0635 87.6805Z" fill="#3E3D4A"/>
<path d="M98.7277 87.6805C100.227 87.6805 101.441 88.8942 101.441 90.3936C101.441 91.893 100.227 93.1069 98.7277 93.1069C97.2283 93.1069 96.0145 91.893 96.0145 90.3936C96.0145 88.8942 97.2283 87.6805 98.7277 87.6805Z" fill="#3E3D4A"/>
<path d="M107.392 87.6805C108.891 87.6805 110.105 88.8942 110.105 90.3936C110.105 91.893 108.891 93.1069 107.392 93.1069C105.892 93.1069 104.678 91.893 104.678 90.3936C104.678 88.8942 105.892 87.6805 107.392 87.6805Z" fill="#3E3D4A"/>
<path d="M116.056 87.6805C117.555 87.6805 118.769 88.8942 118.769 90.3936C118.769 91.893 117.555 93.1069 116.056 93.1069C114.556 93.1069 113.343 91.893 113.343 90.3936C113.343 88.8942 114.556 87.6805 116.056 87.6805Z" fill="#3E3D4A"/>
<path d="M124.765 87.6805C126.264 87.6805 127.478 88.8942 127.478 90.3936C127.478 91.893 126.264 93.1069 124.765 93.1069C123.266 93.1069 122.052 91.893 122.052 90.3936C122.052 88.8942 123.266 87.6805 124.765 87.6805Z" fill="#3E3D4A"/>
<path d="M133.429 87.6805C134.929 87.6805 136.142 88.8942 136.142 90.3936C136.142 91.893 134.929 93.1069 133.429 93.1069C131.93 93.1069 130.716 91.893 130.716 90.3936C130.716 88.8942 131.93 87.6805 133.429 87.6805Z" fill="#3E3D4A"/>
<path d="M142.093 87.6805C143.592 87.6805 144.806 88.8942 144.806 90.3936C144.806 91.893 143.592 93.1069 142.093 93.1069C140.594 93.1069 139.38 91.893 139.38 90.3936C139.38 88.8942 140.594 87.6805 142.093 87.6805Z" fill="#3E3D4A"/>
<path d="M150.757 87.6805C152.257 87.6805 153.47 88.8942 153.47 90.3936C153.47 91.893 152.257 93.1069 150.757 93.1069C149.258 93.1069 148.044 91.893 148.044 90.3936C148.044 88.8942 149.258 87.6805 150.757 87.6805Z" fill="#3E3D4A"/>
<path d="M159.466 87.6805C160.966 87.6805 162.18 88.8942 162.18 90.3936C162.18 91.893 160.966 93.1069 159.466 93.1069C157.967 93.1069 156.753 91.893 156.753 90.3936C156.753 88.8942 157.967 87.6805 159.466 87.6805Z" fill="#3E3D4A"/>
<path d="M168.13 87.6805C169.63 87.6805 170.844 88.8942 170.844 90.3936C170.844 91.893 169.63 93.1069 168.13 93.1069C166.631 93.1069 165.417 91.893 165.417 90.3936C165.417 88.8942 166.631 87.6805 168.13 87.6805Z" fill="#3E3D4A"/>
<path d="M20.6609 96.3444C22.1603 96.3444 23.3741 97.5582 23.3741 99.0576C23.3741 100.557 22.1603 101.771 20.6609 101.771C19.1615 101.771 17.9478 100.557 17.9478 99.0576C17.9478 97.5582 19.1615 96.3444 20.6609 96.3444Z" fill="#3E3D4A"/>
<path d="M29.325 96.3444C30.8244 96.3444 32.0382 97.5582 32.0382 99.0576C32.0382 100.557 30.8244 101.771 29.325 101.771C27.8256 101.771 26.6118 100.557 26.6118 99.0576C26.6118 97.5582 27.8256 96.3444 29.325 96.3444Z" fill="#3E3D4A"/>
<path d="M37.989 96.3444C39.4884 96.3444 40.7022 97.5582 40.7022 99.0576C40.7022 100.557 39.4884 101.771 37.989 101.771C36.4896 101.771 35.2758 100.557 35.2758 99.0576C35.2758 97.5582 36.4896 96.3444 37.989 96.3444Z" fill="#3E3D4A"/>
<path d="M46.6531 96.3444C48.1525 96.3444 49.3663 97.5582 49.3663 99.0576C49.3663 100.557 48.1525 101.771 46.6531 101.771C45.1537 101.771 43.9399 100.557 43.9399 99.0576C43.9399 97.5582 45.1537 96.3444 46.6531 96.3444Z" fill="#3E3D4A"/>
<path d="M55.3623 96.3444C56.8617 96.3444 58.0755 97.5582 58.0755 99.0576C58.0755 100.557 56.8617 101.771 55.3623 101.771C53.8629 101.771 52.6491 100.557 52.6491 99.0576C52.6491 97.5582 53.8629 96.3444 55.3623 96.3444Z" fill="#3E3D4A"/>
<path d="M64.0263 96.3444C65.5257 96.3444 66.7395 97.5582 66.7395 99.0576C66.7395 100.557 65.5257 101.771 64.0263 101.771C62.5269 101.771 61.3131 100.557 61.3131 99.0576C61.3131 97.5582 62.5269 96.3444 64.0263 96.3444Z" fill="#3E3D4A"/>
<path d="M72.6904 96.3444C74.1898 96.3444 75.4036 97.5582 75.4036 99.0576C75.4036 100.557 74.1898 101.771 72.6904 101.771C71.191 101.771 69.9772 100.557 69.9772 99.0576C69.9772 97.5582 71.191 96.3444 72.6904 96.3444Z" fill="#3E3D4A"/>
<path d="M81.3544 96.3444C82.8538 96.3444 84.0676 97.5582 84.0676 99.0576C84.0676 100.557 82.8538 101.771 81.3544 101.771C79.855 101.771 78.6411 100.557 78.6411 99.0576C78.6411 97.5582 79.855 96.3444 81.3544 96.3444Z" fill="#3E3D4A"/>
<path d="M90.0635 96.3444C91.563 96.3444 92.7768 97.5582 92.7768 99.0576C92.7768 100.557 91.563 101.771 90.0635 101.771C88.5641 101.771 87.3504 100.557 87.3504 99.0576C87.3504 97.5582 88.5641 96.3444 90.0635 96.3444Z" fill="#3E3D4A"/>
<path d="M98.7277 96.3444C100.227 96.3444 101.441 97.5582 101.441 99.0576C101.441 100.557 100.227 101.771 98.7277 101.771C97.2283 101.771 96.0145 100.557 96.0145 99.0576C96.0145 97.5582 97.2283 96.3444 98.7277 96.3444Z" fill="#3E3D4A"/>
<path d="M107.392 96.3444C108.891 96.3444 110.105 97.5582 110.105 99.0576C110.105 100.557 108.891 101.771 107.392 101.771C105.892 101.771 104.678 100.557 104.678 99.0576C104.678 97.5582 105.892 96.3444 107.392 96.3444Z" fill="#3E3D4A"/>
<path d="M116.056 96.3444C117.555 96.3444 118.769 97.5582 118.769 99.0576C118.769 100.557 117.555 101.771 116.056 101.771C114.556 101.771 113.343 100.557 113.343 99.0576C113.343 97.5582 114.556 96.3444 116.056 96.3444Z" fill="#3E3D4A"/>
<path d="M124.765 96.3444C126.264 96.3444 127.478 97.5582 127.478 99.0576C127.478 100.557 126.264 101.771 124.765 101.771C123.266 101.771 122.052 100.557 122.052 99.0576C122.052 97.5582 123.266 96.3444 124.765 96.3444Z" fill="#3E3D4A"/>
<path d="M133.429 96.3444C134.929 96.3444 136.142 97.5582 136.142 99.0576C136.142 100.557 134.929 101.771 133.429 101.771C131.93 101.771 130.716 100.557 130.716 99.0576C130.716 97.5582 131.93 96.3444 133.429 96.3444Z" fill="#3E3D4A"/>
<path d="M142.093 96.3444C143.592 96.3444 144.806 97.5582 144.806 99.0576C144.806 100.557 143.592 101.771 142.093 101.771C140.594 101.771 139.38 100.557 139.38 99.0576C139.38 97.5582 140.594 96.3444 142.093 96.3444Z" fill="#3E3D4A"/>
<path d="M150.757 96.3444C152.257 96.3444 153.47 97.5582 153.47 99.0576C153.47 100.557 152.257 101.771 150.757 101.771C149.258 101.771 148.044 100.557 148.044 99.0576C148.044 97.5582 149.258 96.3444 150.757 96.3444Z" fill="#3E3D4A"/>
<path d="M159.466 96.3444C160.966 96.3444 162.18 97.5582 162.18 99.0576C162.18 100.557 160.966 101.771 159.466 101.771C157.967 101.771 156.753 100.557 156.753 99.0576C156.753 97.5582 157.967 96.3444 159.466 96.3444Z" fill="#3E3D4A"/>
<path d="M29.325 105.044C30.8244 105.044 32.0382 106.258 32.0382 107.757C32.0382 109.257 30.8244 110.471 29.325 110.471C27.8256 110.471 26.6118 109.257 26.6118 107.757C26.6118 106.258 27.8256 105.044 29.325 105.044Z" fill="#3E3D4A"/>
<path d="M37.989 105.044C39.4884 105.044 40.7022 106.258 40.7022 107.757C40.7022 109.257 39.4884 110.471 37.989 110.471C36.4896 110.471 35.2758 109.257 35.2758 107.757C35.2758 106.258 36.4896 105.044 37.989 105.044Z" fill="#3E3D4A"/>
<path d="M46.6531 105.044C48.1525 105.044 49.3663 106.258 49.3663 107.757C49.3663 109.257 48.1525 110.471 46.6531 110.471C45.1537 110.471 43.9399 109.257 43.9399 107.757C43.9399 106.258 45.1537 105.044 46.6531 105.044Z" fill="#3E3D4A"/>
<path d="M55.3623 105.044C56.8617 105.044 58.0755 106.258 58.0755 107.757C58.0755 109.257 56.8617 110.471 55.3623 110.471C53.8629 110.471 52.6491 109.257 52.6491 107.757C52.6491 106.258 53.8629 105.044 55.3623 105.044Z" fill="#3E3D4A"/>
<path d="M64.0263 105.044C65.5257 105.044 66.7395 106.258 66.7395 107.757C66.7395 109.257 65.5257 110.471 64.0263 110.471C62.5269 110.471 61.3131 109.257 61.3131 107.757C61.3131 106.258 62.5269 105.044 64.0263 105.044Z" fill="#3E3D4A"/>
<path d="M72.6904 105.044C74.1898 105.044 75.4036 106.258 75.4036 107.757C75.4036 109.257 74.1898 110.471 72.6904 110.471C71.191 110.471 69.9772 109.257 69.9772 107.757C69.9772 106.258 71.191 105.044 72.6904 105.044Z" fill="#3E3D4A"/>
<path d="M81.3544 105.044C82.8538 105.044 84.0676 106.258 84.0676 107.757C84.0676 109.257 82.8538 110.471 81.3544 110.471C79.855 110.471 78.6411 109.257 78.6411 107.757C78.6411 106.258 79.855 105.044 81.3544 105.044Z" fill="#3E3D4A"/>
<path d="M90.0635 105.044C91.563 105.044 92.7768 106.258 92.7768 107.757C92.7768 109.257 91.563 110.471 90.0635 110.471C88.5641 110.471 87.3504 109.257 87.3504 107.757C87.3504 106.258 88.5641 105.044 90.0635 105.044Z" fill="#3E3D4A"/>
<path d="M98.7277 105.044C100.227 105.044 101.441 106.258 101.441 107.757C101.441 109.257 100.227 110.471 98.7277 110.471C97.2283 110.471 96.0145 109.257 96.0145 107.757C96.0145 106.258 97.2283 105.044 98.7277 105.044Z" fill="#3E3D4A"/>
<path d="M107.392 105.044C108.891 105.044 110.105 106.258 110.105 107.757C110.105 109.257 108.891 110.471 107.392 110.471C105.892 110.471 104.678 109.257 104.678 107.757C104.678 106.258 105.892 105.044 107.392 105.044Z" fill="#3E3D4A"/>
<path d="M116.056 105.044C117.555 105.044 118.769 106.258 118.769 107.757C118.769 109.257 117.555 110.471 116.056 110.471C114.556 110.471 113.343 109.257 113.343 107.757C113.343 106.258 114.556 105.044 116.056 105.044Z" fill="#3E3D4A"/>
<path d="M124.765 105.044C126.264 105.044 127.478 106.258 127.478 107.757C127.478 109.257 126.264 110.471 124.765 110.471C123.266 110.471 122.052 109.257 122.052 107.757C122.052 106.258 123.266 105.044 124.765 105.044Z" fill="#3E3D4A"/>
<path d="M133.429 105.044C134.929 105.044 136.142 106.258 136.142 107.757C136.142 109.257 134.929 110.471 133.429 110.471C131.93 110.471 130.716 109.257 130.716 107.757C130.716 106.258 131.93 105.044 133.429 105.044Z" fill="#3E3D4A"/>
<path d="M142.093 105.044C143.592 105.044 144.806 106.258 144.806 107.757C144.806 109.257 143.592 110.471 142.093 110.471C140.594 110.471 139.38 109.257 139.38 107.757C139.38 106.258 140.594 105.044 142.093 105.044Z" fill="#3E3D4A"/>
<path d="M150.757 105.044C152.257 105.044 153.47 106.258 153.47 107.757C153.47 109.257 152.257 110.471 150.757 110.471C149.258 110.471 148.044 109.257 148.044 107.757C148.044 106.258 149.258 105.044 150.757 105.044Z" fill="#3E3D4A"/>
<path d="M159.466 105.044C160.966 105.044 162.18 106.258 162.18 107.757C162.18 109.257 160.966 110.471 159.466 110.471C157.967 110.471 156.753 109.257 156.753 107.757C156.753 106.258 157.967 105.044 159.466 105.044Z" fill="#3E3D4A"/>
<path d="M37.989 113.753C39.4884 113.753 40.7022 114.967 40.7022 116.467C40.7022 117.966 39.4884 119.18 37.989 119.18C36.4896 119.18 35.2758 117.966 35.2758 116.467C35.2758 114.967 36.4896 113.753 37.989 113.753Z" fill="#3E3D4A"/>
<path d="M46.6531 113.753C48.1525 113.753 49.3663 114.967 49.3663 116.467C49.3663 117.966 48.1525 119.18 46.6531 119.18C45.1537 119.18 43.9399 117.966 43.9399 116.467C43.9399 114.967 45.1537 113.753 46.6531 113.753Z" fill="#3E3D4A"/>
<path d="M55.3623 113.753C56.8617 113.753 58.0755 114.967 58.0755 116.467C58.0755 117.966 56.8617 119.18 55.3623 119.18C53.8629 119.18 52.6491 117.966 52.6491 116.467C52.6491 114.967 53.8629 113.753 55.3623 113.753Z" fill="#3E3D4A"/>
<path d="M64.0263 113.753C65.5257 113.753 66.7395 114.967 66.7395 116.467C66.7395 117.966 65.5257 119.18 64.0263 119.18C62.5269 119.18 61.3131 117.966 61.3131 116.467C61.3131 114.967 62.5269 113.753 64.0263 113.753Z" fill="#3E3D4A"/>
<path d="M72.6904 113.753C74.1898 113.753 75.4036 114.967 75.4036 116.467C75.4036 117.966 74.1898 119.18 72.6904 119.18C71.191 119.18 69.9772 117.966 69.9772 116.467C69.9772 114.967 71.191 113.753 72.6904 113.753Z" fill="#3E3D4A"/>
<path d="M81.3544 113.753C82.8538 113.753 84.0676 114.967 84.0676 116.467C84.0676 117.966 82.8538 119.18 81.3544 119.18C79.855 119.18 78.6411 117.966 78.6411 116.467C78.6411 114.967 79.855 113.753 81.3544 113.753Z" fill="#3E3D4A"/>
<path d="M90.0635 113.753C91.563 113.753 92.7768 114.967 92.7768 116.467C92.7768 117.966 91.563 119.18 90.0635 119.18C88.5641 119.18 87.3504 117.966 87.3504 116.467C87.3504 114.967 88.5641 113.753 90.0635 113.753Z" fill="#3E3D4A"/>
<path d="M98.7277 113.753C100.227 113.753 101.441 114.967 101.441 116.467C101.441 117.966 100.227 119.18 98.7277 119.18C97.2283 119.18 96.0145 117.966 96.0145 116.467C96.0145 114.967 97.2283 113.753 98.7277 113.753Z" fill="#3E3D4A"/>
<path d="M107.392 113.753C108.891 113.753 110.105 114.967 110.105 116.467C110.105 117.966 108.891 119.18 107.392 119.18C105.892 119.18 104.678 117.966 104.678 116.467C104.678 114.967 105.892 113.753 107.392 113.753Z" fill="#3E3D4A"/>
<path d="M116.056 113.753C117.555 113.753 118.769 114.967 118.769 116.467C118.769 117.966 117.555 119.18 116.056 119.18C114.556 119.18 113.343 117.966 113.343 116.467C113.343 114.967 114.556 113.753 116.056 113.753Z" fill="#3E3D4A"/>
<path d="M124.765 113.753C126.264 113.753 127.478 114.967 127.478 116.467C127.478 117.966 126.264 119.18 124.765 119.18C123.266 119.18 122.052 117.966 122.052 116.467C122.052 114.967 123.266 113.753 124.765 113.753Z" fill="#3E3D4A"/>
<path d="M133.429 113.753C134.929 113.753 136.142 114.967 136.142 116.467C136.142 117.966 134.929 119.18 133.429 119.18C131.93 119.18 130.716 117.966 130.716 116.467C130.716 114.967 131.93 113.753 133.429 113.753Z" fill="#3E3D4A"/>
<path d="M142.093 113.753C143.592 113.753 144.806 114.967 144.806 116.467C144.806 117.966 143.592 119.18 142.093 119.18C140.594 119.18 139.38 117.966 139.38 116.467C139.38 114.967 140.594 113.753 142.093 113.753Z" fill="#3E3D4A"/>
<path d="M150.757 113.753C152.257 113.753 153.47 114.967 153.47 116.467C153.47 117.966 152.257 119.18 150.757 119.18C149.258 119.18 148.044 117.966 148.044 116.467C148.044 114.967 149.258 113.753 150.757 113.753Z" fill="#3E3D4A"/>
<path d="M159.466 113.753C160.966 113.753 162.18 114.967 162.18 116.467C162.18 117.966 160.966 119.18 159.466 119.18C157.967 119.18 156.753 117.966 156.753 116.467C156.753 114.967 157.967 113.753 159.466 113.753Z" fill="#3E3D4A"/>
<path d="M46.6531 122.418C48.1525 122.418 49.3663 123.631 49.3663 125.131C49.3663 126.63 48.1525 127.844 46.6531 127.844C45.1537 127.844 43.9399 126.63 43.9399 125.131C43.9399 123.631 45.1537 122.418 46.6531 122.418Z" fill="#3E3D4A"/>
<path d="M55.3623 122.418C56.8617 122.418 58.0755 123.631 58.0755 125.131C58.0755 126.63 56.8617 127.844 55.3623 127.844C53.8629 127.844 52.6491 126.63 52.6491 125.131C52.6491 123.631 53.8629 122.418 55.3623 122.418Z" fill="#3E3D4A"/>
<path d="M64.0263 122.418C65.5257 122.418 66.7395 123.631 66.7395 125.131C66.7395 126.63 65.5257 127.844 64.0263 127.844C62.5269 127.844 61.3131 126.63 61.3131 125.131C61.3131 123.631 62.5269 122.418 64.0263 122.418Z" fill="#3E3D4A"/>
<path d="M72.6904 122.418C74.1898 122.418 75.4036 123.631 75.4036 125.131C75.4036 126.63 74.1898 127.844 72.6904 127.844C71.191 127.844 69.9772 126.63 69.9772 125.131C69.9772 123.631 71.191 122.418 72.6904 122.418Z" fill="#3E3D4A"/>
<path d="M81.3544 122.418C82.8538 122.418 84.0676 123.631 84.0676 125.131C84.0676 126.63 82.8538 127.844 81.3544 127.844C79.855 127.844 78.6411 126.63 78.6411 125.131C78.6411 123.631 79.855 122.418 81.3544 122.418Z" fill="#3E3D4A"/>
<path d="M90.0635 122.418C91.563 122.418 92.7768 123.631 92.7768 125.131C92.7768 126.63 91.563 127.844 90.0635 127.844C88.5641 127.844 87.3504 126.63 87.3504 125.131C87.3504 123.631 88.5641 122.418 90.0635 122.418Z" fill="#3E3D4A"/>
<path d="M98.7277 122.418C100.227 122.418 101.441 123.631 101.441 125.131C101.441 126.63 100.227 127.844 98.7277 127.844C97.2283 127.844 96.0145 126.63 96.0145 125.131C96.0145 123.631 97.2283 122.418 98.7277 122.418Z" fill="#3E3D4A"/>
<path d="M107.392 122.418C108.891 122.418 110.105 123.631 110.105 125.131C110.105 126.63 108.891 127.844 107.392 127.844C105.892 127.844 104.678 126.63 104.678 125.131C104.678 123.631 105.892 122.418 107.392 122.418Z" fill="#3E3D4A"/>
<path d="M116.056 122.418C117.555 122.418 118.769 123.631 118.769 125.131C118.769 126.63 117.555 127.844 116.056 127.844C114.556 127.844 113.343 126.63 113.343 125.131C113.343 123.631 114.556 122.418 116.056 122.418Z" fill="#3E3D4A"/>
<path d="M124.765 122.418C126.264 122.418 127.478 123.631 127.478 125.131C127.478 126.63 126.264 127.844 124.765 127.844C123.266 127.844 122.052 126.63 122.052 125.131C122.052 123.631 123.266 122.418 124.765 122.418Z" fill="#3E3D4A"/>
<path d="M133.429 122.418C134.929 122.418 136.142 123.631 136.142 125.131C136.142 126.63 134.929 127.844 133.429 127.844C131.93 127.844 130.716 126.63 130.716 125.131C130.716 123.631 131.93 122.418 133.429 122.418Z" fill="#3E3D4A"/>
<path d="M142.093 122.418C143.592 122.418 144.806 123.631 144.806 125.131C144.806 126.63 143.592 127.844 142.093 127.844C140.594 127.844 139.38 126.63 139.38 125.131C139.38 123.631 140.594 122.418 142.093 122.418Z" fill="#3E3D4A"/>
<path d="M150.757 122.418C152.257 122.418 153.47 123.631 153.47 125.131C153.47 126.63 152.257 127.844 150.757 127.844C149.258 127.844 148.044 126.63 148.044 125.131C148.044 123.631 149.258 122.418 150.757 122.418Z" fill="#3E3D4A"/>
<path d="M159.466 122.418C160.966 122.418 162.18 123.631 162.18 125.131C162.18 126.63 160.966 127.844 159.466 127.844C157.967 127.844 156.753 126.63 156.753 125.131C156.753 123.631 157.967 122.418 159.466 122.418Z" fill="#3E3D4A"/>
<path d="M46.6531 131.117C48.1525 131.117 49.3663 132.331 49.3663 133.83C49.3663 135.33 48.1525 136.544 46.6531 136.544C45.1537 136.544 43.9399 135.33 43.9399 133.83C43.9399 132.331 45.1537 131.117 46.6531 131.117Z" fill="#3E3D4A"/>
<path d="M55.3623 131.117C56.8617 131.117 58.0755 132.331 58.0755 133.83C58.0755 135.33 56.8617 136.544 55.3623 136.544C53.8629 136.544 52.6491 135.33 52.6491 133.83C52.6491 132.331 53.8629 131.117 55.3623 131.117Z" fill="#3E3D4A"/>
<path d="M64.0263 131.117C65.5257 131.117 66.7395 132.331 66.7395 133.83C66.7395 135.33 65.5257 136.544 64.0263 136.544C62.5269 136.544 61.3131 135.33 61.3131 133.83C61.3131 132.331 62.5269 131.117 64.0263 131.117Z" fill="#3E3D4A"/>
<path d="M72.6904 131.117C74.1898 131.117 75.4036 132.331 75.4036 133.83C75.4036 135.33 74.1898 136.544 72.6904 136.544C71.191 136.544 69.9772 135.33 69.9772 133.83C69.9772 132.331 71.191 131.117 72.6904 131.117Z" fill="#3E3D4A"/>
<path d="M81.3544 131.117C82.8538 131.117 84.0676 132.331 84.0676 133.83C84.0676 135.33 82.8538 136.544 81.3544 136.544C79.855 136.544 78.6411 135.33 78.6411 133.83C78.6411 132.331 79.855 131.117 81.3544 131.117Z" fill="#3E3D4A"/>
<path d="M90.0635 131.117C91.563 131.117 92.7768 132.331 92.7768 133.83C92.7768 135.33 91.563 136.544 90.0635 136.544C88.5641 136.544 87.3504 135.33 87.3504 133.83C87.3504 132.331 88.5641 131.117 90.0635 131.117Z" fill="#3E3D4A"/>
<path d="M98.7277 131.117C100.227 131.117 101.441 132.331 101.441 133.83C101.441 135.33 100.227 136.544 98.7277 136.544C97.2283 136.544 96.0145 135.33 96.0145 133.83C96.0145 132.331 97.2283 131.117 98.7277 131.117Z" fill="#3E3D4A"/>
<path d="M107.392 131.117C108.891 131.117 110.105 132.331 110.105 133.83C110.105 135.33 108.891 136.544 107.392 136.544C105.892 136.544 104.678 135.33 104.678 133.83C104.678 132.331 105.892 131.117 107.392 131.117Z" fill="#3E3D4A"/>
<path d="M116.056 131.117C117.555 131.117 118.769 132.331 118.769 133.83C118.769 135.33 117.555 136.544 116.056 136.544C114.556 136.544 113.343 135.33 113.343 133.83C113.343 132.331 114.556 131.117 116.056 131.117Z" fill="#3E3D4A"/>
<path d="M124.765 131.117C126.264 131.117 127.478 132.331 127.478 133.83C127.478 135.33 126.264 136.544 124.765 136.544C123.266 136.544 122.052 135.33 122.052 133.83C122.052 132.331 123.266 131.117 124.765 131.117Z" fill="#3E3D4A"/>
<path d="M133.429 131.117C134.929 131.117 136.142 132.331 136.142 133.83C136.142 135.33 134.929 136.544 133.429 136.544C131.93 136.544 130.716 135.33 130.716 133.83C130.716 132.331 131.93 131.117 133.429 131.117Z" fill="#3E3D4A"/>
<path d="M142.093 131.117C143.592 131.117 144.806 132.331 144.806 133.83C144.806 135.33 143.592 136.544 142.093 136.544C140.594 136.544 139.38 135.33 139.38 133.83C139.38 132.331 140.594 131.117 142.093 131.117Z" fill="#3E3D4A"/>
<path d="M150.757 131.117C152.257 131.117 153.47 132.331 153.47 133.83C153.47 135.33 152.257 136.544 150.757 136.544C149.258 136.544 148.044 135.33 148.044 133.83C148.044 132.331 149.258 131.117 150.757 131.117Z" fill="#3E3D4A"/>
<path d="M46.6531 139.817C48.1525 139.817 49.3663 141.031 49.3663 142.53C49.3663 144.03 48.1525 145.243 46.6531 145.243C45.1537 145.243 43.9399 144.03 43.9399 142.53C43.9399 141.031 45.1537 139.817 46.6531 139.817Z" fill="#3E3D4A"/>
<path d="M55.3623 139.817C56.8617 139.817 58.0755 141.031 58.0755 142.53C58.0755 144.03 56.8617 145.243 55.3623 145.243C53.8629 145.243 52.6491 144.03 52.6491 142.53C52.6491 141.031 53.8629 139.817 55.3623 139.817Z" fill="#3E3D4A"/>
<path d="M64.0263 139.817C65.5257 139.817 66.7395 141.031 66.7395 142.53C66.7395 144.03 65.5257 145.243 64.0263 145.243C62.5269 145.243 61.3131 144.03 61.3131 142.53C61.3131 141.031 62.5269 139.817 64.0263 139.817Z" fill="#3E3D4A"/>
<path d="M72.6904 139.817C74.1898 139.817 75.4036 141.031 75.4036 142.53C75.4036 144.03 74.1898 145.243 72.6904 145.243C71.191 145.243 69.9772 144.03 69.9772 142.53C69.9772 141.031 71.191 139.817 72.6904 139.817Z" fill="#3E3D4A"/>
<path d="M81.3544 139.817C82.8538 139.817 84.0676 141.031 84.0676 142.53C84.0676 144.03 82.8538 145.243 81.3544 145.243C79.855 145.243 78.6411 144.03 78.6411 142.53C78.6411 141.031 79.855 139.817 81.3544 139.817Z" fill="#3E3D4A"/>
<path d="M90.0635 139.817C91.563 139.817 92.7768 141.031 92.7768 142.53C92.7768 144.03 91.563 145.243 90.0635 145.243C88.5641 145.243 87.3504 144.03 87.3504 142.53C87.3504 141.031 88.5641 139.817 90.0635 139.817Z" fill="#3E3D4A"/>
<path d="M98.7277 139.817C100.227 139.817 101.441 141.031 101.441 142.53C101.441 144.03 100.227 145.243 98.7277 145.243C97.2283 145.243 96.0145 144.03 96.0145 142.53C96.0145 141.031 97.2283 139.817 98.7277 139.817Z" fill="#3E3D4A"/>
<path d="M107.392 139.817C108.891 139.817 110.105 141.031 110.105 142.53C110.105 144.03 108.891 145.243 107.392 145.243C105.892 145.243 104.678 144.03 104.678 142.53C104.678 141.031 105.892 139.817 107.392 139.817Z" fill="#3E3D4A"/>
<path d="M116.056 139.817C117.555 139.817 118.769 141.031 118.769 142.53C118.769 144.03 117.555 145.243 116.056 145.243C114.556 145.243 113.343 144.03 113.343 142.53C113.343 141.031 114.556 139.817 116.056 139.817Z" fill="#3E3D4A"/>
<path d="M124.765 139.817C126.264 139.817 127.478 141.031 127.478 142.53C127.478 144.03 126.264 145.243 124.765 145.243C123.266 145.243 122.052 144.03 122.052 142.53C122.052 141.031 123.266 139.817 124.765 139.817Z" fill="#3E3D4A"/>
<path d="M133.429 139.817C134.929 139.817 136.142 141.031 136.142 142.53C136.142 144.03 134.929 145.243 133.429 145.243C131.93 145.243 130.716 144.03 130.716 142.53C130.716 141.031 131.93 139.817 133.429 139.817Z" fill="#3E3D4A"/>
<path d="M46.6531 148.491C48.1525 148.491 49.3663 149.704 49.3663 151.204C49.3663 152.703 48.1525 153.917 46.6531 153.917C45.1537 153.917 43.9399 152.703 43.9399 151.204C43.9399 149.704 45.1537 148.491 46.6531 148.491Z" fill="#3E3D4A"/>
<path d="M55.3623 148.491C56.8617 148.491 58.0755 149.704 58.0755 151.204C58.0755 152.703 56.8617 153.917 55.3623 153.917C53.8629 153.917 52.6491 152.703 52.6491 151.204C52.6491 149.704 53.8629 148.491 55.3623 148.491Z" fill="#3E3D4A"/>
<path d="M64.0263 148.491C65.5257 148.491 66.7395 149.704 66.7395 151.204C66.7395 152.703 65.5257 153.917 64.0263 153.917C62.5269 153.917 61.3131 152.703 61.3131 151.204C61.3131 149.704 62.5269 148.491 64.0263 148.491Z" fill="#3E3D4A"/>
<path d="M72.6904 148.491C74.1898 148.491 75.4036 149.704 75.4036 151.204C75.4036 152.703 74.1898 153.917 72.6904 153.917C71.191 153.917 69.9772 152.703 69.9772 151.204C69.9772 149.704 71.191 148.491 72.6904 148.491Z" fill="#3E3D4A"/>
<path d="M81.3544 148.491C82.8538 148.491 84.0676 149.704 84.0676 151.204C84.0676 152.703 82.8538 153.917 81.3544 153.917C79.855 153.917 78.6411 152.703 78.6411 151.204C78.6411 149.704 79.855 148.491 81.3544 148.491Z" fill="#3E3D4A"/>
<path d="M90.0635 148.491C91.563 148.491 92.7768 149.704 92.7768 151.204C92.7768 152.703 91.563 153.917 90.0635 153.917C88.5641 153.917 87.3504 152.703 87.3504 151.204C87.3504 149.704 88.5641 148.491 90.0635 148.491Z" fill="#3E3D4A"/>
<path d="M98.7277 148.491C100.227 148.491 101.441 149.704 101.441 151.204C101.441 152.703 100.227 153.917 98.7277 153.917C97.2283 153.917 96.0145 152.703 96.0145 151.204C96.0145 149.704 97.2283 148.491 98.7277 148.491Z" fill="#3E3D4A"/>
<path d="M107.392 148.491C108.891 148.491 110.105 149.704 110.105 151.204C110.105 152.703 108.891 153.917 107.392 153.917C105.892 153.917 104.678 152.703 104.678 151.204C104.678 149.704 105.892 148.491 107.392 148.491Z" fill="#3E3D4A"/>
<path d="M116.056 148.491C117.555 148.491 118.769 149.704 118.769 151.204C118.769 152.703 117.555 153.917 116.056 153.917C114.556 153.917 113.343 152.703 113.343 151.204C113.343 149.704 114.556 148.491 116.056 148.491Z" fill="#3E3D4A"/>
<path d="M124.765 148.491C126.264 148.491 127.478 149.704 127.478 151.204C127.478 152.703 126.264 153.917 124.765 153.917C123.266 153.917 122.052 152.703 122.052 151.204C122.052 149.704 123.266 148.491 124.765 148.491Z" fill="#3E3D4A"/>
<path d="M46.6531 157.19C48.1525 157.19 49.3663 158.404 49.3663 159.903C49.3663 161.403 48.1525 162.617 46.6531 162.617C45.1537 162.617 43.9399 161.403 43.9399 159.903C43.9399 158.404 45.1537 157.19 46.6531 157.19Z" fill="#3E3D4A"/>
<path d="M55.3623 157.19C56.8617 157.19 58.0755 158.404 58.0755 159.903C58.0755 161.403 56.8617 162.617 55.3623 162.617C53.8629 162.617 52.6491 161.403 52.6491 159.903C52.6491 158.404 53.8629 157.19 55.3623 157.19Z" fill="#3E3D4A"/>
<path d="M64.0263 157.19C65.5257 157.19 66.7395 158.404 66.7395 159.903C66.7395 161.403 65.5257 162.617 64.0263 162.617C62.5269 162.617 61.3131 161.403 61.3131 159.903C61.3131 158.404 62.5269 157.19 64.0263 157.19Z" fill="#3E3D4A"/>
<path d="M72.6904 157.19C74.1898 157.19 75.4036 158.404 75.4036 159.903C75.4036 161.403 74.1898 162.617 72.6904 162.617C71.191 162.617 69.9772 161.403 69.9772 159.903C69.9772 158.404 71.191 157.19 72.6904 157.19Z" fill="#3E3D4A"/>
<path d="M81.3544 157.19C82.8538 157.19 84.0676 158.404 84.0676 159.903C84.0676 161.403 82.8538 162.617 81.3544 162.617C79.855 162.617 78.6411 161.403 78.6411 159.903C78.6411 158.404 79.855 157.19 81.3544 157.19Z" fill="#3E3D4A"/>
<path d="M90.0635 157.19C91.563 157.19 92.7768 158.404 92.7768 159.903C92.7768 161.403 91.563 162.617 90.0635 162.617C88.5641 162.617 87.3504 161.403 87.3504 159.903C87.3504 158.404 88.5641 157.19 90.0635 157.19Z" fill="#3E3D4A"/>
<path d="M98.7277 157.19C100.227 157.19 101.441 158.404 101.441 159.903C101.441 161.403 100.227 162.617 98.7277 162.617C97.2283 162.617 96.0145 161.403 96.0145 159.903C96.0145 158.404 97.2283 157.19 98.7277 157.19Z" fill="#3E3D4A"/>
<path d="M107.392 157.19C108.891 157.19 110.105 158.404 110.105 159.903C110.105 161.403 108.891 162.617 107.392 162.617C105.892 162.617 104.678 161.403 104.678 159.903C104.678 158.404 105.892 157.19 107.392 157.19Z" fill="#3E3D4A"/>
<path d="M116.056 157.19C117.555 157.19 118.769 158.404 118.769 159.903C118.769 161.403 117.555 162.617 116.056 162.617C114.556 162.617 113.343 161.403 113.343 159.903C113.343 158.404 114.556 157.19 116.056 157.19Z" fill="#3E3D4A"/>
<path d="M124.765 157.19C126.264 157.19 127.478 158.404 127.478 159.903C127.478 161.403 126.264 162.617 124.765 162.617C123.266 162.617 122.052 161.403 122.052 159.903C122.052 158.404 123.266 157.19 124.765 157.19Z" fill="#3E3D4A"/>
<path d="M46.6531 165.89C48.1525 165.89 49.3663 167.104 49.3663 168.603C49.3663 170.103 48.1525 171.316 46.6531 171.316C45.1537 171.316 43.9399 170.103 43.9399 168.603C43.9399 167.104 45.1537 165.89 46.6531 165.89Z" fill="#3E3D4A"/>
<path d="M55.3623 165.89C56.8617 165.89 58.0755 167.104 58.0755 168.603C58.0755 170.103 56.8617 171.316 55.3623 171.316C53.8629 171.316 52.6491 170.103 52.6491 168.603C52.6491 167.104 53.8629 165.89 55.3623 165.89Z" fill="#3E3D4A"/>
<path d="M64.0263 165.89C65.5257 165.89 66.7395 167.104 66.7395 168.603C66.7395 170.103 65.5257 171.316 64.0263 171.316C62.5269 171.316 61.3131 170.103 61.3131 168.603C61.3131 167.104 62.5269 165.89 64.0263 165.89Z" fill="#3E3D4A"/>
<path d="M72.6904 165.89C74.1898 165.89 75.4036 167.104 75.4036 168.603C75.4036 170.103 74.1898 171.316 72.6904 171.316C71.191 171.316 69.9772 170.103 69.9772 168.603C69.9772 167.104 71.191 165.89 72.6904 165.89Z" fill="#3E3D4A"/>
<path d="M81.3544 165.89C82.8538 165.89 84.0676 167.104 84.0676 168.603C84.0676 170.103 82.8538 171.316 81.3544 171.316C79.855 171.316 78.6411 170.103 78.6411 168.603C78.6411 167.104 79.855 165.89 81.3544 165.89Z" fill="#3E3D4A"/>
<path d="M90.0635 165.89C91.563 165.89 92.7768 167.104 92.7768 168.603C92.7768 170.103 91.563 171.316 90.0635 171.316C88.5641 171.316 87.3504 170.103 87.3504 168.603C87.3504 167.104 88.5641 165.89 90.0635 165.89Z" fill="#3E3D4A"/>
<path d="M98.7277 165.89C100.227 165.89 101.441 167.104 101.441 168.603C101.441 170.103 100.227 171.316 98.7277 171.316C97.2283 171.316 96.0145 170.103 96.0145 168.603C96.0145 167.104 97.2283 165.89 98.7277 165.89Z" fill="#3E3D4A"/>
<path d="M107.392 165.89C108.891 165.89 110.105 167.104 110.105 168.603C110.105 170.103 108.891 171.316 107.392 171.316C105.892 171.316 104.678 170.103 104.678 168.603C104.678 167.104 105.892 165.89 107.392 165.89Z" fill="#3E3D4A"/>
<path d="M116.056 165.89C117.555 165.89 118.769 167.104 118.769 168.603C118.769 170.103 117.555 171.316 116.056 171.316C114.556 171.316 113.343 170.103 113.343 168.603C113.343 167.104 114.556 165.89 116.056 165.89Z" fill="#3E3D4A"/>
<path d="M46.6531 174.554C48.1525 174.554 49.3663 175.768 49.3663 177.267C49.3663 178.767 48.1525 179.98 46.6531 179.98C45.1537 179.98 43.9399 178.767 43.9399 177.267C43.9399 175.768 45.1537 174.554 46.6531 174.554Z" fill="#3E3D4A"/>
<path d="M55.3623 174.554C56.8617 174.554 58.0755 175.768 58.0755 177.267C58.0755 178.767 56.8617 179.98 55.3623 179.98C53.8629 179.98 52.6491 178.767 52.6491 177.267C52.6491 175.768 53.8629 174.554 55.3623 174.554Z" fill="#3E3D4A"/>
<path d="M64.0263 174.554C65.5257 174.554 66.7395 175.768 66.7395 177.267C66.7395 178.767 65.5257 179.98 64.0263 179.98C62.5269 179.98 61.3131 178.767 61.3131 177.267C61.3131 175.768 62.5269 174.554 64.0263 174.554Z" fill="#3E3D4A"/>
<path d="M72.6904 174.554C74.1898 174.554 75.4036 175.768 75.4036 177.267C75.4036 178.767 74.1898 179.98 72.6904 179.98C71.191 179.98 69.9772 178.767 69.9772 177.267C69.9772 175.768 71.191 174.554 72.6904 174.554Z" fill="#3E3D4A"/>
<path d="M81.3544 174.554C82.8538 174.554 84.0676 175.768 84.0676 177.267C84.0676 178.767 82.8538 179.98 81.3544 179.98C79.855 179.98 78.6411 178.767 78.6411 177.267C78.6411 175.768 79.855 174.554 81.3544 174.554Z" fill="#3E3D4A"/>
<path d="M90.0635 174.554C91.563 174.554 92.7768 175.768 92.7768 177.267C92.7768 178.767 91.563 179.98 90.0635 179.98C88.5641 179.98 87.3504 178.767 87.3504 177.267C87.3504 175.768 88.5641 174.554 90.0635 174.554Z" fill="#3E3D4A"/>
<path d="M98.7277 174.554C100.227 174.554 101.441 175.768 101.441 177.267C101.441 178.767 100.227 179.98 98.7277 179.98C97.2283 179.98 96.0145 178.767 96.0145 177.267C96.0145 175.768 97.2283 174.554 98.7277 174.554Z" fill="#3E3D4A"/>
<path d="M107.392 174.554C108.891 174.554 110.105 175.768 110.105 177.267C110.105 178.767 108.891 179.98 107.392 179.98C105.892 179.98 104.678 178.767 104.678 177.267C104.678 175.768 105.892 174.554 107.392 174.554Z" fill="#3E3D4A"/>
<path d="M37.989 183.254C39.4884 183.254 40.7022 184.468 40.7022 185.967C40.7022 187.466 39.4884 188.68 37.989 188.68C36.4896 188.68 35.2758 187.466 35.2758 185.967C35.2758 184.468 36.4896 183.254 37.989 183.254Z" fill="#3E3D4A"/>
<path d="M46.6531 183.254C48.1525 183.254 49.3663 184.468 49.3663 185.967C49.3663 187.466 48.1525 188.68 46.6531 188.68C45.1537 188.68 43.9399 187.466 43.9399 185.967C43.9399 184.468 45.1537 183.254 46.6531 183.254Z" fill="#3E3D4A"/>
<path d="M55.3623 183.254C56.8617 183.254 58.0755 184.468 58.0755 185.967C58.0755 187.466 56.8617 188.68 55.3623 188.68C53.8629 188.68 52.6491 187.466 52.6491 185.967C52.6491 184.468 53.8629 183.254 55.3623 183.254Z" fill="#3E3D4A"/>
<path d="M64.0263 183.254C65.5257 183.254 66.7395 184.468 66.7395 185.967C66.7395 187.466 65.5257 188.68 64.0263 188.68C62.5269 188.68 61.3131 187.466 61.3131 185.967C61.3131 184.468 62.5269 183.254 64.0263 183.254Z" fill="#3E3D4A"/>
<path d="M72.6904 183.254C74.1898 183.254 75.4036 184.468 75.4036 185.967C75.4036 187.466 74.1898 188.68 72.6904 188.68C71.191 188.68 69.9772 187.466 69.9772 185.967C69.9772 184.468 71.191 183.254 72.6904 183.254Z" fill="#3E3D4A"/>
<path d="M81.3544 183.254C82.8538 183.254 84.0676 184.468 84.0676 185.967C84.0676 187.466 82.8538 188.68 81.3544 188.68C79.855 188.68 78.6411 187.466 78.6411 185.967C78.6411 184.468 79.855 183.254 81.3544 183.254Z" fill="#3E3D4A"/>
<path d="M90.0635 183.254C91.563 183.254 92.7768 184.468 92.7768 185.967C92.7768 187.466 91.563 188.68 90.0635 188.68C88.5641 188.68 87.3504 187.466 87.3504 185.967C87.3504 184.468 88.5641 183.254 90.0635 183.254Z" fill="#3E3D4A"/>
<path d="M98.7277 183.254C100.227 183.254 101.441 184.468 101.441 185.967C101.441 187.466 100.227 188.68 98.7277 188.68C97.2283 188.68 96.0145 187.466 96.0145 185.967C96.0145 184.468 97.2283 183.254 98.7277 183.254Z" fill="#3E3D4A"/>
<path d="M107.392 183.254C108.891 183.254 110.105 184.468 110.105 185.967C110.105 187.466 108.891 188.68 107.392 188.68C105.892 188.68 104.678 187.466 104.678 185.967C104.678 184.468 105.892 183.254 107.392 183.254Z" fill="#3E3D4A"/>
<path d="M37.989 191.963C39.4884 191.963 40.7022 193.177 40.7022 194.676C40.7022 196.176 39.4884 197.389 37.989 197.389C36.4896 197.389 35.2758 196.176 35.2758 194.676C35.2758 193.177 36.4896 191.963 37.989 191.963Z" fill="#3E3D4A"/>
<path d="M46.6531 191.963C48.1525 191.963 49.3663 193.177 49.3663 194.676C49.3663 196.176 48.1525 197.389 46.6531 197.389C45.1537 197.389 43.9399 196.176 43.9399 194.676C43.9399 193.177 45.1537 191.963 46.6531 191.963Z" fill="#3E3D4A"/>
<path d="M55.3623 191.963C56.8617 191.963 58.0755 193.177 58.0755 194.676C58.0755 196.176 56.8617 197.389 55.3623 197.389C53.8629 197.389 52.6491 196.176 52.6491 194.676C52.6491 193.177 53.8629 191.963 55.3623 191.963Z" fill="#3E3D4A"/>
<path d="M64.0263 191.963C65.5257 191.963 66.7395 193.177 66.7395 194.676C66.7395 196.176 65.5257 197.389 64.0263 197.389C62.5269 197.389 61.3131 196.176 61.3131 194.676C61.3131 193.177 62.5269 191.963 64.0263 191.963Z" fill="#3E3D4A"/>
<path d="M72.6904 191.963C74.1898 191.963 75.4036 193.177 75.4036 194.676C75.4036 196.176 74.1898 197.389 72.6904 197.389C71.191 197.389 69.9772 196.176 69.9772 194.676C69.9772 193.177 71.191 191.963 72.6904 191.963Z" fill="#3E3D4A"/>
<path d="M81.3544 191.963C82.8538 191.963 84.0676 193.177 84.0676 194.676C84.0676 196.176 82.8538 197.389 81.3544 197.389C79.855 197.389 78.6411 196.176 78.6411 194.676C78.6411 193.177 79.855 191.963 81.3544 191.963Z" fill="#3E3D4A"/>
<path d="M90.0635 191.963C91.563 191.963 92.7768 193.177 92.7768 194.676C92.7768 196.176 91.563 197.389 90.0635 197.389C88.5641 197.389 87.3504 196.176 87.3504 194.676C87.3504 193.177 88.5641 191.963 90.0635 191.963Z" fill="#3E3D4A"/>
<path d="M37.989 200.627C39.4884 200.627 40.7022 201.841 40.7022 203.34C40.7022 204.84 39.4884 206.053 37.989 206.053C36.4896 206.053 35.2758 204.84 35.2758 203.34C35.2758 201.841 36.4896 200.627 37.989 200.627Z" fill="#3E3D4A"/>
<path d="M46.6531 200.627C48.1525 200.627 49.3663 201.841 49.3663 203.34C49.3663 204.84 48.1525 206.053 46.6531 206.053C45.1537 206.053 43.9399 204.84 43.9399 203.34C43.9399 201.841 45.1537 200.627 46.6531 200.627Z" fill="#3E3D4A"/>
<path d="M55.3623 200.627C56.8617 200.627 58.0755 201.841 58.0755 203.34C58.0755 204.84 56.8617 206.053 55.3623 206.053C53.8629 206.053 52.6491 204.84 52.6491 203.34C52.6491 201.841 53.8629 200.627 55.3623 200.627Z" fill="#3E3D4A"/>
<path d="M64.0263 200.627C65.5257 200.627 66.7395 201.841 66.7395 203.34C66.7395 204.84 65.5257 206.053 64.0263 206.053C62.5269 206.053 61.3131 204.84 61.3131 203.34C61.3131 201.841 62.5269 200.627 64.0263 200.627Z" fill="#3E3D4A"/>
<path d="M72.6904 200.627C74.1898 200.627 75.4036 201.841 75.4036 203.34C75.4036 204.84 74.1898 206.053 72.6904 206.053C71.191 206.053 69.9772 204.84 69.9772 203.34C69.9772 201.841 71.191 200.627 72.6904 200.627Z" fill="#3E3D4A"/>
<path d="M81.3544 200.627C82.8538 200.627 84.0676 201.841 84.0676 203.34C84.0676 204.84 82.8538 206.053 81.3544 206.053C79.855 206.053 78.6411 204.84 78.6411 203.34C78.6411 201.841 79.855 200.627 81.3544 200.627Z" fill="#3E3D4A"/>
<path d="M90.0635 200.627C91.563 200.627 92.7768 201.841 92.7768 203.34C92.7768 204.84 91.563 206.053 90.0635 206.053C88.5641 206.053 87.3504 204.84 87.3504 203.34C87.3504 201.841 88.5641 200.627 90.0635 200.627Z" fill="#3E3D4A"/>
<path d="M37.989 209.327C39.4884 209.327 40.7022 210.541 40.7022 212.04C40.7022 213.539 39.4884 214.753 37.989 214.753C36.4896 214.753 35.2758 213.539 35.2758 212.04C35.2758 210.541 36.4896 209.327 37.989 209.327Z" fill="#3E3D4A"/>
<path d="M46.6531 209.327C48.1525 209.327 49.3663 210.541 49.3663 212.04C49.3663 213.539 48.1525 214.753 46.6531 214.753C45.1537 214.753 43.9399 213.539 43.9399 212.04C43.9399 210.541 45.1537 209.327 46.6531 209.327Z" fill="#3E3D4A"/>
<path d="M55.3623 209.327C56.8617 209.327 58.0755 210.541 58.0755 212.04C58.0755 213.539 56.8617 214.753 55.3623 214.753C53.8629 214.753 52.6491 213.539 52.6491 212.04C52.6491 210.541 53.8629 209.327 55.3623 209.327Z" fill="#3E3D4A"/>
<path d="M64.0263 209.327C65.5257 209.327 66.7395 210.541 66.7395 212.04C66.7395 213.539 65.5257 214.753 64.0263 214.753C62.5269 214.753 61.3131 213.539 61.3131 212.04C61.3131 210.541 62.5269 209.327 64.0263 209.327Z" fill="#3E3D4A"/>
<path d="M72.6904 209.327C74.1898 209.327 75.4036 210.541 75.4036 212.04C75.4036 213.539 74.1898 214.753 72.6904 214.753C71.191 214.753 69.9772 213.539 69.9772 212.04C69.9772 210.541 71.191 209.327 72.6904 209.327Z" fill="#3E3D4A"/>
<path d="M29.325 218.026C30.8244 218.026 32.0382 219.24 32.0382 220.74C32.0382 222.239 30.8244 223.453 29.325 223.453C27.8256 223.453 26.6118 222.239 26.6118 220.74C26.6118 219.24 27.8256 218.026 29.325 218.026Z" fill="#3E3D4A"/>
<path d="M37.989 218.026C39.4884 218.026 40.7022 219.24 40.7022 220.74C40.7022 222.239 39.4884 223.453 37.989 223.453C36.4896 223.453 35.2758 222.239 35.2758 220.74C35.2758 219.24 36.4896 218.026 37.989 218.026Z" fill="#3E3D4A"/>
<path d="M46.6531 218.026C48.1525 218.026 49.3663 219.24 49.3663 220.74C49.3663 222.239 48.1525 223.453 46.6531 223.453C45.1537 223.453 43.9399 222.239 43.9399 220.74C43.9399 219.24 45.1537 218.026 46.6531 218.026Z" fill="#3E3D4A"/>
<path d="M55.3623 218.026C56.8617 218.026 58.0755 219.24 58.0755 220.74C58.0755 222.239 56.8617 223.453 55.3623 223.453C53.8629 223.453 52.6491 222.239 52.6491 220.74C52.6491 219.24 53.8629 218.026 55.3623 218.026Z" fill="#3E3D4A"/>
<path d="M64.0263 218.026C65.5257 218.026 66.7395 219.24 66.7395 220.74C66.7395 222.239 65.5257 223.453 64.0263 223.453C62.5269 223.453 61.3131 222.239 61.3131 220.74C61.3131 219.24 62.5269 218.026 64.0263 218.026Z" fill="#3E3D4A"/>
<path d="M37.989 226.7C39.4884 226.7 40.7022 227.914 40.7022 229.413C40.7022 230.913 39.4884 232.126 37.989 232.126C36.4896 232.126 35.2758 230.913 35.2758 229.413C35.2758 227.914 36.4896 226.7 37.989 226.7Z" fill="#3E3D4A"/>
<path d="M46.6531 226.7C48.1525 226.7 49.3663 227.914 49.3663 229.413C49.3663 230.913 48.1525 232.126 46.6531 232.126C45.1537 232.126 43.9399 230.913 43.9399 229.413C43.9399 227.914 45.1537 226.7 46.6531 226.7Z" fill="#3E3D4A"/>
<path d="M55.3623 226.7C56.8617 226.7 58.0755 227.914 58.0755 229.413C58.0755 230.913 56.8617 232.126 55.3623 232.126C53.8629 232.126 52.6491 230.913 52.6491 229.413C52.6491 227.914 53.8629 226.7 55.3623 226.7Z" fill="#3E3D4A"/>
<path d="M29.325 235.4C30.8244 235.4 32.0382 236.614 32.0382 238.113C32.0382 239.612 30.8244 240.826 29.325 240.826C27.8256 240.826 26.6118 239.612 26.6118 238.113C26.6118 236.614 27.8256 235.4 29.325 235.4Z" fill="#3E3D4A"/>
<path d="M37.989 235.4C39.4884 235.4 40.7022 236.614 40.7022 238.113C40.7022 239.612 39.4884 240.826 37.989 240.826C36.4896 240.826 35.2758 239.612 35.2758 238.113C35.2758 236.614 36.4896 235.4 37.989 235.4Z" fill="#3E3D4A"/>
<path d="M46.6531 235.4C48.1525 235.4 49.3663 236.614 49.3663 238.113C49.3663 239.612 48.1525 240.826 46.6531 240.826C45.1537 240.826 43.9399 239.612 43.9399 238.113C43.9399 236.614 45.1537 235.4 46.6531 235.4Z" fill="#3E3D4A"/>
<path d="M55.3623 235.4C56.8617 235.4 58.0755 236.614 58.0755 238.113C58.0755 239.612 56.8617 240.826 55.3623 240.826C53.8629 240.826 52.6491 239.612 52.6491 238.113C52.6491 236.614 53.8629 235.4 55.3623 235.4Z" fill="#3E3D4A"/>
<path d="M29.325 244.1C30.8244 244.1 32.0382 245.313 32.0382 246.813C32.0382 248.312 30.8244 249.526 29.325 249.526C27.8256 249.526 26.6118 248.312 26.6118 246.813C26.6118 245.313 27.8256 244.1 29.325 244.1Z" fill="#3E3D4A"/>
<path d="M37.989 244.1C39.4884 244.1 40.7022 245.313 40.7022 246.813C40.7022 248.312 39.4884 249.526 37.989 249.526C36.4896 249.526 35.2758 248.312 35.2758 246.813C35.2758 245.313 36.4896 244.1 37.989 244.1Z" fill="#3E3D4A"/>
<path d="M46.6531 244.1C48.1525 244.1 49.3663 245.313 49.3663 246.813C49.3663 248.312 48.1525 249.526 46.6531 249.526C45.1537 249.526 43.9399 248.312 43.9399 246.813C43.9399 245.313 45.1537 244.1 46.6531 244.1Z" fill="#3E3D4A"/>
<path d="M55.3623 244.1C56.8617 244.1 58.0755 245.313 58.0755 246.813C58.0755 248.312 56.8617 249.526 55.3623 249.526C53.8629 249.526 52.6491 248.312 52.6491 246.813C52.6491 245.313 53.8629 244.1 55.3623 244.1Z" fill="#3E3D4A"/>
<path d="M29.325 252.763C30.8244 252.763 32.0382 253.977 32.0382 255.477C32.0382 256.976 30.8244 258.19 29.325 258.19C27.8256 258.19 26.6118 256.976 26.6118 255.477C26.6118 253.977 27.8256 252.763 29.325 252.763Z" fill="#3E3D4A"/>
<path d="M37.989 252.763C39.4884 252.763 40.7022 253.977 40.7022 255.477C40.7022 256.976 39.4884 258.19 37.989 258.19C36.4896 258.19 35.2758 256.976 35.2758 255.477C35.2758 253.977 36.4896 252.763 37.989 252.763Z" fill="#3E3D4A"/>
<path d="M46.6531 252.763C48.1525 252.763 49.3663 253.977 49.3663 255.477C49.3663 256.976 48.1525 258.19 46.6531 258.19C45.1537 258.19 43.9399 256.976 43.9399 255.477C43.9399 253.977 45.1537 252.763 46.6531 252.763Z" fill="#3E3D4A"/>
<path d="M29.325 261.473C30.8244 261.473 32.0382 262.686 32.0382 264.186C32.0382 265.685 30.8244 266.899 29.325 266.899C27.8256 266.899 26.6118 265.685 26.6118 264.186C26.6118 262.686 27.8256 261.473 29.325 261.473Z" fill="#3E3D4A"/>
<path d="M37.989 261.473C39.4884 261.473 40.7022 262.686 40.7022 264.186C40.7022 265.685 39.4884 266.899 37.989 266.899C36.4896 266.899 35.2758 265.685 35.2758 264.186C35.2758 262.686 36.4896 261.473 37.989 261.473Z" fill="#3E3D4A"/>
<path d="M46.6531 261.473C48.1525 261.473 49.3663 262.686 49.3663 264.186C49.3663 265.685 48.1525 266.899 46.6531 266.899C45.1537 266.899 43.9399 265.685 43.9399 264.186C43.9399 262.686 45.1537 261.473 46.6531 261.473Z" fill="#3E3D4A"/>
<path d="M29.325 270.173C30.8244 270.173 32.0382 271.386 32.0382 272.886C32.0382 274.385 30.8244 275.599 29.325 275.599C27.8256 275.599 26.6118 274.385 26.6118 272.886C26.6118 271.386 27.8256 270.173 29.325 270.173Z" fill="#3E3D4A"/>
<path d="M37.989 270.173C39.4884 270.173 40.7022 271.386 40.7022 272.886C40.7022 274.385 39.4884 275.599 37.989 275.599C36.4896 275.599 35.2758 274.385 35.2758 272.886C35.2758 271.386 36.4896 270.173 37.989 270.173Z" fill="#3E3D4A"/>
<path d="M46.6531 270.173C48.1525 270.173 49.3663 271.386 49.3663 272.886C49.3663 274.385 48.1525 275.599 46.6531 275.599C45.1537 275.599 43.9399 274.385 43.9399 272.886C43.9399 271.386 45.1537 270.173 46.6531 270.173Z" fill="#3E3D4A"/>
<path d="M37.989 278.837C39.4884 278.837 40.7022 280.05 40.7022 281.55C40.7022 283.049 39.4884 284.263 37.989 284.263C36.4896 284.263 35.2758 283.049 35.2758 281.55C35.2758 280.05 36.4896 278.837 37.989 278.837Z" fill="#3E3D4A"/>
<path d="M46.6531 278.837C48.1525 278.837 49.3663 280.05 49.3663 281.55C49.3663 283.049 48.1525 284.263 46.6531 284.263C45.1537 284.263 43.9399 283.049 43.9399 281.55C43.9399 280.05 45.1537 278.837 46.6531 278.837Z" fill="#3E3D4A"/>
<path d="M55.3623 278.837C56.8617 278.837 58.0755 280.05 58.0755 281.55C58.0755 283.049 56.8617 284.263 55.3623 284.263C53.8629 284.263 52.6491 283.049 52.6491 281.55C52.6491 280.05 53.8629 278.837 55.3623 278.837Z" fill="#3E3D4A"/>
</svg>
