<svg width="60" height="60" viewBox="0 0 60 60" fill="none" xmlns="http://www.w3.org/2000/svg">
<path d="M28.3314 16.3943C30.8245 15.771 36.2097 15.7838 39.2385 19.8222C41.1083 22.3152 41.4199 24.4967 41.4199 26.6781C43.8349 26.4807 48.7708 27.4633 49.1946 32.973" stroke="#CE1700" stroke-width="2"/>
<path d="M46.9132 21.9134L47.0246 22.5792L47.6838 22.7248C51.3993 23.5457 53.9 25.5685 55.3726 28.2868C56.8605 31.0336 57.3382 34.5694 56.8186 38.429C56.2538 42.6233 54.0238 45.2325 51.3463 46.8227C48.632 48.4348 45.4456 49 43.0916 49H15.1706C14.6501 48.9553 14.1192 48.9208 13.5816 48.8858C11.6927 48.7629 9.72194 48.6347 7.83293 48.0439C5.4851 47.3097 3.35364 45.8733 2.01497 42.7618C-0.525701 36.8565 2.00299 30.9492 6.3594 28.0557L6.94164 27.669L6.77851 26.9893C5.77615 22.8131 7.06009 20.0202 8.56452 18.5543C9.31186 17.8261 10.6553 17.114 12.164 16.7547C13.6767 16.3945 15.1662 16.4329 16.2515 16.9736L17.058 17.3753L17.5413 16.615C19.3383 13.7881 21.7081 11.3115 24.8152 9.89267C27.9031 8.48265 31.8218 8.07005 36.8238 9.54322C39.9289 10.4577 42.1735 12.0231 43.7755 14.0866C45.3867 16.1619 46.3922 18.7985 46.9132 21.9134Z" stroke="#3E3D4A" stroke-width="2"/>
</svg>
