<svg width="164" height="40" viewBox="0 0 164 40" fill="none" xmlns="http://www.w3.org/2000/svg">
<g clip-path="url(#clip0_742_5250)">
<path d="M96.349 15.7835C98.8719 15.7835 101.261 17.3561 101.765 20.754H90.5295C90.9997 17.7723 93.1872 15.7835 96.349 15.7835ZM101.406 25.7812C100.548 27.1442 98.8894 28.1926 96.6186 28.1926C93.4897 28.1926 91.1006 26.4449 90.5295 23.3594H104.626C104.693 22.9172 104.727 22.4702 104.728 22.0226C104.728 17.224 101.436 12.9727 96.3511 12.9727C91.1037 12.9727 87.5375 16.9147 87.5375 21.9891C87.5375 27.1264 91.1386 31.0055 96.5527 31.0055C99.9172 31.0055 102.474 29.4622 103.954 27.1264L101.406 25.7812Z" fill="#3E3D4A"/>
<path fill-rule="evenodd" clip-rule="evenodd" d="M83.2263 5.53516H86.1525V30.5599H83.2263V5.53516Z" fill="#3E3D4A"/>
<path d="M121.011 20.0366V30.5597H118.083V20.2075C118.083 17.3967 116.503 15.8199 113.912 15.8199C111.221 15.8199 109.034 17.4313 109.034 21.4761V30.5597H106.107V13.4221H109.034V15.8901C110.279 13.8677 112.129 12.9766 114.487 12.9766C118.423 12.9766 121.014 15.65 121.014 20.0387" fill="#3E3D4A"/>
<path d="M137.149 21.9891C137.149 18.4926 134.558 15.8527 131.161 15.8527C127.796 15.8527 125.207 18.4926 125.207 21.9891C125.207 25.4856 127.796 28.1255 131.161 28.1255C134.556 28.1255 137.149 25.4856 137.149 21.9891ZM140.075 5.53516V30.5599H137.149V27.6107C135.803 29.7076 133.651 31.0055 130.791 31.0055C126.114 31.0055 122.279 27.0624 122.279 21.9891C122.279 16.9158 126.114 12.9727 130.791 12.9727C133.65 12.9727 135.803 14.2748 137.149 16.3664V5.53516H140.075Z" fill="#3E3D4A"/>
<path fill-rule="evenodd" clip-rule="evenodd" d="M142.436 5.53516H145.362V30.5599H142.436V5.53516Z" fill="#3E3D4A"/>
<path d="M78.0097 21.9891C78.0097 18.4926 75.42 15.8527 72.0215 15.8527C68.658 15.8527 66.0672 18.4926 66.0672 21.9891C66.0672 25.4856 68.658 28.1255 72.0215 28.1255C75.4169 28.1255 78.0097 25.4856 78.0097 21.9891ZM80.937 13.4214V30.5589H78.0097V27.6107C76.6639 29.7076 74.5115 31.0055 71.6521 31.0055C66.9758 31.0055 63.14 27.0624 63.14 21.9891C63.14 16.9158 66.9758 12.9727 71.6521 12.9727C74.5115 12.9727 76.6639 14.2748 78.0097 16.3664V13.4214H80.937Z" fill="#3E3D4A"/>
<path d="M58.7992 27.2607C57.7896 27.6403 56.7219 27.8346 55.6458 27.8346C50.6488 27.8346 46.5369 23.6447 46.5369 18.5529C46.5369 13.4612 50.6488 9.27125 55.6458 9.27125C57.7566 9.27125 59.8032 10.0189 61.4332 11.3855C61.9474 11.8179 62.4126 12.3074 62.8201 12.8449L65.3523 10.9577C63.0339 7.86961 59.4291 6.05469 55.6134 6.05469C48.887 6.05469 43.3519 11.6947 43.3519 18.5487C43.3519 25.4028 48.887 31.0428 55.6134 31.0428C58.3293 31.0428 60.9696 30.1233 63.1175 28.4297L61.4321 25.7143C60.6448 26.3751 59.7549 26.8977 58.7992 27.2607Z" fill="#3E3D4A"/>
<path d="M159.489 13.4219V23.1491C159.489 26.2944 157.693 28.2864 154.952 28.2864C152.211 28.2864 150.226 26.2944 150.226 23.1491V13.4219H147.265V22.8577C147.265 27.802 150.289 31.0123 154.952 31.0123C158.986 31.0123 159.615 28.4122 159.615 28.3472V31.8468C159.615 35.314 158.135 37.2724 155.047 37.2724C152.776 37.2839 150.827 35.56 150.52 33.2675L147.872 34.211C148.65 37.5961 151.64 40.0079 155.052 40.0015C159.841 40.0015 162.46 36.7902 162.46 31.8468V13.4219H159.489Z" fill="#3E3D4A"/>
<path d="M23.6179 23.4064C22.4933 24.4234 21.0889 25.6888 18.5423 25.6888H17.0196C15.1768 25.6888 13.5007 25.0063 12.301 23.7691C11.1291 22.5603 10.484 20.9059 10.484 19.11V16.9869C10.484 15.191 11.1291 13.5365 12.301 12.3277C13.5007 11.0906 15.1768 10.4091 17.0196 10.4091H18.5423C21.092 10.4091 22.4933 11.6735 23.6179 12.6905C24.7857 13.7389 25.793 14.6552 28.4795 14.6552C28.8892 14.6551 29.2983 14.6218 29.7029 14.5556L29.6936 14.5315C29.5327 14.1243 29.344 13.7291 29.1287 13.3489L27.3333 10.1795C25.6875 7.27516 22.6361 5.48036 19.3449 5.48047H15.753C12.4617 5.48036 9.41041 7.27516 7.76458 10.1795L5.96914 13.3489C4.32393 16.2535 4.32393 19.8433 5.96914 22.748L7.76458 25.9174C9.41041 28.8217 12.4617 30.6165 15.753 30.6164H19.3449C22.6361 30.6165 25.6875 28.8217 27.3333 25.9174L29.1287 22.7532C29.344 22.373 29.5327 21.9778 29.6936 21.5706L29.7029 21.5475C29.2985 21.4791 28.8894 21.4441 28.4795 21.4427C25.793 21.4427 24.7857 22.3538 23.6179 23.4074" fill="#3E3D4A"/>
<path d="M18.5423 12.332H17.0195C14.2147 12.332 12.3719 14.3733 12.3719 16.986V19.109C12.3719 21.7217 14.2147 23.763 17.0195 23.763H18.5423C22.6291 23.763 22.3081 19.5169 28.4794 19.5169C29.0642 19.5162 29.6477 19.571 30.2224 19.6804C30.4097 18.6002 30.4097 17.4948 30.2224 16.4146C29.6475 16.5235 29.0642 16.5782 28.4794 16.5781C22.306 16.5781 22.6291 12.332 18.5423 12.332Z" fill="#3E3D4A"/>
<path d="M33.7681 21.2311C32.7172 20.4467 31.5051 19.9158 30.2235 19.6784V19.7098C30.1132 20.3358 29.9408 20.9487 29.709 21.5393C30.7677 21.7063 31.7723 22.128 32.6394 22.7691C32.6394 22.7775 32.6342 22.788 32.6311 22.7974C30.5917 29.5264 24.4453 34.1471 17.5338 34.1471C8.86572 34.1471 1.73295 26.879 1.73295 18.0465C1.73295 9.21395 8.86572 1.94587 17.5338 1.94587C24.4453 1.94587 30.5917 6.56658 32.6311 13.2956C32.6311 13.305 32.6363 13.3155 32.6394 13.3239C31.7724 13.9651 30.7678 14.3863 29.709 14.5526C29.9405 15.1439 30.1129 15.7576 30.2235 16.3842C30.2229 16.394 30.2229 16.4038 30.2235 16.4136C31.505 16.1765 32.7172 15.6459 33.7681 14.8619C34.7785 14.0997 34.583 13.239 34.4297 12.7294C32.1463 5.18319 25.255 0 17.5053 0C7.78959 0 -0.2052 8.14645 -0.2052 18.0465C-0.2052 27.9465 7.78959 36.093 17.5053 36.093C25.255 36.093 32.1463 30.9098 34.4297 23.3636C34.583 22.854 34.7785 21.9933 33.7681 21.2311Z" fill="#3E3D4A"/>
<path d="M29.7029 14.5525C29.2985 14.6209 28.8895 14.656 28.4795 14.6573C25.7931 14.6573 24.7858 13.7462 23.619 12.6926C22.4934 11.6756 21.092 10.4102 18.5424 10.4102H17.0196C15.1758 10.4102 13.5008 11.0927 12.3011 12.3298C11.1291 13.5386 10.484 15.1931 10.484 16.989V19.1121C10.484 20.908 11.1291 22.5624 12.3011 23.7712C13.5008 25.0084 15.1758 25.6899 17.0196 25.6899H18.5424C21.092 25.6899 22.4934 24.4255 23.619 23.4085C24.7858 22.3601 25.7931 21.4438 28.4795 21.4438C28.8892 21.4439 29.2983 21.4772 29.7029 21.5434C29.9351 20.953 30.1075 20.34 30.2174 19.7139C30.218 19.7034 30.218 19.6929 30.2174 19.6824C29.6425 19.5738 29.059 19.5194 28.4744 19.5199C22.301 19.5199 22.624 23.7671 18.5372 23.7671H17.0145C14.2097 23.7671 12.3669 21.7247 12.3669 19.1121V16.9848C12.3669 14.3721 14.2097 12.3309 17.0145 12.3309H18.5372C22.624 12.3309 22.303 16.5759 28.4744 16.5759C29.0591 16.577 29.6426 16.5226 30.2174 16.4134V16.3841C30.1067 15.7574 29.9344 15.1438 29.7029 14.5525Z" fill="white"/>
<path d="M29.7029 14.5525C29.2985 14.6209 28.8895 14.656 28.4795 14.6573C25.7931 14.6573 24.7858 13.7462 23.619 12.6926C22.4934 11.6756 21.092 10.4102 18.5424 10.4102H17.0196C15.1758 10.4102 13.5008 11.0927 12.3011 12.3298C11.1291 13.5386 10.484 15.1931 10.484 16.989V19.1121C10.484 20.908 11.1291 22.5624 12.3011 23.7712C13.5008 25.0084 15.1758 25.6899 17.0196 25.6899H18.5424C21.092 25.6899 22.4934 24.4255 23.619 23.4085C24.7858 22.3601 25.7931 21.4438 28.4795 21.4438C28.8892 21.4439 29.2983 21.4772 29.7029 21.5434C29.9351 20.953 30.1075 20.34 30.2174 19.7139C30.218 19.7034 30.218 19.6929 30.2174 19.6824C29.6425 19.5738 29.059 19.5194 28.4744 19.5199C22.301 19.5199 22.624 23.7671 18.5372 23.7671H17.0145C14.2097 23.7671 12.3669 21.7247 12.3669 19.1121V16.9848C12.3669 14.3721 14.2097 12.3309 17.0145 12.3309H18.5372C22.624 12.3309 22.303 16.5759 28.4744 16.5759C29.0591 16.577 29.6426 16.5226 30.2174 16.4134V16.3841C30.1067 15.7574 29.9344 15.1438 29.7029 14.5525Z" fill="white"/>
</g>
<defs>
<clipPath id="clip0_742_5250">
<rect width="164" height="40" fill="white"/>
</clipPath>
</defs>
</svg>
