<svg width="60" height="60" viewBox="0 0 60 60" fill="none" xmlns="http://www.w3.org/2000/svg">
<path d="M18.5333 13.5897C20.6928 12.0984 23.1707 11.0354 25.8444 10.5234M13.5893 18.5337C12.098 20.6932 11.035 23.1711 10.5231 25.8448M10.5231 33.1559C11.035 35.8296 12.098 38.3075 13.5893 40.467M18.5333 45.411C20.6928 46.9023 23.1707 47.9653 25.8444 48.4773M33.1555 48.4773C35.8292 47.9653 38.3072 46.9023 40.4666 45.411M45.4106 40.467C46.9019 38.3075 47.9649 35.8296 48.4769 33.1559M48.4769 25.8448C47.9649 23.1711 46.9019 20.6932 45.4106 18.5337M40.4666 13.5897C38.3072 12.0984 35.8292 11.0354 33.1555 10.5234" stroke="#3E3D4A" stroke-width="2"/>
<path d="M34.2 11.2222V6H24.8V11.2222" stroke="#3E3D4A" stroke-width="2"/>
<path d="M24.8 47.7778L24.8 53L34.2 53L34.2 47.7778" stroke="#3E3D4A" stroke-width="2"/>
<path d="M45.7478 19.9L49.4405 16.2074L42.7937 9.56055L39.101 13.2532" stroke="#3E3D4A" stroke-width="2"/>
<path d="M13.2522 39.1L9.5595 42.7926L16.2063 49.4395L19.899 45.7468" stroke="#3E3D4A" stroke-width="2"/>
<path d="M19.8992 13.2509L16.2065 9.55827L9.55969 16.2051L13.2524 19.8977" stroke="#3E3D4A" stroke-width="2"/>
<path d="M39.1008 45.7491L42.7935 49.4417L49.4403 42.7949L45.7476 39.1023" stroke="#3E3D4A" stroke-width="2"/>
<path d="M47.7778 34.2008L53 34.2008L53 24.8008L47.7778 24.8008" stroke="#3E3D4A" stroke-width="2"/>
<path d="M11.2222 24.7992L6 24.7992L6 34.1992L11.2222 34.1992" stroke="#3E3D4A" stroke-width="2"/>
<circle cx="29.5" cy="29.5003" r="8.92222" stroke="#CE1700" stroke-width="2"/>
</svg>
