<svg width="430" height="385" viewBox="0 0 430 385" fill="none" xmlns="http://www.w3.org/2000/svg">
<path d="M367 125V92C367 83.1634 359.837 76 351 76H272" stroke="#3E3D4A" stroke-width="2"/>
<path d="M64 125V92C64 83.1634 71.1634 76 80 76H159" stroke="#3E3D4A" stroke-width="2"/>
<path d="M64 237.5V279C64 287.837 71.1634 295 80 295H159" stroke="#3E3D4A" stroke-width="2"/>
<path d="M367 246V279C367 287.837 359.837 295 351 295H272" stroke="#3E3D4A" stroke-width="2"/>
<path d="M373.857 207L367.03 216.019C367.019 216.034 367.031 216.054 367.049 216.051L372.143 215.235L373.844 220.955C373.849 220.972 373.872 220.974 373.88 220.959L379 211.941L384.12 220.959C384.128 220.974 384.151 220.972 384.156 220.955L385.857 215.235L390.947 216.05C390.966 216.053 390.978 216.032 390.966 216.018L384.143 207.824" stroke="#CE1700" stroke-width="2"/>
<path d="M388.148 199.286C388.148 202.394 386.632 205.145 384.303 206.831C382.789 207.927 380.933 208.571 378.926 208.571C376.919 208.571 375.063 207.927 373.549 206.831C371.22 205.145 369.704 202.394 369.704 199.286C369.704 194.152 373.838 190 378.926 190C384.013 190 388.148 194.152 388.148 199.286Z" stroke="#CE1700" stroke-width="2"/>
<path d="M384 138H341C333.268 138 327 144.268 327 152V216C327 223.732 333.268 230 341 230H384C391.732 230 398 223.732 398 216V213.5V152C398 144.268 391.732 138 384 138Z" stroke="#3E3D4A" stroke-width="2"/>
<line x1="339" y1="149" x2="388" y2="149" stroke="#3E3D4A" stroke-width="2"/>
<line x1="339" y1="163" x2="388" y2="163" stroke="#3E3D4A" stroke-width="2"/>
<line x1="339" y1="176" x2="388" y2="176" stroke="#3E3D4A" stroke-width="2"/>
<line x1="339" y1="189" x2="367" y2="189" stroke="#3E3D4A" stroke-width="2"/>
<line x1="339" y1="202" x2="363" y2="202" stroke="#3E3D4A" stroke-width="2"/>
<line x1="339" y1="215" x2="360" y2="215" stroke="#3E3D4A" stroke-width="2"/>
<rect x="27" y="166.795" width="81" height="57.4724" rx="12" stroke="#3E3D4A" stroke-width="2"/>
<path d="M83.5118 166.449V155.012C83.5118 146.169 76.343 139 67.5 139V139C58.6569 139 51.4882 146.169 51.4882 155.012V166.449" stroke="#3E3D4A" stroke-width="2"/>
<mask id="path-16-inside-1_585_6092" fill="white">
<path fill-rule="evenodd" clip-rule="evenodd" d="M70.0325 197.381C72.9373 196.342 75.0157 193.565 75.0157 190.303C75.0157 186.152 71.6508 182.787 67.5 182.787C63.3492 182.787 59.9843 186.152 59.9843 190.303C59.9843 193.441 61.908 196.131 64.6407 197.256V206.396C64.6407 207.885 65.8477 209.092 67.3366 209.092C68.8255 209.092 70.0325 207.885 70.0325 206.396V197.381Z"/>
</mask>
<path d="M70.0325 197.381L69.3587 195.498L68.0325 195.973V197.381H70.0325ZM64.6407 197.256H66.6407V195.916L65.4021 195.406L64.6407 197.256ZM73.0157 190.303C73.0157 192.694 71.4933 194.734 69.3587 195.498L70.7063 199.264C74.3814 197.949 77.0157 194.436 77.0157 190.303H73.0157ZM67.5 184.787C70.5463 184.787 73.0157 187.257 73.0157 190.303H77.0157C77.0157 185.047 72.7554 180.787 67.5 180.787V184.787ZM61.9843 190.303C61.9843 187.257 64.4537 184.787 67.5 184.787V180.787C62.2446 180.787 57.9843 185.047 57.9843 190.303H61.9843ZM65.4021 195.406C63.3928 194.579 61.9843 192.603 61.9843 190.303H57.9843C57.9843 194.28 60.4233 197.682 63.8794 199.105L65.4021 195.406ZM66.6407 206.396V197.256H62.6407V206.396H66.6407ZM67.3366 207.092C66.9523 207.092 66.6407 206.781 66.6407 206.396H62.6407C62.6407 208.99 64.7432 211.092 67.3366 211.092V207.092ZM68.0325 206.396C68.0325 206.781 67.7209 207.092 67.3366 207.092V211.092C69.9301 211.092 72.0325 208.99 72.0325 206.396H68.0325ZM68.0325 197.381V206.396H72.0325V197.381H68.0325Z" fill="#CE1700" mask="url(#path-16-inside-1_585_6092)"/>
<path d="M170 78.3521C170 78.3521 185.608 105.705 216.5 105.705C247.392 105.705 263 78.3521 263 78.3521" stroke="#3E3D4A" stroke-width="2" stroke-linecap="round"/>
<path d="M170 78.3529C170 78.3529 185.608 51 216.5 51C247.392 51 263 78.3529 263 78.3529" stroke="#3E3D4A" stroke-width="2" stroke-linecap="round"/>
<circle cx="216.636" cy="77.9585" r="23.4233" stroke="#3E3D4A" stroke-width="2"/>
<path fill-rule="evenodd" clip-rule="evenodd" d="M216.636 90.5647C223.598 90.5647 229.241 84.921 229.241 77.9591C229.241 70.9972 223.598 65.3535 216.636 65.3535C214.746 65.3535 212.953 65.7694 211.344 66.5146C211.804 66.4353 212.277 66.394 212.759 66.394C217.328 66.394 221.032 70.0977 221.032 74.6665C221.032 79.2352 217.328 82.9389 212.759 82.9389C208.191 82.9389 204.487 79.2352 204.487 74.6665C204.487 74.6387 204.487 74.6111 204.487 74.5834C204.189 75.6578 204.03 76.7899 204.03 77.9591C204.03 84.921 209.674 90.5647 216.636 90.5647Z" fill="#CE1700"/>
<path d="M185 329.5V329.5C185 333.09 187.91 336 191.5 336H246C250.418 336 254 332.418 254 328V328V252C254 248.686 251.314 246 248 246H191C187.686 246 185 248.686 185 252V292.5" stroke="#3E3D4A" stroke-width="2"/>
<path d="M207 311.5C207 321.694 198.517 330 188 330C177.483 330 169 321.694 169 311.5C169 301.306 177.483 293 188 293C198.517 293 207 301.306 207 311.5Z" stroke="#CE1700" stroke-width="2"/>
<path d="M187.626 300V324M193.16 307.869C193.16 303.934 183.242 301.574 182.092 307.869C181.302 312.197 185.793 312.206 187.626 312.59C190.634 313.221 193.16 312.59 193.951 316.131C194.126 316.918 193.94 319.483 191.579 320.459C189.168 321.456 185.65 321.639 182.092 318.885" stroke="#CE1700" stroke-width="2" stroke-linecap="round"/>
<rect x="195" y="259" width="48" height="9" stroke="#3E3D4A" stroke-width="2"/>
<rect x="195" y="279" width="9" height="9" stroke="#3E3D4A" stroke-width="2"/>
<rect x="215" y="279" width="9" height="9" stroke="#3E3D4A" stroke-width="2"/>
<rect x="215" y="316" width="9" height="9" stroke="#3E3D4A" stroke-width="2"/>
<rect x="215" y="298" width="9" height="9" stroke="#3E3D4A" stroke-width="2"/>
<rect x="234" y="279" width="9" height="9" stroke="#3E3D4A" stroke-width="2"/>
<rect x="234" y="298" width="9" height="27" stroke="#3E3D4A" stroke-width="2"/>
</svg>
