<svg width="60" height="60" viewBox="0 0 60 60" fill="none" xmlns="http://www.w3.org/2000/svg">
<path d="M9.79144 30.096C5.90076 26.5944 1.03756 16.6729 10.3753 8.50156C16.2106 2.66614 26.1323 5.58471 30.2176 9.66992" stroke="#CE1700" stroke-width="2"/>
<path d="M50.6439 30.0949C54.7291 26.0097 58.8146 16.7936 52.3961 10.3753C44.2247 1.03756 34.3032 5.90076 30.8016 9.79144L20.4194 20.1737C21.9348 21.5354 25.8994 23.5586 29.6345 20.7573L35.4705 14.9212L50.6439 30.0949ZM50.6439 30.0949C51.2275 31.0676 52.3961 33.0116 50.6439 34.7637C48.8917 36.5159 46.5586 35.3473 45.3914 34.7637M45.3914 34.7637L36.6374 26.0097M45.3914 34.7637C46.3641 35.7364 47.7258 38.2653 45.3914 40.5997C44.2242 41.767 41.8898 41.767 40.7226 40.5997M40.7226 40.5997L31.3849 31.2621M40.7226 40.5997C41.3062 41.3779 41.8898 43.5178 40.139 45.2686C38.9718 46.4358 37.3377 47.1361 35.4701 45.2686M35.4701 45.2686L26.1325 35.9309M35.4701 45.2686C36.2483 46.2412 37.3377 48.6535 35.4701 50.521C33.7193 52.2718 31.6184 51.9216 30.2177 50.521" stroke="#CE1700" stroke-width="2"/>
<circle cx="26.7161" cy="49.9368" r="3.08522" stroke="#CE1700" stroke-width="2"/>
<circle cx="22.0474" cy="44.1008" r="3.08522" stroke="#CE1700" stroke-width="2"/>
<circle cx="16.2112" cy="39.4329" r="3.08522" stroke="#CE1700" stroke-width="2"/>
<circle cx="11.5425" cy="33.5969" r="3.08522" stroke="#CE1700" stroke-width="2"/>
</svg>
