<svg width="638" height="383" viewBox="0 0 638 383" fill="none" xmlns="http://www.w3.org/2000/svg">
<mask id="mask0_932_6663" style="mask-type:alpha" maskUnits="userSpaceOnUse" x="0" y="0" width="638" height="383">
<rect width="638" height="383" fill="#EFEFF0"/>
</mask>
<g mask="url(#mask0_932_6663)">
<rect width="638" height="383" fill="#EFEFF0"/>
<path opacity="0.3" d="M100 332.566C102.202 337.049 108.108 347.519 114.121 353.537C121.637 361.059 181 381.118 202.948 353.537C223.56 327.633 179.033 316.154 164.228 332.566C149.424 348.978 157.297 363.759 210.236 381.118C276.97 403 336.187 420.324 371.946 434C423.116 422.527 504.73 434 544.815 376.559C562.031 351.89 556.598 292.831 532 288.5C507.402 284.169 500.477 304.589 506 313.5C528 349 592.543 305.167 609.5 269.5C624 239 622.656 157.5 616 135" stroke="#CE1700" stroke-dasharray="4.51 4.51"/>
<g opacity="0.3">
<path d="M513.046 5.71875L681.683 77.0713" stroke="#CE1700"/>
<path d="M633.356 -43.2578L561.466 126.65" stroke="#CE1700"/>
<path d="M505.961 47.7969L656.539 111.509" stroke="#CE1700"/>
<path d="M538.19 -28.7266L689.442 35.2699" stroke="#CE1700"/>
<path d="M561.921 125.569C608.378 145.226 661.973 123.5 681.63 77.0426C701.286 30.5857 679.56 -23.0099 633.103 -42.6665C586.646 -62.323 533.051 -40.597 513.394 5.85993C493.738 52.3169 515.464 105.912 561.921 125.569Z" stroke="#CE1700"/>
<path d="M561.921 125.575C592.548 138.534 633.312 111.378 652.968 64.9215C672.625 18.4646 663.731 -29.7016 633.103 -42.6606C602.476 -55.6196 561.712 -28.4642 542.055 17.9927C522.399 64.4497 531.293 112.616 561.921 125.575Z" stroke="#CE1700"/>
<path d="M561.921 125.573C576.546 131.761 604.337 99.1171 623.994 52.6602C643.65 6.20321 647.729 -36.4741 633.103 -42.6624C618.478 -48.8506 590.687 -16.2064 571.03 30.2506C551.374 76.7075 547.295 119.385 561.921 125.573Z" stroke="#CE1700"/>
</g>
<g opacity="0.3">
<path d="M-57.9536 236.719L110.683 308.071" stroke="#CE1700"/>
<path d="M62.3562 187.742L-9.5343 357.65" stroke="#CE1700"/>
<path d="M-65.0392 278.797L85.5392 342.509" stroke="#CE1700"/>
<path d="M-32.8096 202.273L118.442 266.27" stroke="#CE1700"/>
<path d="M-9.07933 356.569C37.3776 376.226 90.9732 354.5 110.63 308.043C130.286 261.586 108.56 207.99 62.1034 188.334C15.6464 168.677 -37.9492 190.403 -57.6057 236.86C-77.2623 283.317 -55.5363 336.912 -9.07933 356.569Z" stroke="#CE1700"/>
<path d="M-9.07929 356.575C21.5485 369.534 62.312 342.378 81.9686 295.922C101.625 249.465 92.7312 201.298 62.1034 188.339C31.4756 175.38 -9.28791 202.536 -28.9445 248.993C-48.601 295.45 -39.7071 343.616 -9.07929 356.575Z" stroke="#CE1700"/>
<path d="M-9.0793 356.573C5.54619 362.761 33.3373 330.117 52.9938 283.66C72.6504 237.203 76.7289 194.526 62.1034 188.338C47.4779 182.149 19.6868 214.794 0.0302634 261.251C-19.6263 307.707 -23.7048 350.385 -9.0793 356.573Z" stroke="#CE1700"/>
</g>
</g>
</svg>
