<svg width="798" height="383" viewBox="0 0 798 383" fill="none" xmlns="http://www.w3.org/2000/svg">
<mask id="mask0_932_6378" style="mask-type:alpha" maskUnits="userSpaceOnUse" x="0" y="0" width="798" height="383">
<rect width="798" height="383" fill="#EFEFF0"/>
</mask>
<g mask="url(#mask0_932_6378)">
<rect width="798" height="383" fill="#EFEFF0"/>
<path opacity="0.3" d="M85.4194 291.182C88.5326 297.516 96.8845 312.309 105.387 320.811C116.014 331.439 185.2 398.155 230.987 320.811C254.819 280.555 197.172 267.995 176.238 291.182C155.305 314.37 166.437 335.254 241.293 359.78C335.655 390.697 419.389 415.173 469.951 434.496C542.306 418.286 657.708 434.496 714.389 353.339C738.732 318.484 732.424 281.521 697.643 275.402C662.861 269.283 652.194 302.686 658.03 316.303C667.692 338.846 727.916 344.508 772.681 311.15C804.564 287.391 815.729 220.009 793.614 215.5" stroke="#CE1700" stroke-dasharray="4.51 4.51"/>
<g opacity="0.3">
<path d="M674.109 95.7188L842.746 167.071" stroke="#CE1700"/>
<path d="M794.419 46.7422L722.529 216.65" stroke="#CE1700"/>
<path d="M667.024 137.797L817.602 201.509" stroke="#CE1700"/>
<path d="M699.253 61.2734L850.505 125.27" stroke="#CE1700"/>
<path d="M722.984 215.569C769.44 235.226 823.036 213.5 842.693 167.043C862.349 120.586 840.623 66.9901 794.166 47.3335C747.709 27.677 694.114 49.403 674.457 95.8599C654.801 142.317 676.527 195.912 722.984 215.569Z" stroke="#CE1700"/>
<path d="M722.984 215.575C753.611 228.534 794.375 201.378 814.031 154.922C833.688 108.465 824.794 60.2984 794.166 47.3394C763.538 34.3804 722.775 61.5358 703.118 107.993C683.462 154.45 692.356 202.616 722.984 215.575Z" stroke="#CE1700"/>
<path d="M722.984 215.573C737.609 221.761 765.4 189.117 785.057 142.66C804.713 96.2032 808.792 53.5259 794.166 47.3376C779.541 41.1494 751.75 73.7936 732.093 120.251C712.437 166.707 708.358 209.385 722.984 215.573Z" stroke="#CE1700"/>
</g>
<g opacity="0.3">
<path d="M-94.9539 234.844L73.6831 306.196" stroke="#CE1700"/>
<path d="M25.356 185.867L-46.5345 355.775" stroke="#CE1700"/>
<path d="M-102.039 276.922L48.539 340.634" stroke="#CE1700"/>
<path d="M-69.8098 200.398L81.4415 264.395" stroke="#CE1700"/>
<path d="M-46.0795 354.694C0.377397 374.351 53.973 352.625 73.6295 306.168C93.2861 259.711 71.5601 206.115 25.1032 186.459C-21.3538 166.802 -74.9494 188.528 -94.6059 234.985C-114.262 281.442 -92.5365 335.037 -46.0795 354.694Z" stroke="#CE1700"/>
<path d="M-46.0795 354.7C-15.4517 367.659 25.3118 340.503 44.9684 294.047C64.6249 247.59 55.731 199.423 25.1032 186.464C-5.5246 173.505 -46.2881 200.661 -65.9447 247.118C-85.6012 293.575 -76.7073 341.741 -46.0795 354.7Z" stroke="#CE1700"/>
<path d="M-46.0795 354.698C-31.454 360.886 -3.66292 328.242 15.9936 281.785C35.6502 235.328 39.7287 192.651 25.1032 186.463C10.4777 180.274 -17.3134 212.919 -36.97 259.376C-56.6265 305.832 -60.705 348.51 -46.0795 354.698Z" stroke="#CE1700"/>
</g>
</g>
</svg>
