<svg width="430" height="385" viewBox="0 0 430 385" fill="none" xmlns="http://www.w3.org/2000/svg">
<path d="M81 142V109C81 100.163 88.1634 93 97 93H320C328.837 93 336 100.163 336 109V142" stroke="#3E3D4A" stroke-width="2"/>
<path d="M380.322 205.957V228.187" stroke="#CE1700" stroke-width="2"/>
<path d="M339.646 266.025C367.335 266.025 389.781 243.578 389.781 215.889C389.781 204.94 386.271 194.811 380.315 186.565C371.209 173.958 356.385 165.754 339.646 165.754" stroke="#CE1700" stroke-width="2"/>
<path d="M321.87 183.913C319.277 181.448 318.189 177.994 318.635 174.701C318.927 172.546 319.875 170.461 321.487 168.765C325.565 164.476 332.347 164.304 336.636 168.382L336.636 262.242" stroke="#3E3D4A" stroke-width="2"/>
<path d="M292.721 217.184C289.28 216.206 286.81 213.307 285.825 209.651C285.181 207.259 285.172 204.543 285.943 201.829C287.532 196.233 291.944 192.372 296.605 192.013" stroke="#3E3D4A" stroke-width="2"/>
<path d="M297.079 239.169C292.418 238.81 288.006 234.949 286.417 229.353C285.646 226.639 285.655 223.923 286.299 221.532C286.908 219.269 288.086 217.297 289.711 215.891" stroke="#3E3D4A" stroke-width="2"/>
<path d="M306.917 254.676C308.161 259.216 312.317 262.553 317.252 262.553C319.592 262.553 321.757 261.803 323.519 260.53C324.792 259.611 325.854 258.419 326.621 257.041" stroke="#3E3D4A" stroke-width="2"/>
<path d="M336.807 261.297C335.862 265.39 331.509 265.39 329.169 265.39C326.005 265.39 323.161 264.018 321.199 261.836" stroke="#3E3D4A" stroke-width="2"/>
<path d="M295.464 239.541C293.221 245.017 295.841 251.274 301.317 253.518C303.483 254.405 305.77 254.531 307.884 254.021C311.115 253.242 313.938 250.975 315.294 247.664" stroke="#3E3D4A" stroke-width="2"/>
<path d="M312.987 178.813C308.698 174.735 301.916 174.907 297.839 179.195C296.226 180.891 295.278 182.977 294.987 185.131C294.541 188.425 295.629 191.879 298.221 194.344" stroke="#3E3D4A" stroke-width="2"/>
<path d="M308.762 190.766C304.827 188.97 300.193 190.679 298.411 194.583C297.707 196.126 297.554 197.782 297.87 199.331C298.353 201.699 299.931 203.817 302.31 204.902" stroke="#3E3D4A" stroke-width="2"/>
<path d="M327.348 196.209C322.664 194.127 317.345 195.863 315.468 200.086C314.726 201.756 314.633 203.565 315.082 205.271" stroke="#3E3D4A" stroke-width="2"/>
<path d="M320.595 207.026C317.801 205.019 314.068 205.434 312.259 207.953C311.543 208.949 311.235 210.125 311.297 211.307C311.392 213.114 312.352 214.935 314.041 216.148" stroke="#3E3D4A" stroke-width="2"/>
<path d="M319.752 170.426C318.297 167.848 314.749 167.096 311.827 168.745C310.672 169.397 309.788 170.327 309.23 171.373C308.379 172.971 308.292 174.84 309.172 176.398" stroke="#3E3D4A" stroke-width="2"/>
<path d="M321.976 233.728C323.014 230.448 321.323 226.988 318.2 226.001C316.966 225.61 315.692 225.665 314.539 226.077C312.776 226.706 311.295 228.169 310.668 230.152" stroke="#3E3D4A" stroke-width="2"/>
<path d="M328.583 230.797C324.474 230.402 320.837 233.253 320.461 237.166C320.312 238.713 320.696 240.194 321.468 241.444C322.648 243.355 324.737 244.726 327.222 244.965" stroke="#3E3D4A" stroke-width="2"/>
<path d="M297.954 230.159C295.069 232.033 294.353 236.05 296.354 239.13C297.145 240.348 298.243 241.237 299.459 241.751C301.319 242.537 303.456 242.446 305.2 241.312" stroke="#3E3D4A" stroke-width="2"/>
<circle cx="359.037" cy="186.093" r="4.20273" stroke="#CE1700" stroke-width="2"/>
<circle cx="355.727" cy="245.218" r="3.72976" stroke="#CE1700" stroke-width="2"/>
<path d="M346.74 177.109V197.92" stroke="#CE1700" stroke-width="2"/>
<path d="M343.429 231.023V251.834" stroke="#CE1700" stroke-width="2"/>
<path d="M342.483 204.541H359.037V190.352" stroke="#CE1700" stroke-width="2"/>
<path d="M342.483 222.515H355.727V240.961" stroke="#CE1700" stroke-width="2"/>
<path d="M360.456 222.514H371.808V230.555" stroke="#CE1700" stroke-width="2"/>
<path d="M342.483 213.055H371.808V201.703" stroke="#CE1700" stroke-width="2"/>
<circle cx="371.808" cy="197.917" r="3.72976" stroke="#CE1700" stroke-width="2"/>
<circle cx="371.808" cy="234.812" r="3.72976" stroke="#CE1700" stroke-width="2"/>
<path d="M100.872 167.504V219.679L130.636 193.416V219.679L159.35 193.416V260.999H56.0505V167.504" stroke="#3E3D4A" stroke-width="2"/>
<path d="M100.923 166.104C100.923 166.986 100.466 167.936 99.4028 168.911C98.3389 169.887 96.7442 170.812 94.6891 171.61C90.5855 173.202 84.8484 174.209 78.4613 174.209C72.0742 174.209 66.3371 173.202 62.2334 171.61C60.1784 170.812 58.5836 169.887 57.5198 168.911C56.4566 167.936 56 166.986 56 166.104C56 165.223 56.4566 164.273 57.5198 163.297C58.5836 162.321 60.1784 161.396 62.2334 160.599C66.3371 159.006 72.0742 158 78.4613 158C84.8484 158 90.5855 159.006 94.6891 160.599C96.7442 161.396 98.3389 162.321 99.4028 163.297C100.466 164.273 100.923 165.223 100.923 166.104Z" stroke="#CE1700" stroke-width="2"/>
<rect x="96.0203" y="235.836" width="14.6061" height="14.6061" stroke="#CE1700" stroke-width="2"/>
<rect x="115.63" y="235.836" width="14.6061" height="14.6061" stroke="#CE1700" stroke-width="2"/>
<rect x="135.239" y="235.836" width="14.6061" height="14.6061" stroke="#CE1700" stroke-width="2"/>
</svg>
