<svg width="391" height="294" viewBox="0 0 391 294" fill="none" xmlns="http://www.w3.org/2000/svg">
<path d="M46.4258 124.5C50.4258 123.5 59.0661 123.521 63.9258 130C66.9258 134 67.4258 137.5 67.4258 141" stroke="#CE1700" stroke-width="2"/>
<path d="M66.4258 141.311C69.0924 140.664 74.8527 140.677 78.0924 144.874C80.0924 147.465 80.4258 149.733 80.4258 152" stroke="#CE1700" stroke-width="2"/>
<path d="M76.3099 134.836L76.3867 135.295L76.7874 135.532C85.9527 140.949 93.856 149.258 92.2055 161.516C91.2717 168.451 87.5688 172.789 83.1351 175.422C78.6646 178.077 73.4386 179 69.5822 179H24.758C23.9412 178.93 23.0987 178.875 22.2389 178.819C19.1968 178.622 15.9374 178.41 12.8305 177.439C8.92358 176.217 5.3494 173.805 3.12094 168.626C0.48481 162.498 0.527561 157.637 2.03975 153.742C3.56282 149.819 6.63224 146.732 10.3122 144.288L10.8945 143.901L10.7313 143.221C9.07658 136.327 11.1868 131.624 13.7629 129.114C15.0587 127.851 17.3214 126.666 19.82 126.071C22.3223 125.475 24.8721 125.515 26.7877 126.469L27.5942 126.871L28.0775 126.111C31.0014 121.511 34.8836 117.439 40.0072 115.1C45.1116 112.769 51.551 112.11 59.6965 114.509C64.79 116.009 68.5025 118.589 71.1569 122.008C73.8204 125.438 75.4626 129.772 76.3099 134.836Z" stroke="#3E3D4A" stroke-width="2"/>
<path d="M203 292.5C213.667 287.944 237 273.6 237 258.667C237 243.733 237 222.889 237 214.333L203 202" stroke="#3E3D4A" stroke-width="2"/>
<path d="M203 292.5C192.333 287.944 168 273.6 168 258.667C168 243.733 168 222.889 168 214.333L203 202" stroke="#3E3D4A" stroke-width="2"/>
<path d="M190 241.345L198.667 255L216 233" stroke="#CE1700" stroke-width="2"/>
<path d="M49 193V226C49 234.837 56.1634 242 65 242H150.5" stroke="#3E3D4A" stroke-width="2"/>
<path d="M49 101V68C49 59.1634 56.1634 52 65 52H231" stroke="#3E3D4A" stroke-width="2"/>
<path d="M248 242.5L303.5 242.5" stroke="#3E3D4A" stroke-width="2"/>
<path d="M315 41.5V14C315 6.8203 309.18 1 302 1H259C251.82 1 246 6.8203 246 14V78C246 85.1797 251.82 91 259 91H302C309.18 91 315 85.1797 315 78V75.5" stroke="#3E3D4A" stroke-width="2"/>
<circle cx="291" cy="40" r="16" stroke="#3E3D4A" stroke-width="2"/>
<line x1="302.707" y1="51.2929" x2="320.707" y2="69.2929" stroke="#3E3D4A" stroke-width="2"/>
<path d="M283 39.5L288.5 48.5L299.5 34" stroke="#CE1700" stroke-width="2"/>
<line x1="257" y1="11" x2="302" y2="11" stroke="#3E3D4A" stroke-width="2"/>
<line x1="257" y1="25" x2="271" y2="25" stroke="#3E3D4A" stroke-width="2"/>
<line x1="257" y1="39" x2="267" y2="39" stroke="#3E3D4A" stroke-width="2"/>
<line x1="257" y1="53" x2="271" y2="53" stroke="#3E3D4A" stroke-width="2"/>
<line x1="257" y1="64" x2="297" y2="64" stroke="#3E3D4A" stroke-width="2"/>
<line x1="257" y1="77" x2="302" y2="77" stroke="#3E3D4A" stroke-width="2"/>
<circle cx="352.5" cy="244.5" r="37.5" stroke="#3E3D4A" stroke-width="2"/>
<line x1="352" y1="243" x2="352" y2="219" stroke="#CE1700" stroke-width="2"/>
<line x1="352.788" y1="242.384" x2="370.788" y2="265.384" stroke="#CE1700" stroke-width="2"/>
<line x1="353" y1="206" x2="353" y2="211" stroke="#3E3D4A" stroke-width="2"/>
<line x1="352" y1="282" x2="352" y2="277" stroke="#3E3D4A" stroke-width="2"/>
<line x1="390.5" y1="244.5" x2="385.5" y2="244.5" stroke="#3E3D4A" stroke-width="2"/>
<line x1="314.5" y1="243.5" x2="319.5" y2="243.5" stroke="#3E3D4A" stroke-width="2"/>
<line x1="371.933" y1="211.341" x2="369.433" y2="215.671" stroke="#3E3D4A" stroke-width="2"/>
<line x1="333.067" y1="276.659" x2="335.567" y2="272.329" stroke="#3E3D4A" stroke-width="2"/>
<line x1="385.659" y1="225.433" x2="381.329" y2="227.933" stroke="#3E3D4A" stroke-width="2"/>
<line x1="319.341" y1="262.567" x2="323.671" y2="260.067" stroke="#3E3D4A" stroke-width="2"/>
<line x1="385.159" y1="263.433" x2="380.829" y2="260.933" stroke="#3E3D4A" stroke-width="2"/>
<line x1="319.841" y1="224.567" x2="324.171" y2="227.067" stroke="#3E3D4A" stroke-width="2"/>
<line x1="371.067" y1="277.159" x2="368.567" y2="272.829" stroke="#3E3D4A" stroke-width="2"/>
<line x1="333.933" y1="210.841" x2="336.433" y2="215.171" stroke="#3E3D4A" stroke-width="2"/>
</svg>
