<svg width="60" height="60" viewBox="0 0 60 60" fill="none" xmlns="http://www.w3.org/2000/svg">
<path d="M44.0817 24.9893H49.5919M44.0817 31.1117H49.5919M44.0817 36.6219H49.5919M44.0817 42.7444H49.5919M44.0817 48.8668H49.5919" stroke="#CE1700" stroke-width="2"/>
<path d="M0 54.3772H6.73469M60 54.3772H53.2653M53.2653 54.3772V14.5813L41.0204 19.4792M53.2653 54.3772H41.0204M41.0204 19.4792V54.3772M41.0204 19.4792V6.62207H16.5306V22.5404M41.0204 54.3772H16.5306M16.5306 54.3772V22.5404M16.5306 54.3772H6.73469M16.5306 22.5404L6.73469 26.8262V54.3772M9.79592 48.2547H13.4694M9.79592 42.1323H13.4694M9.79592 36.6221H13.4694M13.4694 30.4996H9.79592" stroke="#CE1700" stroke-width="2"/>
<path d="M20.8163 48.2543H26.9387M26.9387 42.7441H20.8163M20.8163 36.6217H26.9387M26.9387 30.4992H20.8163M20.8163 24.3768H26.9387M26.9387 18.8666H20.8163M20.8163 12.7441H26.9387" stroke="#CE1700" stroke-width="2"/>
<path d="M31.2245 48.2543H37.3469M37.3469 42.7441H31.2245M31.2245 36.6217H37.3469M37.3469 30.4992H31.2245M31.2245 24.3768H37.3469M37.3469 18.8666H31.2245M31.2245 12.7441H37.3469" stroke="#CE1700" stroke-width="2"/>
</svg>
