<svg width="60" height="60" viewBox="0 0 60 60" fill="none" xmlns="http://www.w3.org/2000/svg">
<path d="M28.3314 16.3933C30.8245 15.77 36.2097 15.7828 39.2385 19.8212C41.1083 22.3143 41.4199 24.4957 41.4199 26.6771C43.8349 26.4797 48.7708 27.4623 49.1946 32.972" stroke="#CE1700" stroke-width="2"/>
<path d="M46.9132 21.9124L47.0246 22.5782L47.6838 22.7238C51.3993 23.5447 53.9 25.5675 55.3726 28.2859C56.8605 31.0327 57.3382 34.5684 56.8186 38.4281C56.2538 42.6224 54.0238 45.2315 51.3463 46.8218C48.632 48.4338 45.4456 48.999 43.0916 48.999H15.1706C14.6501 48.9544 14.1192 48.9198 13.5816 48.8848C11.6927 48.7619 9.72194 48.6337 7.83293 48.043C5.4851 47.3087 3.35364 45.8723 2.01497 42.7608C-0.525701 36.8555 2.00299 30.9483 6.3594 28.0547L6.94164 27.668L6.77851 26.9884C5.77615 22.8121 7.06009 20.0192 8.56452 18.5533C9.31186 17.8252 10.6553 17.113 12.164 16.7537C13.6767 16.3935 15.1662 16.4319 16.2515 16.9726L17.058 17.3743L17.5413 16.614C19.3383 13.7872 21.7081 11.3105 24.8152 9.89169C27.9031 8.48167 31.8218 8.06907 36.8238 9.54225C39.9289 10.4567 42.1735 12.0222 43.7755 14.0856C45.3867 16.1609 46.3922 18.7975 46.9132 21.9124Z" stroke="#CE1700" stroke-width="2"/>
</svg>
