<svg width="60" height="60" viewBox="0 0 60 60" fill="none" xmlns="http://www.w3.org/2000/svg">
<path d="M17.3529 24.7377V10.5246M17.3529 24.7377L5 31.8443M17.3529 24.7377L29.7059 31.8443M17.3529 10.5246L29.7059 3L42.0588 10.5246M17.3529 10.5246L29.7059 17.6311M42.0588 10.5246V24.7377M42.0588 10.5246L29.7059 17.6311M42.0588 24.7377L54 31.8443M42.0588 24.7377L29.7059 31.8443M54 31.8443L42.0588 39.3689M54 31.8443V46.0574L42.0588 54M42.0588 39.3689L29.7059 31.8443M42.0588 39.3689V54M29.7059 31.8443L17.3529 39.3689M29.7059 31.8443V46.0574M29.7059 31.8443V17.6311M17.3529 39.3689V54M17.3529 39.3689L5 31.8443M17.3529 54L5 46.0574V31.8443M17.3529 54L29.7059 46.0574M29.7059 46.0574L42.0588 54" stroke="#3E3D4A" stroke-width="2"/>
<path d="M29.5 32V17.7589M29.5 32L41.7449 24.75L42 10.5089M29.5 32L17 24.75V10.5089M29.5 17.7589L42 10.5089M29.5 17.7589L17 10.5089M42 10.5089L29.5 3L17 10.5089" stroke="#CE1700" stroke-width="2"/>
</svg>
