<svg width="200" height="41" viewBox="0 0 200 41" fill="none" xmlns="http://www.w3.org/2000/svg">
<path d="M148.96 24.2721H147.374C147.186 23.581 146.926 22.9226 146.601 22.3053L147.718 21.1397C148.102 20.7344 148.101 20.0819 147.718 19.6778L145.624 17.4931C145.242 17.0901 144.617 17.0901 144.231 17.4931L143.112 18.661C142.525 18.3189 141.894 18.0483 141.233 17.8515V16.1951C141.233 15.627 140.789 15.1631 140.246 15.1631H137.289C136.742 15.1631 136.301 15.627 136.301 16.1951V17.8515C135.641 18.0471 135.006 18.3189 134.422 18.661L133.303 17.4931C132.921 17.0901 132.294 17.0889 131.911 17.4931L129.815 19.6778C129.431 20.0819 129.431 20.7344 129.815 21.1397L130.933 22.3053C130.608 22.9215 130.346 23.581 130.161 24.2721H128.576C128.029 24.2721 127.587 24.7325 127.587 25.3018V28.3932C127.587 28.9625 128.029 29.4241 128.576 29.4241H130.161C130.346 30.1164 130.608 30.7771 130.933 31.3909L129.816 32.5576C129.431 32.9618 129.431 33.6131 129.816 34.0137L131.911 36.2031C132.293 36.6061 132.919 36.6061 133.303 36.2031L134.421 35.0329C135.005 35.3784 135.641 35.6443 136.3 35.8447V37.4987C136.3 38.0704 136.741 38.5296 137.288 38.5296H140.244C140.788 38.5296 141.232 38.0704 141.232 37.4987V35.8447C141.891 35.6443 142.524 35.3784 143.111 35.0329L144.23 36.2031C144.616 36.6061 145.241 36.6061 145.622 36.2031L147.717 34.0172C148.101 33.6131 148.1 32.9618 147.717 32.5576L146.599 31.3909C146.925 30.7735 147.185 30.1164 147.373 29.4241H148.959C149.502 29.4241 149.942 28.9625 149.942 28.3932V25.3018C149.943 24.7313 149.503 24.2721 148.96 24.2721ZM138.766 32.1722C135.951 32.1722 133.669 29.7884 133.669 26.8469C133.669 23.9066 135.95 21.5204 138.766 21.5204C141.582 21.5204 143.863 23.9066 143.863 26.8469C143.862 29.7884 141.581 32.1722 138.766 32.1722Z" fill="#888888"/>
<path d="M151.654 13.2785L152.345 11.5284C152.471 11.2039 152.322 10.8349 152.012 10.6955L151.111 10.2996C151.158 9.87201 151.151 9.43506 151.104 8.99578L151.999 8.61389C152.31 8.48621 152.457 8.11369 152.327 7.79155L151.621 6.02972C151.49 5.70524 151.133 5.54944 150.826 5.67829L149.923 6.05784C149.657 5.71109 149.364 5.39481 149.036 5.12772L149.405 4.19175C149.53 3.87195 149.382 3.49826 149.071 3.36121L147.383 2.61735C147.075 2.47912 146.718 2.62789 146.593 2.95121L146.225 3.88601C145.812 3.83329 145.395 3.82861 144.974 3.87429L144.595 2.93364C144.464 2.60681 144.109 2.45101 143.8 2.57869L142.119 3.28858C141.807 3.42212 141.663 3.78878 141.793 4.11209L142.173 5.05626C141.842 5.32921 141.546 5.63261 141.289 5.96998L140.389 5.57169C140.076 5.43464 139.722 5.58341 139.598 5.90789L138.901 7.65566C138.778 7.97663 138.928 8.34798 139.235 8.48503L140.139 8.88449C140.095 9.31324 140.099 9.74901 140.146 10.1883L139.245 10.5678C138.937 10.6979 138.792 11.068 138.922 11.3937L139.628 13.1555C139.757 13.4788 140.115 13.637 140.423 13.5058L141.323 13.1251C141.588 13.473 141.885 13.7881 142.214 14.0587L141.842 14.9911C141.721 15.3133 141.866 15.6882 142.175 15.824L143.865 16.5679C144.175 16.7026 144.527 16.5538 144.656 16.234L145.024 15.2981C145.437 15.3508 145.855 15.3566 146.275 15.3098L146.653 16.2516C146.783 16.5761 147.137 16.7354 147.449 16.6042L149.13 15.8955C149.438 15.7655 149.583 15.3965 149.453 15.0708L149.075 14.1266C149.405 13.856 149.704 13.5503 149.958 13.2153L150.861 13.6136C151.172 13.7471 151.528 13.5995 151.654 13.2785ZM146.837 12.6249C145.242 13.3008 143.4 12.4913 142.73 10.8138C142.061 9.13869 142.811 7.23278 144.409 6.55921C146.008 5.87978 147.849 6.69041 148.518 8.37023C149.187 10.0454 148.44 11.9525 146.837 12.6249Z" fill="#484848"/>
<path d="M40.4585 22.4178C40.4585 21.7126 39.7111 21.708 39.7111 21.708H29.1753C29.1753 21.708 28.7254 21.708 28.504 21.9305C28.2838 22.1519 28.2955 22.4776 28.2955 22.4776L28.3107 26.0106C28.3107 26.0106 28.3119 26.1617 28.4911 26.362C28.6739 26.5659 29.1495 26.5706 29.1495 26.5706H33.2987C33.2987 26.5706 33.615 26.5834 33.82 26.7638C34.0015 26.922 33.9664 27.2348 33.9664 27.2348L33.9676 27.6869C33.9676 29.2742 33.4088 30.5886 32.2913 31.6229C31.1749 32.662 29.6122 33.1809 27.6067 33.1809C24.8831 33.1809 22.9069 32.3059 21.6758 30.5546C20.4153 28.7752 19.7839 26.0212 19.7839 22.2866C19.7839 18.8989 20.4563 16.2714 21.8058 14.4053C23.1213 12.5685 25.1432 11.6501 27.8633 11.6501C29.9261 11.6501 31.4326 12.1948 32.3768 13.2819C33.2284 14.2694 33.7825 15.6013 34.0414 17.28C34.0613 17.4065 34.0519 17.4311 34.1562 17.5494C34.2663 17.6665 34.5591 17.6232 34.5591 17.6232L39.8645 17.1042C39.8645 17.1042 40.011 17.0972 40.1199 16.9672C40.2289 16.836 40.1902 16.6333 40.1797 16.5291C39.8774 12.9375 38.7048 10.5126 36.5951 8.81521C34.4209 7.06744 31.5439 6.19238 27.9699 6.19238C23.1073 6.19238 19.3891 7.68127 16.812 10.6637C14.2395 13.6427 12.9521 17.6829 12.9521 22.7833C12.9521 27.5674 14.0252 31.35 16.1747 34.1286C17.5254 35.8963 19.3446 37.1064 21.6301 37.7636C23.2033 38.286 25.0483 38.5836 27.1815 38.525C29.9507 38.4442 32.4728 37.7284 34.4877 36.591C35.4951 35.9467 35.4787 36.8288 35.4787 36.8288L35.5912 37.4848C35.5912 37.4848 35.6052 37.6933 35.7505 37.7999C35.8887 37.903 36.1394 37.9112 36.1394 37.9112L39.9501 37.924C39.9501 37.924 40.4596 37.9732 40.4491 37.3875C40.4795 36.9026 40.4643 25.9884 40.4573 22.6627C40.4585 22.5725 40.4585 22.4893 40.4585 22.4178Z" fill="#484848"/>
<path d="M52.7072 15.1924C49.4987 15.1924 46.863 16.1799 44.7989 18.1596C42.7384 20.1358 41.7075 23.0445 41.7075 26.8832C41.7075 28.5174 41.8914 29.9782 42.2651 31.2656C42.6646 32.6104 43.2655 33.8474 44.0703 34.9614C44.8716 36.0778 46.002 36.9528 47.4663 37.5842C48.8966 38.2145 51.1305 38.5284 52.6651 38.5284C55.2516 38.5284 57.4222 37.8701 59.0259 36.6377C60.4117 35.5928 61.3629 34.2293 61.883 32.5459C61.9205 32.4182 61.8209 32.7134 61.9931 32.1558C62.1653 31.5959 61.9791 31.5678 61.6769 31.5022C61.3746 31.4331 57.4152 30.4608 57.4152 30.4608C57.4152 30.4608 57.3168 30.4397 57.0134 30.3636C56.7112 30.2862 56.6022 30.5428 56.5694 30.6763C56.3527 31.4905 55.9954 32.1476 55.5034 32.6432C54.9575 33.1867 54.1387 33.4561 53.0516 33.4561C51.5627 33.4561 50.4581 33.0719 49.7412 32.2976C49.1941 31.7283 48.8368 30.8802 48.6799 29.7497C48.6517 29.5705 48.6857 29.8704 48.6166 29.191C48.5475 28.5092 49.0969 28.4307 49.0969 28.4307H49.7295H60.9084C60.9084 28.4307 60.7034 28.4389 61.4929 28.4307C62.2825 28.4225 62.2075 28.289 62.2438 28.0406C62.2766 27.7864 62.334 26.4932 62.334 25.5092C62.334 22.2116 61.5457 19.6766 59.9701 17.8996C58.3664 16.0956 55.9451 15.1924 52.7072 15.1924ZM55.2094 24.3448C54.947 24.3588 54.5499 24.3612 54.5499 24.3612L49.8888 24.3237C49.8888 24.3237 49.0969 24.3366 48.8907 24.3073C48.6845 24.278 48.6377 24.0742 48.6459 23.9629C48.7408 22.6298 49.0934 21.6388 49.7013 20.9851C50.3878 20.2764 51.2476 19.9214 52.2785 19.9214C54.3789 19.9214 55.4671 21.2944 55.5409 24.0367C55.5421 24.1362 55.473 24.3354 55.2094 24.3448Z" fill="#484848"/>
<path d="M99.1272 15.5934C98.3575 15.563 97.739 15.6895 97.1428 15.823C95.4044 16.2155 93.8932 17.1772 92.6093 18.7094C92.3715 18.9929 91.7448 20.0964 91.6722 17.7536C91.6722 16.3455 91.6242 16.0901 89.703 16.0936C87.9588 16.096 87.4328 16.0936 87.4328 16.0936C87.4328 16.0936 85.9064 16.1604 85.9041 17.5122C85.9029 18.8664 85.9041 19.7403 85.9041 19.7403C85.9041 19.7403 85.9205 34.314 85.9111 36.2961C85.9252 38.4832 86.0681 38.5183 87.523 38.5183C88.8783 38.5183 89.3821 38.5452 90.7269 38.5136C92.518 38.4703 92.395 38.4492 92.395 36.2856C92.395 34.6748 92.395 33.4249 92.395 33.4249C92.395 33.4249 92.4032 26.3858 92.395 25.3245C92.3868 24.2655 92.8284 23.5802 93.4083 23.2886C93.789 23.0601 94.1919 22.861 94.6172 22.6923C95.1443 22.4814 95.7031 22.3139 96.2982 22.1933C96.8019 22.0878 98.217 21.9332 99.2127 21.7598C100.208 21.5865 100.108 20.6025 100.108 20.6025L100.137 18.3311C100.137 18.3311 100.136 18.3604 100.152 17.1725C100.167 15.9859 100.181 15.5934 99.1272 15.5934Z" fill="#484848"/>
<path d="M125.115 7.41615C123.935 7.41615 122.136 7.41615 120.892 7.41615C119.646 7.41615 119.657 7.51572 119.657 8.66372C119.657 9.81172 119.657 16.572 119.657 18.2788C119.657 19.9867 119.696 20.05 117.637 20.05C115.578 20.05 111.37 20.05 109.608 20.05C107.836 20.05 107.781 20.0781 107.781 18.1347C107.781 16.1878 107.781 11.1659 107.781 9.29512C107.781 7.42669 107.716 7.41732 106.206 7.41732C104.699 7.41732 104.723 7.41732 102.957 7.41732C101.188 7.41732 101.166 7.53095 101.166 9.48957C101.166 11.4494 101.166 34.885 101.166 36.7323C101.146 38.4168 101.133 38.5305 102.567 38.5305C103.999 38.5305 104.652 38.5305 106.205 38.5305C107.763 38.5305 107.781 38.5047 107.781 37.0709C107.781 35.6382 107.781 29.0372 107.781 27.4569C107.781 25.8767 107.791 25.7677 109.608 25.7677C111.417 25.7677 116.036 25.7677 117.833 25.7677C119.626 25.7677 119.657 25.7443 119.657 27.6034C119.657 29.4648 119.657 35.5398 119.657 37.024C119.657 38.5094 119.724 38.5305 121.28 38.5305C122.835 38.5305 123.427 38.5305 124.871 38.5305C126.317 38.5305 126.317 38.5375 126.317 36.9279C126.317 35.3149 126.317 10.2428 126.317 8.81015C126.318 7.37397 126.297 7.41615 125.115 7.41615Z" fill="#888888"/>
<path d="M166.619 25.8089C165.786 25.3509 164.988 25.01 164.214 24.7792C163.467 24.5777 162.481 24.3633 161.247 24.1326C159.613 23.8479 158.452 23.5445 157.767 23.2317C157.08 22.9424 156.734 22.4258 156.734 21.6831C156.734 20.3653 157.68 19.7069 159.572 19.7069C160.691 19.7069 161.535 19.9635 162.108 20.4789C162.491 20.842 162.818 21.3364 163.089 21.9549C163.201 22.2149 163.481 22.7632 164.217 22.5429C164.952 22.3204 167.009 21.7593 167.917 21.3774C168.827 20.9955 168.512 20.4637 168.386 20.1532C167.111 17.0536 164.513 15.4066 160.591 15.2133C160.328 15.1993 159.176 15.1618 158.818 15.1875C156.635 15.3398 154.779 15.9595 153.253 17.0431C151.476 18.3024 150.588 20.1075 150.588 22.4551C150.588 23.7472 150.804 24.8366 151.234 25.7222C151.664 26.6101 152.326 27.313 153.211 27.8284C154.071 28.3169 154.887 28.6742 155.662 28.9026C156.378 29.1311 157.364 29.3466 158.626 29.5481C160.145 29.8316 161.237 30.1209 161.893 30.4056C162.497 30.6656 162.796 31.1799 162.796 31.953C162.796 33.3576 161.724 34.0616 159.573 34.0616C158.17 34.0616 157.153 33.7594 156.523 33.1561C156.069 32.7449 155.705 32.226 155.429 31.5969C155.303 31.3099 155.062 30.6972 154.153 30.9749C153.243 31.2537 151.664 31.7316 150.683 32.1006C149.703 32.4731 149.753 32.5083 150.139 33.5684C150.523 34.6309 151.52 36.0647 152.781 36.8965C154.385 37.9871 156.577 38.5294 159.355 38.5294C162.221 38.5294 164.587 37.8875 166.446 36.5989C168.28 35.3092 169.199 33.4314 169.199 30.9667C169.199 29.7062 168.983 28.6473 168.555 27.7863C168.126 26.9569 167.479 26.2962 166.619 25.8089Z" fill="#888888"/>
<path d="M185.634 33.1063C185.532 32.3683 184.999 32.5827 184.747 32.6998C183.792 33.1473 182.793 33.3687 181.753 33.3687C180.777 33.3687 180.091 33.1274 179.689 32.6389C179.318 32.1773 179.132 31.4171 179.132 30.3534C179.132 30.3534 179.132 21.6614 179.132 21.0043C179.132 20.3483 179.258 20.3061 179.931 20.3061C180.606 20.3061 183.441 20.3061 184.239 20.3061C185.033 20.3061 185.062 20.2545 185.062 19.5482C185.062 18.8406 185.062 17.0577 185.062 16.3431C185.062 15.6297 185.058 15.5817 184.171 15.5817C183.287 15.5817 180.632 15.5817 179.9 15.5817C179.169 15.5817 179.132 15.5876 179.132 14.7898C179.132 13.9933 179.161 10.1756 179.132 9.1576C179.102 8.13845 179.048 8.12205 178.09 8.24037C177.133 8.35634 174.347 8.68668 173.519 8.84717C172.692 9.00297 172.644 9.0264 172.644 9.96705C172.644 10.9042 172.644 14.101 172.644 14.8215C172.644 15.5454 172.471 15.5817 171.806 15.5817C171.142 15.5817 170.855 15.5817 170.059 15.5817C169.258 15.5817 169.288 15.7024 169.288 16.3701C169.288 16.8187 169.288 18.4494 169.288 19.4685C169.288 19.9593 169.581 20.3073 169.982 20.3073C170.61 20.3073 171.503 20.3073 171.934 20.3073C172.646 20.3073 172.644 20.4654 172.644 21.0394C172.644 21.6099 172.644 31.225 172.644 31.225C172.644 33.7752 173.242 35.6237 174.444 36.7693C175.677 37.9443 177.455 38.5288 179.776 38.5288C181.092 38.5288 182.354 38.3578 183.558 38.0146C184.366 37.7873 185.041 37.5565 185.58 37.3164C185.858 37.1934 186.284 37.0095 186.169 36.1567C186.056 35.2992 185.736 33.8443 185.634 33.1063Z" fill="#888888"/>
<path d="M84.9282 35.0918C84.9282 35.0918 84.9306 34.6877 84.9036 34.3972C84.8755 34.1031 84.8017 34.0188 83.9841 34.1055C83.813 34.1324 83.6666 34.1488 83.5366 34.1488C82.993 34.1488 82.6357 34.0188 82.4647 33.7599C82.2937 33.5022 82.2093 33.0582 82.2093 32.4327L82.2937 23.0601C82.2937 20.3119 81.5627 18.3052 80.1043 17.0389C78.6107 15.7808 76.3499 15.1494 73.3123 15.1494C68.0257 15.1494 64.9167 17.1561 63.9925 21.1553C63.9433 21.3838 64.0276 21.8722 64.5407 21.9894C65.0514 22.1065 65.5048 22.1768 65.5048 22.1768L67.2561 22.5435C67.2561 22.5435 68.0585 22.7098 68.6266 22.7871C69.1983 22.8644 69.449 22.4744 69.5052 22.2705C69.7137 21.5185 70.0066 20.9527 70.3908 20.5673C70.8488 20.1092 71.6185 19.8832 72.7044 19.8832C74.0257 19.8832 74.8891 20.2088 75.2862 20.8707C75.6915 21.5302 75.8907 22.5564 75.8907 23.9621C75.8907 23.9621 75.9516 24.4716 75.5919 24.6462C75.2311 24.8172 75.0566 24.7809 74.8165 24.7856C66.9644 24.9332 63.0413 27.5431 63.0413 32.6037C63.0413 33.2632 63.1256 33.8934 63.299 34.4885C63.4677 35.1176 63.7722 35.7478 64.1986 36.3862C64.6274 37.0411 65.3185 37.5588 66.2685 37.9302C67.2361 38.3273 68.3713 38.5276 69.6622 38.5276C71.9863 38.5276 73.8524 37.9466 75.2511 36.774C75.5158 36.5538 75.5615 36.5221 75.7969 36.2632C76.3346 35.6658 76.4916 36.2468 76.6193 36.5081C77.2823 37.8248 78.7161 38.489 80.9173 38.489C82.0512 38.489 83.0949 38.3355 84.045 38.0239C84.3882 37.9138 85.043 37.7498 85.0173 37.0364C84.9927 36.3242 84.9798 36.2023 84.9798 36.2023L84.9282 35.0918ZM75.8907 31.6994C75.8883 32.708 75.5029 32.831 75.2932 32.9844C74.4217 33.6182 73.3744 33.9309 72.1479 33.9309C70.3978 33.9309 69.5275 33.1156 69.5275 31.4815C69.5275 30.4284 69.9867 29.6833 70.9027 29.2464C71.8504 28.7895 73.6029 28.5224 74.8563 28.5154C76.1097 28.5096 75.8696 28.8668 75.8883 29.2464C75.9117 29.6248 75.893 30.6943 75.8907 31.6994Z" fill="#484848"/>
</svg>
