<svg width="130" height="29" viewBox="0 0 130 29" fill="none" xmlns="http://www.w3.org/2000/svg">
<g clip-path="url(#clip0_581_5400)">
<path d="M71.8 18.5993C71.8 24.3993 67.6 28.8993 62 28.9993C56.3 28.9993 52 24.5993 52 18.6993C52 12.8993 56.3 8.29925 61.8 8.29925C67.4 8.09925 71.8 12.6993 71.8 18.5993ZM66.7 18.5993C66.7 15.3993 64.8 12.9992 62.1 12.8993C59.7 12.7993 57.7 14.5993 57.2 17.1993C56.6 20.3993 58 23.1993 60.5 23.9993C63.8 25.0993 66.7 22.4993 66.7 18.5993Z" fill="#403F68"/>
<path d="M112.1 22.0993C113.6 22.0993 114.8 22.0993 116.5 22.0993C116.9 22.0993 116.8 21.9993 117.5 22.6993C119.1 24.2993 121.6 24.8993 123.6 23.8993C124.1 23.6993 124.7 22.9993 124.7 22.5993C124.7 21.6993 124 21.2993 123.5 21.1993C122 20.6993 120.4 20.5993 118.9 20.1993C117.7 19.8993 116.5 19.5993 115.4 19.0993C112.5 17.6993 111.6 14.3993 113.4 11.6993C115.3 8.79925 118.3 8.19926 121.5 8.29926C124.7 8.49926 127.6 9.59926 128.9 12.2993C129.1 12.6993 129.3 13.7993 129.3 14.3993C127.5 14.3993 126.5 14.3993 125.2 14.3993C124.7 14.3993 124.5 14.3993 124.3 14.3993C124.2 14.2993 124.3 14.2993 123.5 13.5993C122.2 12.4993 119 12.5993 118.1 13.5993C117.9 13.7993 117.7 13.9993 117.7 14.3993C117.7 14.9993 118.1 15.2993 118.5 15.3993C119.7 15.7993 121 15.9993 122.3 16.2993C123.7 16.6993 125.2 16.8993 126.5 17.4993C129.9 18.8993 131 22.5993 128.9 25.5993C126.5 29.0993 122.9 29.3993 119.2 28.8993C115.7 28.3993 113.1 26.5993 112.1 22.8993C112.1 22.5993 112.1 22.3993 112.1 22.0993Z" fill="#403F68"/>
<path d="M25.7 22.0996C27.2 22.0996 28.4 22.0996 30.1 22.0996C30.5 22.0996 30.4 21.9996 31.1 22.6996C32.7 24.2996 35.2 24.8996 37.2 23.8996C37.7 23.6996 38.2999 22.9996 38.2999 22.5996C38.2999 21.6996 37.5999 21.2996 37.0999 21.1996C35.5999 20.6996 34 20.5996 32.5 20.1996C31.3 19.8996 30.1 19.5996 29 19.0996C26.1 17.6996 25.2 14.3996 27 11.6996C28.9 8.69959 31.9999 7.99959 35.0999 8.19959C38.2999 8.39959 41.2 9.49959 42.5 12.1996C42.7 12.5996 42.9 13.6996 42.9 14.2996C41.1 14.2996 40.0999 14.2996 38.7999 14.2996C38.2999 14.2996 38.1 14.2996 37.9 14.2996C37.8 14.1996 37.8999 14.1996 37.0999 13.4996C35.7999 12.3996 32.6 12.4996 31.7 13.4996C31.5 13.6996 31.2999 13.8996 31.2999 14.2996C31.2999 14.8996 31.6999 15.1996 32.0999 15.2996C33.2999 15.6996 34.6 15.8996 35.9 16.1996C37.3 16.5996 38.7999 16.7996 40.0999 17.3996C43.4999 18.7996 44.6 22.4996 42.5 25.4996C40.1 28.9996 36.4999 29.2996 32.7999 28.7996C29.2999 28.2996 26.7 26.4996 25.7 22.7996C25.7 22.5996 25.7 22.3996 25.7 22.0996Z" fill="#403F68"/>
<path d="M12.3 28.5008H7.20005C7.20005 26.3008 7.20005 24.2008 7.20005 22.1008C7.20005 20.0008 7.10005 18.0008 7.30005 15.9008C7.90005 11.0008 11.4 8.00082 16.3 8.20082C21.2 8.30082 24.5 11.4008 24.8 16.4008C25 20.4008 24.8 24.3008 24.8 28.4008H19.7C19.7 28.0008 19.7 27.5008 19.7 27.1008C19.7 23.9008 19.7 20.7008 19.7 17.5008C19.7 14.6008 18.5 13.2008 16 13.2008C13.6 13.2008 12.2 14.7008 12.2 17.4008C12.3 21.1008 12.3 24.7008 12.3 28.5008Z" fill="#403F68"/>
<path d="M93.2 8.80078H98.3C98.3 12.1008 98.3 15.4008 98.3 18.6008C98.3 19.2008 98.3 19.8008 98.3 20.4008C98.4 22.8008 99.7 24.1008 101.9 24.1008C104.1 24.1008 105.7 22.6008 105.7 20.3008C105.8 16.9008 105.7 13.6008 105.7 10.2008C105.7 9.80078 105.7 9.40078 105.7 8.80078H110.7C110.7 9.10078 110.7 9.40078 110.7 9.70078C110.7 13.2008 110.8 16.8008 110.7 20.3008C110.6 25.7008 107.1 29.0008 101.7 28.9008C96.6 28.9008 93.3 25.5008 93.2 20.2008C93.1 16.5008 93.2 12.7008 93.2 8.80078Z" fill="#403F68"/>
<path d="M92.1999 15.2992C90.5999 15.2992 89.2999 15.2992 87.6999 15.2992C87.2999 15.2992 87.1999 15.2992 86.3999 14.4992C84.0999 12.0992 80.6999 12.3992 78.8999 15.0992C77.4999 17.2992 77.4999 20.1992 79.0999 22.2992C80.8999 24.5992 84.0999 25.0992 85.9999 22.9992C86.9999 21.8992 87.0999 21.7992 89.1999 21.7992C90.2999 21.7992 91.0999 21.7992 92.0999 21.7992C91.7999 25.9992 87.5999 28.9992 82.2999 28.8992C77.1999 28.7992 72.9999 24.5992 72.6999 19.2992C72.4999 13.3992 76.2999 8.79919 81.9999 8.19919C86.7999 7.59919 91.3999 10.6992 92.1999 15.2992Z" fill="#403F68"/>
<path d="M49.6001 8.29962H53.0001V12.7996H49.6001V28.4996H44.5001C44.5001 28.0996 44.5001 27.5996 44.5001 27.1996C44.5001 21.0996 44.4001 14.8996 44.6001 8.79962C44.6001 7.09962 45.1001 5.19962 45.8001 3.69962C47.0001 0.799624 50.0001 -0.500376 53.2001 0.199624V4.59962C50.2001 5.19962 49.7001 5.59962 49.6001 8.29962Z" fill="#403F68"/>
<path d="M0 28.5V12.1L5 9.5V28.5H0Z" fill="#403F68"/>
<path d="M0 8.70078V3.30078L5 6.00078L0 8.70078Z" fill="#80C4AF"/>
</g>
<defs>
<clipPath id="clip0_581_5400">
<rect width="130" height="29" fill="white"/>
</clipPath>
</defs>
</svg>
