<svg width="145" height="31" viewBox="0 0 145 31" fill="none" xmlns="http://www.w3.org/2000/svg">
<path d="M60.5804 6.47009C57.9704 6.47009 55.0021 7.6934 53.1885 10.1425L53.1898 10.1375L53.1885 10.1388L53.1898 6.8547H46.9648V29.7749H53.1885V16.733C53.1885 14.3856 54.9886 11.8906 58.3214 11.8906C60.897 11.8906 63.5622 13.702 63.5622 16.733V29.7749H69.7871V15.5667C69.7871 10.2951 66.0568 6.47009 60.5804 6.47009Z" fill="#D6D7DB"/>
<path d="M114.029 6.85571L108.402 22.4684L102.774 6.85571H95.6633L104.99 29.7685H111.812L121.138 6.85571H114.029Z" fill="#D6D7DB"/>
<path d="M28.3815 13.7604C29.4417 12.3213 31.1302 11.4764 33.1695 11.4764C35.4126 11.4764 37.1146 12.7716 37.9944 14.6835L27.1189 19.2455C26.8219 16.9043 27.4146 15.0731 28.3815 13.7604ZM40.3405 22.728C37.7207 24.6883 36.2237 25.156 33.8346 25.156C31.6848 25.156 30.0013 24.4811 28.8147 23.2975L44.7285 16.6227C44.3813 14.1351 43.4475 11.9131 42.0106 10.2233C39.9196 7.76798 36.825 6.46899 33.0567 6.46899C26.2121 6.46899 21.051 11.5744 21.051 18.3174C21.051 25.2354 26.2243 30.1646 33.7426 30.1646C37.9551 30.1646 42.2621 28.1461 44.277 25.7875L40.3405 22.728Z" fill="#D6D7DB"/>
<path d="M20.4577 23.9959H6.30958V0H0V29.775H20.4577V23.9959Z" fill="#D6D7DB"/>
<path d="M132.316 11.8623C128.84 11.8623 126.316 14.5261 126.316 18.3151C126.316 21.9329 128.989 24.7678 132.399 24.7678C135.877 24.7678 138.4 22.0309 138.4 18.3151C138.4 14.6973 135.727 11.8623 132.316 11.8623ZM132.316 30.1611C125.508 30.1611 120.174 25.0333 120.174 18.3151C120.174 11.6725 125.545 6.46912 132.399 6.46912C139.207 6.46912 144.54 11.5968 144.54 18.3151C144.54 24.9564 139.17 30.1611 132.316 30.1611Z" fill="#D6D7DB"/>
<path d="M84.3906 11.8625C80.9143 11.8625 78.3915 14.5262 78.3915 18.3152C78.3915 21.933 81.064 24.768 84.4753 24.768C87.9516 24.768 90.4744 22.031 90.4744 18.3152C90.4744 14.6974 87.8019 11.8625 84.3906 11.8625ZM84.3906 30.1612C77.5828 30.1612 72.25 25.0335 72.25 18.3152C72.25 11.6726 77.6196 6.46924 84.4753 6.46924C91.2818 6.46924 96.6159 11.5969 96.6159 18.3152C96.6159 24.9565 91.245 30.1612 84.3906 30.1612Z" fill="#D6D7DB"/>
</svg>
