<svg width="18" height="18" viewBox="0 0 18 18" fill="none" xmlns="http://www.w3.org/2000/svg">
<path d="M2.38039 0C1.06617 0 0 1.06905 0 2.37711C0 3.68518 1.07052 4.75423 2.38039 4.75423C3.69461 4.75423 4.76078 3.68518 4.76078 2.37711C4.76078 1.06905 3.69461 0 2.38039 0ZM2.38039 3.88943C1.54486 3.88943 0.870343 3.21149 0.870343 2.38146C0.870343 1.55142 1.54921 0.873491 2.38039 0.873491C3.21157 0.873491 3.89043 1.55142 3.89043 2.38146C3.89043 3.21149 3.21157 3.88943 2.38039 3.88943ZM0.134903 17.9957H4.62152V5.61468H0.134903V17.9957ZM1.00525 6.48382H3.75118V17.1265H1.00525V6.48382ZM15.9664 6.06229C14.291 4.97151 12.0281 5.1888 10.3484 6.49686L10.3571 6.05794C10.3571 5.94061 10.3136 5.82762 10.2309 5.74505C10.1482 5.66248 10.0351 5.61468 9.92191 5.61468H6.30564C6.06629 5.61468 5.87047 5.81024 5.87047 6.04925V17.5611C5.87047 17.8001 6.06629 17.9957 6.30564 17.9957H9.92191C10.1613 17.9957 10.3571 17.8001 10.3571 17.5611V10.9903C10.3484 10.1299 11.0447 9.41284 11.9019 9.39981C11.9106 9.39981 11.9194 9.39981 11.9281 9.39981C12.7592 9.39981 13.4599 10.069 13.499 10.886L13.5121 17.5654C13.5121 17.8044 13.7079 18 13.9473 18H17.5635C17.8029 18 17.9987 17.8044 17.9987 17.5654V10.2646C18.0074 10.069 18.0292 7.40946 15.9664 6.06229ZM17.1327 10.2429C17.1327 10.2472 17.1327 10.2516 17.1327 10.2559V17.1265H14.3868L14.3737 10.8643C14.3128 9.55191 13.2162 8.52197 11.8932 8.52632C10.5573 8.54804 9.48239 9.6562 9.49545 10.9903V17.1265H6.74951V6.48382H9.48674L9.46498 7.51376C9.46063 7.69628 9.57378 7.86142 9.74349 7.92661C9.91321 7.99179 10.109 7.94399 10.2309 7.80493C11.6234 6.21439 13.9385 5.76243 15.5008 6.78368C17.1849 7.89184 17.1327 10.1473 17.1327 10.2429Z" fill="#3E3D4A"/>
</svg>
