<svg width="201" height="51" viewBox="0 0 201 51" fill="none" xmlns="http://www.w3.org/2000/svg">
<g clip-path="url(#clip0_686_5419)">
<path d="M1.116 41.442V47.763H0.005V41.442H1.116ZM10.839 41.442H11.931V47.763H11.002L7.515 43.263V47.763H6.423V41.442H7.452L10.839 45.812V41.442ZM21.622 41.442H22.822L20.194 47.808H19.218L16.591 41.442H17.819L19.726 46.3L21.622 41.442ZM32.17 42.435H28.594V44.079H31.763V45.072H28.593V46.772H32.215V47.765H27.483V41.442H32.17V42.435ZM39.548 44.1C40.885 44.425 41.58 44.9 41.58 45.96C41.58 47.152 40.65 47.86 39.322 47.86C38.3476 47.8643 37.4068 47.5036 36.685 46.849L37.353 46.049C37.8896 46.5694 38.6056 46.8636 39.353 46.871C40.04 46.871 40.474 46.555 40.474 46.071C40.474 45.61 40.221 45.366 39.046 45.095C37.701 44.77 36.946 44.373 36.946 43.195C36.9561 42.9285 37.0214 42.6669 37.1376 42.4269C37.2539 42.1868 37.4187 41.9735 37.6216 41.8003C37.8244 41.6271 38.061 41.4979 38.3163 41.4207C38.5716 41.3436 38.8402 41.3202 39.105 41.352C39.9407 41.3362 40.7544 41.62 41.399 42.152L40.799 42.992C40.3133 42.5938 39.7106 42.3655 39.083 42.342C38.432 42.342 38.053 42.676 38.053 43.1C38.049 43.591 38.338 43.808 39.548 44.1ZM49.004 47.766H47.884V42.471H45.879V41.442H51.008V42.471H49.008L49.004 47.766ZM58.863 46.21H58.827L56.849 43.248V47.763H55.763V41.442H56.946L58.863 44.431L60.787 41.442H61.97V47.763H60.863V43.23L58.863 46.21ZM71.863 42.435H68.284V44.079H71.454V45.072H68.284V46.772H71.906V47.765H67.174V41.442H71.863V42.435ZM81.22 41.442H82.313V47.763H81.382L77.897 43.263V47.763H76.801V41.442H77.83L81.217 45.812L81.22 41.442ZM90.187 47.763H89.063V42.471H87.063V41.442H92.193V42.471H90.193L90.187 47.763ZM107.287 47.763L105.735 45.563H104.344V47.763H103.233V41.442H106.051C107.504 41.442 108.398 42.209 108.398 43.447C108.414 43.8939 108.272 44.3322 107.996 44.6842C107.72 45.0361 107.329 45.2791 106.891 45.37L108.597 47.763H107.287ZM105.96 42.453H104.344V44.575H105.963C106.763 44.575 107.263 44.16 107.263 43.51C107.263 42.814 106.774 42.453 105.952 42.453H105.96ZM118.025 42.435H114.449V44.079H117.619V45.072H114.449V46.772H118.063V47.765H113.332V41.442H118.018L118.025 42.435ZM129.016 47.763H127.842L127.2 46.237H124.212L123.561 47.763H122.423L125.205 41.397H126.234L129.016 47.763ZM125.701 42.724L124.618 45.253H126.794L125.701 42.724ZM133.675 41.442H134.786V46.752H138.11V47.763H133.663L133.675 41.442ZM153.814 42.435H150.238V44.079H153.408V45.072H150.238V46.772H153.86V47.765H149.127V41.442H153.814V42.435ZM161.193 44.097C162.529 44.422 163.225 44.897 163.225 45.957C163.225 47.149 162.295 47.857 160.967 47.857C159.993 47.8613 159.052 47.5006 158.33 46.846L158.998 46.046C159.534 46.5667 160.251 46.8611 160.998 46.868C161.684 46.868 162.118 46.552 162.118 46.068C162.118 45.607 161.865 45.363 160.691 45.092C159.346 44.767 158.586 44.37 158.586 43.192C158.596 42.9255 158.661 42.6639 158.778 42.4239C158.894 42.1838 159.059 41.9705 159.262 41.7973C159.464 41.6241 159.701 41.4949 159.956 41.4177C160.212 41.3406 160.48 41.3172 160.745 41.349C161.581 41.3332 162.394 41.617 163.039 42.149L162.439 42.989C161.953 42.5906 161.351 42.3623 160.723 42.339C160.073 42.339 159.693 42.673 159.693 43.097C159.685 43.591 159.975 43.808 161.185 44.1L161.193 44.097ZM170.648 47.763H169.528V42.471H167.528V41.442H172.658V42.471H170.658L170.648 47.763ZM182.641 47.763H181.463L180.822 46.237H177.833L177.182 47.763H176.044L178.826 41.397H179.856L182.641 47.763ZM179.327 42.724L178.243 45.253H180.419L179.327 42.724ZM189.161 47.763H188.042V42.471H186.042V41.442H191.163V42.471H189.163L189.161 47.763ZM200.605 42.435H197.027V44.079H200.197V45.072H197.027V46.772H200.605V47.765H195.916V41.442H200.605V42.435ZM106.106 32.364C102.491 32.4076 99.0049 31.0222 96.406 28.509L97.577 27.166C98.693 28.3249 100.036 29.2411 101.523 29.8571C103.009 30.4731 104.606 30.7757 106.215 30.746C109.829 30.746 112.307 28.715 112.307 25.962V25.893C112.307 23.346 110.965 21.866 105.492 20.765C99.705 19.6 97.363 17.633 97.363 13.984V13.915C97.363 10.336 100.633 7.583 105.107 7.583C108.13 7.48293 111.08 8.52752 113.367 10.508L112.234 11.92C110.272 10.1238 107.694 9.15041 105.034 9.201C101.489 9.201 99.15 11.231 99.15 13.744V13.812C99.15 16.359 100.457 17.912 106.171 19.078C111.746 20.214 114.087 22.21 114.087 25.721V25.79C114.092 29.679 110.753 32.364 106.106 32.364ZM126.206 9.579V32.019H124.417V9.579H116.017V7.927H134.602V9.579H126.206ZM152.048 32.019L148.985 25.274H134.768L131.706 32.019H129.848L141.063 7.755H142.784L154.003 32.019H152.048ZM141.896 9.719L135.529 23.659H148.229L141.896 9.719ZM174.622 32.019V20.73H159.201V32.019H157.411V7.927H159.201V19.078H174.62V7.927H176.411V32.019H174.622ZM195.789 32.019V30.388H186.993C183.104 30.388 181.632 26.718 181.632 24.923V7.923H179.832V24.923C179.815 25.8644 179.989 26.7995 180.343 27.6719C180.698 28.5443 181.225 29.3358 181.894 29.9988C182.562 30.6617 183.358 31.1823 184.234 31.5292C185.109 31.8761 186.046 32.042 186.987 32.017L195.789 32.019ZM0 3L0.006 25.878C-0.016481 27.3389 0.257166 28.7893 0.810438 30.1416C1.36371 31.4939 2.18515 32.7202 3.2252 33.7464C4.26526 34.7726 5.50239 35.5776 6.86199 36.1127C8.22159 36.6478 9.67549 36.902 11.136 36.86L13.361 36.879H200.597V3H0ZM22.687 32.02H16.549H12.063C11.123 32.0444 10.1879 31.8779 9.3141 31.5305C8.44033 31.1831 7.64611 30.6621 6.9795 29.9989C6.31288 29.3358 5.78773 28.5443 5.43579 27.6723C5.08386 26.8004 4.91248 25.8661 4.932 24.926V7.926H9.203V24.8V24.9C9.19346 25.2769 9.26085 25.6518 9.40104 26.0017C9.54123 26.3517 9.75129 26.6694 10.0184 26.9355C10.2855 27.2015 10.604 27.4104 10.9545 27.5492C11.305 27.6881 11.6802 27.754 12.057 27.743L16.25 27.749H22.691L22.687 32.02ZM30.373 32.02H26.104V22.52L16.537 7.927H21.527L28.273 18.6L35.087 7.93H39.941L30.373 22.417V32.02ZM50.963 32.486C49.3128 32.5302 47.6707 32.24 46.1356 31.633C44.6004 31.026 43.204 30.1147 42.0302 28.954C40.8564 27.7932 39.9297 26.4069 39.3056 24.8786C38.6816 23.3503 38.3732 21.7116 38.399 20.061C38.3795 18.4033 38.6939 16.7586 39.3236 15.2249C39.9532 13.6912 40.8851 12.3 42.0637 11.1342C43.2424 9.96828 44.6437 9.0516 46.1841 8.43876C47.7245 7.82591 49.3726 7.52944 51.03 7.567C52.6802 7.52282 54.3223 7.81296 55.8574 8.41996C57.3926 9.02696 58.789 9.93827 59.9628 11.099C61.1366 12.2598 62.0634 13.6461 62.6874 15.1744C63.3114 16.7027 63.6198 18.3414 63.594 19.992C63.6135 21.6497 63.2991 23.2945 62.6694 24.8281C62.0398 26.3618 61.1079 27.753 59.9293 28.9188C58.7506 30.0847 57.3493 31.0014 55.8089 31.6142C54.2685 32.2271 52.6204 32.5236 50.963 32.486ZM87.991 32.019H84.445L71.163 14.879V32.019H66.995V7.927H70.919L83.826 24.585V7.927H87.99L87.991 32.019ZM198.974 35.25H92.613V4.653H198.974V35.25ZM50.963 11.456C46.178 11.456 42.84 15.277 42.84 19.992C42.84 24.707 46.247 28.6 51.03 28.6C55.813 28.6 59.154 24.779 59.154 20.064C59.154 15.349 55.746 11.456 50.963 11.456Z" fill="#003A70"/>
<path d="M200.634 48.836H0.0419922V50.489H200.634V48.836Z" fill="#AFFC17"/>
</g>
<defs>
<clipPath id="clip0_686_5419">
<rect width="200.634" height="50.489" fill="white"/>
</clipPath>
</defs>
</svg>
