<svg width="332" height="271" viewBox="0 0 332 271" fill="none" xmlns="http://www.w3.org/2000/svg">
<path d="M19.9527 4.576C20.8407 4.576 21.6167 4.752 22.2807 5.104C22.9447 5.456 23.4567 5.952 23.8167 6.592C24.1847 7.224 24.3687 7.956 24.3687 8.788C24.3687 9.612 24.1847 10.344 23.8167 10.984C23.4567 11.624 22.9407 12.12 22.2687 12.472C21.6047 12.824 20.8327 13 19.9527 13H16.7967V4.576H19.9527ZM19.8207 11.224C20.5967 11.224 21.2007 11.012 21.6327 10.588C22.0647 10.164 22.2807 9.564 22.2807 8.788C22.2807 8.012 22.0647 7.408 21.6327 6.976C21.2007 6.544 20.5967 6.328 19.8207 6.328H18.8487V11.224H19.8207ZM26.5475 5.608C26.1875 5.608 25.8915 5.504 25.6595 5.296C25.4355 5.08 25.3235 4.816 25.3235 4.504C25.3235 4.184 25.4355 3.92 25.6595 3.712C25.8915 3.496 26.1875 3.388 26.5475 3.388C26.8995 3.388 27.1875 3.496 27.4115 3.712C27.6435 3.92 27.7595 4.184 27.7595 4.504C27.7595 4.816 27.6435 5.08 27.4115 5.296C27.1875 5.504 26.8995 5.608 26.5475 5.608ZM27.5675 6.304V13H25.5155V6.304H27.5675ZM31.7785 13.096C31.1945 13.096 30.6745 12.996 30.2185 12.796C29.7625 12.596 29.4025 12.324 29.1385 11.98C28.8745 11.628 28.7265 11.236 28.6945 10.804H30.7225C30.7465 11.036 30.8545 11.224 31.0465 11.368C31.2385 11.512 31.4745 11.584 31.7545 11.584C32.0105 11.584 32.2065 11.536 32.3425 11.44C32.4865 11.336 32.5585 11.204 32.5585 11.044C32.5585 10.852 32.4585 10.712 32.2585 10.624C32.0585 10.528 31.7345 10.424 31.2865 10.312C30.8065 10.2 30.4065 10.084 30.0865 9.964C29.7665 9.836 29.4905 9.64 29.2585 9.376C29.0265 9.104 28.9105 8.74 28.9105 8.284C28.9105 7.9 29.0145 7.552 29.2225 7.24C29.4385 6.92 29.7505 6.668 30.1585 6.484C30.5745 6.3 31.0665 6.208 31.6345 6.208C32.4745 6.208 33.1345 6.416 33.6145 6.832C34.1025 7.248 34.3825 7.8 34.4545 8.488H32.5585C32.5265 8.256 32.4225 8.072 32.2465 7.936C32.0785 7.8 31.8545 7.732 31.5745 7.732C31.3345 7.732 31.1505 7.78 31.0225 7.876C30.8945 7.964 30.8305 8.088 30.8305 8.248C30.8305 8.44 30.9305 8.584 31.1305 8.68C31.3385 8.776 31.6585 8.872 32.0905 8.968C32.5865 9.096 32.9905 9.224 33.3025 9.352C33.6145 9.472 33.8865 9.672 34.1185 9.952C34.3585 10.224 34.4825 10.592 34.4905 11.056C34.4905 11.448 34.3785 11.8 34.1545 12.112C33.9385 12.416 33.6225 12.656 33.2065 12.832C32.7985 13.008 32.3225 13.096 31.7785 13.096ZM35.338 9.652C35.338 8.956 35.478 8.348 35.758 7.828C36.046 7.308 36.442 6.908 36.946 6.628C37.458 6.348 38.042 6.208 38.698 6.208C39.538 6.208 40.238 6.428 40.798 6.868C41.366 7.308 41.738 7.928 41.914 8.728H39.73C39.546 8.216 39.19 7.96 38.662 7.96C38.286 7.96 37.986 8.108 37.762 8.404C37.538 8.692 37.426 9.108 37.426 9.652C37.426 10.196 37.538 10.616 37.762 10.912C37.986 11.2 38.286 11.344 38.662 11.344C39.19 11.344 39.546 11.088 39.73 10.576H41.914C41.738 11.36 41.366 11.976 40.798 12.424C40.23 12.872 39.53 13.096 38.698 13.096C38.042 13.096 37.458 12.956 36.946 12.676C36.442 12.396 36.046 11.996 35.758 11.476C35.478 10.956 35.338 10.348 35.338 9.652ZM46.0596 13.096C45.4036 13.096 44.8116 12.956 44.2836 12.676C43.7636 12.396 43.3516 11.996 43.0476 11.476C42.7516 10.956 42.6036 10.348 42.6036 9.652C42.6036 8.964 42.7556 8.36 43.0596 7.84C43.3636 7.312 43.7796 6.908 44.3076 6.628C44.8356 6.348 45.4276 6.208 46.0836 6.208C46.7396 6.208 47.3316 6.348 47.8596 6.628C48.3876 6.908 48.8036 7.312 49.1076 7.84C49.4116 8.36 49.5636 8.964 49.5636 9.652C49.5636 10.34 49.4076 10.948 49.0956 11.476C48.7916 11.996 48.3716 12.396 47.8356 12.676C47.3076 12.956 46.7156 13.096 46.0596 13.096ZM46.0596 11.32C46.4516 11.32 46.7836 11.176 47.0556 10.888C47.3356 10.6 47.4756 10.188 47.4756 9.652C47.4756 9.116 47.3396 8.704 47.0676 8.416C46.8036 8.128 46.4756 7.984 46.0836 7.984C45.6836 7.984 45.3516 8.128 45.0876 8.416C44.8236 8.696 44.6916 9.108 44.6916 9.652C44.6916 10.188 44.8196 10.6 45.0756 10.888C45.3396 11.176 45.6676 11.32 46.0596 11.32ZM53.6642 11.08L55.1162 6.304H57.3002L54.9242 13H52.3922L50.0162 6.304H52.2122L53.6642 11.08ZM64.4759 9.544C64.4759 9.736 64.4639 9.936 64.4399 10.144H59.7959C59.8279 10.56 59.9599 10.88 60.1919 11.104C60.4319 11.32 60.7239 11.428 61.0679 11.428C61.5799 11.428 61.9359 11.212 62.1359 10.78H64.3199C64.2079 11.22 64.0039 11.616 63.7079 11.968C63.4199 12.32 63.0559 12.596 62.6159 12.796C62.1759 12.996 61.6839 13.096 61.1399 13.096C60.4839 13.096 59.8999 12.956 59.3879 12.676C58.8759 12.396 58.4759 11.996 58.1879 11.476C57.8999 10.956 57.7559 10.348 57.7559 9.652C57.7559 8.956 57.8959 8.348 58.1759 7.828C58.4639 7.308 58.8639 6.908 59.3759 6.628C59.8879 6.348 60.4759 6.208 61.1399 6.208C61.7879 6.208 62.3639 6.344 62.8679 6.616C63.3719 6.888 63.7639 7.276 64.0439 7.78C64.3319 8.284 64.4759 8.872 64.4759 9.544ZM62.3759 9.004C62.3759 8.652 62.2559 8.372 62.0159 8.164C61.7759 7.956 61.4759 7.852 61.1159 7.852C60.7719 7.852 60.4799 7.952 60.2399 8.152C60.0079 8.352 59.8639 8.636 59.8079 9.004H62.3759ZM67.6105 7.42C67.8505 7.052 68.1505 6.764 68.5105 6.556C68.8705 6.34 69.2705 6.232 69.7105 6.232V8.404H69.1465C68.6345 8.404 68.2505 8.516 67.9945 8.74C67.7385 8.956 67.6105 9.34 67.6105 9.892V13H65.5585V6.304H67.6105V7.42Z" fill="#3E3D4A"/>
<path d="M143.484 10.512H140.34L139.836 12H137.688L140.736 3.576H143.112L146.16 12H143.988L143.484 10.512ZM142.956 8.928L141.912 5.844L140.88 8.928H142.956ZM149.812 12.096C149.228 12.096 148.708 11.996 148.252 11.796C147.796 11.596 147.436 11.324 147.172 10.98C146.908 10.628 146.76 10.236 146.728 9.804H148.756C148.78 10.036 148.888 10.224 149.08 10.368C149.272 10.512 149.508 10.584 149.788 10.584C150.044 10.584 150.24 10.536 150.376 10.44C150.52 10.336 150.592 10.204 150.592 10.044C150.592 9.852 150.492 9.712 150.292 9.624C150.092 9.528 149.768 9.424 149.32 9.312C148.84 9.2 148.44 9.084 148.12 8.964C147.8 8.836 147.524 8.64 147.292 8.376C147.06 8.104 146.944 7.74 146.944 7.284C146.944 6.9 147.048 6.552 147.256 6.24C147.472 5.92 147.784 5.668 148.192 5.484C148.608 5.3 149.1 5.208 149.668 5.208C150.508 5.208 151.168 5.416 151.648 5.832C152.136 6.248 152.416 6.8 152.488 7.488H150.592C150.56 7.256 150.456 7.072 150.28 6.936C150.112 6.8 149.888 6.732 149.608 6.732C149.368 6.732 149.184 6.78 149.056 6.876C148.928 6.964 148.864 7.088 148.864 7.248C148.864 7.44 148.964 7.584 149.164 7.68C149.372 7.776 149.692 7.872 150.124 7.968C150.62 8.096 151.024 8.224 151.336 8.352C151.648 8.472 151.92 8.672 152.152 8.952C152.392 9.224 152.516 9.592 152.524 10.056C152.524 10.448 152.412 10.8 152.188 11.112C151.972 11.416 151.656 11.656 151.24 11.832C150.832 12.008 150.356 12.096 149.812 12.096ZM156.503 12.096C155.919 12.096 155.399 11.996 154.943 11.796C154.487 11.596 154.127 11.324 153.863 10.98C153.599 10.628 153.451 10.236 153.419 9.804H155.447C155.471 10.036 155.579 10.224 155.771 10.368C155.963 10.512 156.199 10.584 156.479 10.584C156.735 10.584 156.931 10.536 157.067 10.44C157.211 10.336 157.283 10.204 157.283 10.044C157.283 9.852 157.183 9.712 156.983 9.624C156.783 9.528 156.459 9.424 156.011 9.312C155.531 9.2 155.131 9.084 154.811 8.964C154.491 8.836 154.215 8.64 153.983 8.376C153.751 8.104 153.635 7.74 153.635 7.284C153.635 6.9 153.739 6.552 153.947 6.24C154.163 5.92 154.475 5.668 154.883 5.484C155.299 5.3 155.791 5.208 156.359 5.208C157.199 5.208 157.859 5.416 158.339 5.832C158.827 6.248 159.107 6.8 159.179 7.488H157.283C157.251 7.256 157.147 7.072 156.971 6.936C156.803 6.8 156.579 6.732 156.299 6.732C156.059 6.732 155.875 6.78 155.747 6.876C155.619 6.964 155.555 7.088 155.555 7.248C155.555 7.44 155.655 7.584 155.855 7.68C156.063 7.776 156.383 7.872 156.815 7.968C157.311 8.096 157.715 8.224 158.027 8.352C158.339 8.472 158.611 8.672 158.843 8.952C159.083 9.224 159.207 9.592 159.215 10.056C159.215 10.448 159.103 10.8 158.879 11.112C158.663 11.416 158.347 11.656 157.931 11.832C157.523 12.008 157.047 12.096 156.503 12.096ZM166.783 8.544C166.783 8.736 166.771 8.936 166.747 9.144H162.103C162.135 9.56 162.267 9.88 162.499 10.104C162.739 10.32 163.031 10.428 163.375 10.428C163.887 10.428 164.243 10.212 164.443 9.78H166.627C166.515 10.22 166.311 10.616 166.015 10.968C165.727 11.32 165.363 11.596 164.923 11.796C164.483 11.996 163.991 12.096 163.447 12.096C162.791 12.096 162.207 11.956 161.695 11.676C161.183 11.396 160.783 10.996 160.495 10.476C160.207 9.956 160.063 9.348 160.063 8.652C160.063 7.956 160.203 7.348 160.483 6.828C160.771 6.308 161.171 5.908 161.683 5.628C162.195 5.348 162.783 5.208 163.447 5.208C164.095 5.208 164.671 5.344 165.175 5.616C165.679 5.888 166.071 6.276 166.351 6.78C166.639 7.284 166.783 7.872 166.783 8.544ZM164.683 8.004C164.683 7.652 164.563 7.372 164.323 7.164C164.083 6.956 163.783 6.852 163.423 6.852C163.079 6.852 162.787 6.952 162.547 7.152C162.315 7.352 162.171 7.636 162.115 8.004H164.683ZM170.589 12.096C170.005 12.096 169.485 11.996 169.029 11.796C168.573 11.596 168.213 11.324 167.949 10.98C167.685 10.628 167.537 10.236 167.505 9.804H169.533C169.557 10.036 169.665 10.224 169.857 10.368C170.049 10.512 170.285 10.584 170.565 10.584C170.821 10.584 171.017 10.536 171.153 10.44C171.297 10.336 171.369 10.204 171.369 10.044C171.369 9.852 171.269 9.712 171.069 9.624C170.869 9.528 170.545 9.424 170.097 9.312C169.617 9.2 169.217 9.084 168.897 8.964C168.577 8.836 168.301 8.64 168.069 8.376C167.837 8.104 167.721 7.74 167.721 7.284C167.721 6.9 167.825 6.552 168.033 6.24C168.249 5.92 168.561 5.668 168.969 5.484C169.385 5.3 169.877 5.208 170.445 5.208C171.285 5.208 171.945 5.416 172.425 5.832C172.913 6.248 173.193 6.8 173.265 7.488H171.369C171.337 7.256 171.233 7.072 171.057 6.936C170.889 6.8 170.665 6.732 170.385 6.732C170.145 6.732 169.961 6.78 169.833 6.876C169.705 6.964 169.641 7.088 169.641 7.248C169.641 7.44 169.741 7.584 169.941 7.68C170.149 7.776 170.469 7.872 170.901 7.968C171.397 8.096 171.801 8.224 172.113 8.352C172.425 8.472 172.697 8.672 172.929 8.952C173.169 9.224 173.293 9.592 173.301 10.056C173.301 10.448 173.189 10.8 172.965 11.112C172.749 11.416 172.433 11.656 172.017 11.832C171.609 12.008 171.133 12.096 170.589 12.096ZM177.281 12.096C176.697 12.096 176.177 11.996 175.721 11.796C175.265 11.596 174.905 11.324 174.641 10.98C174.377 10.628 174.229 10.236 174.197 9.804H176.225C176.249 10.036 176.357 10.224 176.549 10.368C176.741 10.512 176.977 10.584 177.257 10.584C177.513 10.584 177.709 10.536 177.845 10.44C177.989 10.336 178.061 10.204 178.061 10.044C178.061 9.852 177.961 9.712 177.761 9.624C177.561 9.528 177.237 9.424 176.789 9.312C176.309 9.2 175.909 9.084 175.589 8.964C175.269 8.836 174.993 8.64 174.761 8.376C174.529 8.104 174.413 7.74 174.413 7.284C174.413 6.9 174.517 6.552 174.725 6.24C174.941 5.92 175.253 5.668 175.661 5.484C176.077 5.3 176.569 5.208 177.137 5.208C177.977 5.208 178.637 5.416 179.117 5.832C179.605 6.248 179.885 6.8 179.957 7.488H178.061C178.029 7.256 177.925 7.072 177.749 6.936C177.581 6.8 177.357 6.732 177.077 6.732C176.837 6.732 176.653 6.78 176.525 6.876C176.397 6.964 176.333 7.088 176.333 7.248C176.333 7.44 176.433 7.584 176.633 7.68C176.841 7.776 177.161 7.872 177.593 7.968C178.089 8.096 178.493 8.224 178.805 8.352C179.117 8.472 179.389 8.672 179.621 8.952C179.861 9.224 179.985 9.592 179.993 10.056C179.993 10.448 179.881 10.8 179.657 11.112C179.441 11.416 179.125 11.656 178.709 11.832C178.301 12.008 177.825 12.096 177.281 12.096Z" fill="#3E3D4A"/>
<path d="M252.347 11.512H249.203L248.699 13H246.551L249.599 4.576H251.975L255.023 13H252.851L252.347 11.512ZM251.819 9.928L250.775 6.844L249.743 9.928H251.819ZM258.003 7.42C258.243 7.052 258.543 6.764 258.903 6.556C259.263 6.34 259.663 6.232 260.103 6.232V8.404H259.539C259.027 8.404 258.643 8.516 258.387 8.74C258.131 8.956 258.003 9.34 258.003 9.892V13H255.951V6.304H258.003V7.42ZM260.676 9.652C260.676 8.956 260.816 8.348 261.096 7.828C261.384 7.308 261.78 6.908 262.284 6.628C262.796 6.348 263.38 6.208 264.036 6.208C264.876 6.208 265.576 6.428 266.136 6.868C266.704 7.308 267.076 7.928 267.252 8.728H265.068C264.884 8.216 264.528 7.96 264 7.96C263.624 7.96 263.324 8.108 263.1 8.404C262.876 8.692 262.764 9.108 262.764 9.652C262.764 10.196 262.876 10.616 263.1 10.912C263.324 11.2 263.624 11.344 264 11.344C264.528 11.344 264.884 11.088 265.068 10.576H267.252C267.076 11.36 266.704 11.976 266.136 12.424C265.568 12.872 264.868 13.096 264.036 13.096C263.38 13.096 262.796 12.956 262.284 12.676C261.78 12.396 261.384 11.996 261.096 11.476C260.816 10.956 260.676 10.348 260.676 9.652ZM272.465 6.232C273.233 6.232 273.849 6.488 274.313 7C274.777 7.504 275.009 8.2 275.009 9.088V13H272.969V9.364C272.969 8.916 272.853 8.568 272.621 8.32C272.389 8.072 272.077 7.948 271.685 7.948C271.293 7.948 270.981 8.072 270.749 8.32C270.517 8.568 270.401 8.916 270.401 9.364V13H268.349V4.12H270.401V7.204C270.609 6.908 270.893 6.672 271.253 6.496C271.613 6.32 272.017 6.232 272.465 6.232ZM277.467 5.608C277.107 5.608 276.811 5.504 276.579 5.296C276.355 5.08 276.243 4.816 276.243 4.504C276.243 4.184 276.355 3.92 276.579 3.712C276.811 3.496 277.107 3.388 277.467 3.388C277.819 3.388 278.107 3.496 278.331 3.712C278.563 3.92 278.679 4.184 278.679 4.504C278.679 4.816 278.563 5.08 278.331 5.296C278.107 5.504 277.819 5.608 277.467 5.608ZM278.487 6.304V13H276.435V6.304H278.487ZM283.706 11.26V13H282.662C281.918 13 281.338 12.82 280.922 12.46C280.506 12.092 280.298 11.496 280.298 10.672V8.008H279.482V6.304H280.298V4.672H282.35V6.304H283.694V8.008H282.35V10.696C282.35 10.896 282.398 11.04 282.494 11.128C282.59 11.216 282.75 11.26 282.974 11.26H283.706ZM291.161 9.544C291.161 9.736 291.149 9.936 291.125 10.144H286.481C286.513 10.56 286.645 10.88 286.877 11.104C287.117 11.32 287.409 11.428 287.753 11.428C288.265 11.428 288.621 11.212 288.821 10.78H291.005C290.893 11.22 290.689 11.616 290.393 11.968C290.105 12.32 289.741 12.596 289.301 12.796C288.861 12.996 288.369 13.096 287.825 13.096C287.169 13.096 286.585 12.956 286.073 12.676C285.561 12.396 285.161 11.996 284.873 11.476C284.585 10.956 284.441 10.348 284.441 9.652C284.441 8.956 284.581 8.348 284.861 7.828C285.149 7.308 285.549 6.908 286.061 6.628C286.573 6.348 287.161 6.208 287.825 6.208C288.473 6.208 289.049 6.344 289.553 6.616C290.057 6.888 290.449 7.276 290.729 7.78C291.017 8.284 291.161 8.872 291.161 9.544ZM289.061 9.004C289.061 8.652 288.941 8.372 288.701 8.164C288.461 7.956 288.161 7.852 287.801 7.852C287.457 7.852 287.165 7.952 286.925 8.152C286.693 8.352 286.549 8.636 286.493 9.004H289.061ZM291.836 9.652C291.836 8.956 291.976 8.348 292.256 7.828C292.544 7.308 292.94 6.908 293.444 6.628C293.956 6.348 294.54 6.208 295.196 6.208C296.036 6.208 296.736 6.428 297.296 6.868C297.864 7.308 298.236 7.928 298.412 8.728H296.228C296.044 8.216 295.688 7.96 295.16 7.96C294.784 7.96 294.484 8.108 294.26 8.404C294.036 8.692 293.924 9.108 293.924 9.652C293.924 10.196 294.036 10.616 294.26 10.912C294.484 11.2 294.784 11.344 295.16 11.344C295.688 11.344 296.044 11.088 296.228 10.576H298.412C298.236 11.36 297.864 11.976 297.296 12.424C296.728 12.872 296.028 13.096 295.196 13.096C294.54 13.096 293.956 12.956 293.444 12.676C292.94 12.396 292.544 11.996 292.256 11.476C291.976 10.956 291.836 10.348 291.836 9.652ZM303.242 11.26V13H302.198C301.454 13 300.874 12.82 300.458 12.46C300.042 12.092 299.834 11.496 299.834 10.672V8.008H299.018V6.304H299.834V4.672H301.886V6.304H303.23V8.008H301.886V10.696C301.886 10.896 301.934 11.04 302.03 11.128C302.126 11.216 302.286 11.26 302.51 11.26H303.242Z" fill="#3E3D4A"/>
<circle cx="43" cy="60" r="25.5" stroke="#CE1700"/>
<path d="M41.9264 67V52.92L43.4664 54.46H38.8464V51.6H45.4904V67H41.9264Z" fill="#3E3D4A"/>
<circle cx="159" cy="60" r="25.5" stroke="#CE1700"/>
<path d="M153.238 67V64.69L159.178 59.08C159.647 58.6547 159.992 58.2733 160.212 57.936C160.432 57.5987 160.578 57.2907 160.652 57.012C160.74 56.7333 160.784 56.4767 160.784 56.242C160.784 55.626 160.571 55.1567 160.146 54.834C159.735 54.4967 159.126 54.328 158.32 54.328C157.674 54.328 157.073 54.4527 156.516 54.702C155.973 54.9513 155.511 55.34 155.13 55.868L152.534 54.196C153.12 53.316 153.942 52.6193 154.998 52.106C156.054 51.5927 157.271 51.336 158.65 51.336C159.794 51.336 160.791 51.5267 161.642 51.908C162.507 52.2747 163.174 52.7953 163.644 53.47C164.128 54.1447 164.37 54.9513 164.37 55.89C164.37 56.3887 164.304 56.8873 164.172 57.386C164.054 57.87 163.805 58.3833 163.424 58.926C163.057 59.4687 162.514 60.0773 161.796 60.752L156.868 65.394L156.186 64.096H164.876V67H153.238Z" fill="#3E3D4A"/>
<circle cx="275" cy="60" r="25.5" stroke="#CE1700"/>
<path d="M274.342 67.264C273.272 67.264 272.208 67.1247 271.152 66.846C270.096 66.5527 269.202 66.142 268.468 65.614L269.854 62.886C270.441 63.3113 271.123 63.6487 271.9 63.898C272.678 64.1473 273.462 64.272 274.254 64.272C275.149 64.272 275.853 64.096 276.366 63.744C276.88 63.392 277.136 62.908 277.136 62.292C277.136 61.7053 276.909 61.2433 276.454 60.906C276 60.5687 275.266 60.4 274.254 60.4H272.626V58.046L276.916 53.184L277.312 54.46H269.238V51.6H280.018V53.91L275.75 58.772L273.946 57.738H274.98C276.872 57.738 278.302 58.1633 279.27 59.014C280.238 59.8647 280.722 60.9573 280.722 62.292C280.722 63.1573 280.495 63.9713 280.04 64.734C279.586 65.482 278.889 66.0907 277.95 66.56C277.012 67.0293 275.809 67.264 274.342 67.264Z" fill="#3E3D4A"/>
<line x1="69" y1="59.5" x2="133" y2="59.5" stroke="#CE1700"/>
<line x1="184" y1="59.5" x2="249" y2="59.5" stroke="#CE1700"/>
<line x1="275.5" y1="86" x2="275.5" y2="186" stroke="#CE1700"/>
<path d="M254.515 259.22V260.924H257.263V262.508H254.515V264.356H257.623V266H252.463V257.576H257.623V259.22H254.515ZM262.915 266L261.631 264.14L260.551 266H258.331L260.539 262.58L258.271 259.304H260.575L261.859 261.152L262.939 259.304H265.159L262.915 262.676L265.219 266H262.915ZM272.322 262.544C272.322 262.736 272.31 262.936 272.286 263.144H267.642C267.674 263.56 267.806 263.88 268.038 264.104C268.278 264.32 268.57 264.428 268.914 264.428C269.426 264.428 269.782 264.212 269.982 263.78H272.166C272.054 264.22 271.85 264.616 271.554 264.968C271.266 265.32 270.902 265.596 270.462 265.796C270.022 265.996 269.53 266.096 268.986 266.096C268.33 266.096 267.746 265.956 267.234 265.676C266.722 265.396 266.322 264.996 266.034 264.476C265.746 263.956 265.602 263.348 265.602 262.652C265.602 261.956 265.742 261.348 266.022 260.828C266.31 260.308 266.71 259.908 267.222 259.628C267.734 259.348 268.322 259.208 268.986 259.208C269.634 259.208 270.21 259.344 270.714 259.616C271.218 259.888 271.61 260.276 271.89 260.78C272.178 261.284 272.322 261.872 272.322 262.544ZM270.222 262.004C270.222 261.652 270.102 261.372 269.862 261.164C269.622 260.956 269.322 260.852 268.962 260.852C268.618 260.852 268.326 260.952 268.086 261.152C267.854 261.352 267.71 261.636 267.654 262.004H270.222ZM272.996 262.652C272.996 261.956 273.136 261.348 273.416 260.828C273.704 260.308 274.1 259.908 274.604 259.628C275.116 259.348 275.7 259.208 276.356 259.208C277.196 259.208 277.896 259.428 278.456 259.868C279.024 260.308 279.396 260.928 279.572 261.728H277.388C277.204 261.216 276.848 260.96 276.32 260.96C275.944 260.96 275.644 261.108 275.42 261.404C275.196 261.692 275.084 262.108 275.084 262.652C275.084 263.196 275.196 263.616 275.42 263.912C275.644 264.2 275.944 264.344 276.32 264.344C276.848 264.344 277.204 264.088 277.388 263.576H279.572C279.396 264.36 279.024 264.976 278.456 265.424C277.888 265.872 277.188 266.096 276.356 266.096C275.7 266.096 275.116 265.956 274.604 265.676C274.1 265.396 273.704 264.996 273.416 264.476C273.136 263.956 272.996 263.348 272.996 262.652ZM287.282 259.304V266H285.23V265.088C285.022 265.384 284.738 265.624 284.378 265.808C284.026 265.984 283.634 266.072 283.202 266.072C282.69 266.072 282.238 265.96 281.846 265.736C281.454 265.504 281.15 265.172 280.934 264.74C280.718 264.308 280.61 263.8 280.61 263.216V259.304H282.65V262.94C282.65 263.388 282.766 263.736 282.998 263.984C283.23 264.232 283.542 264.356 283.934 264.356C284.334 264.356 284.65 264.232 284.882 263.984C285.114 263.736 285.23 263.388 285.23 262.94V259.304H287.282ZM292.488 264.26V266H291.444C290.7 266 290.12 265.82 289.704 265.46C289.288 265.092 289.08 264.496 289.08 263.672V261.008H288.264V259.304H289.08V257.672H291.132V259.304H292.476V261.008H291.132V263.696C291.132 263.896 291.18 264.04 291.276 264.128C291.372 264.216 291.532 264.26 291.756 264.26H292.488ZM299.943 262.544C299.943 262.736 299.931 262.936 299.907 263.144H295.263C295.295 263.56 295.427 263.88 295.659 264.104C295.899 264.32 296.191 264.428 296.535 264.428C297.047 264.428 297.403 264.212 297.603 263.78H299.787C299.675 264.22 299.471 264.616 299.175 264.968C298.887 265.32 298.523 265.596 298.083 265.796C297.643 265.996 297.151 266.096 296.607 266.096C295.951 266.096 295.367 265.956 294.855 265.676C294.343 265.396 293.943 264.996 293.655 264.476C293.367 263.956 293.223 263.348 293.223 262.652C293.223 261.956 293.363 261.348 293.643 260.828C293.931 260.308 294.331 259.908 294.843 259.628C295.355 259.348 295.943 259.208 296.607 259.208C297.255 259.208 297.831 259.344 298.335 259.616C298.839 259.888 299.231 260.276 299.511 260.78C299.799 261.284 299.943 261.872 299.943 262.544ZM297.843 262.004C297.843 261.652 297.723 261.372 297.483 261.164C297.243 260.956 296.943 260.852 296.583 260.852C296.239 260.852 295.947 260.952 295.707 261.152C295.475 261.352 295.331 261.636 295.275 262.004H297.843Z" fill="#3E3D4A"/>
<path d="M149.283 257.576L146.295 266H143.727L140.739 257.576H142.923L145.011 263.936L147.111 257.576H149.283ZM156.452 262.544C156.452 262.736 156.44 262.936 156.416 263.144H151.772C151.804 263.56 151.936 263.88 152.168 264.104C152.408 264.32 152.7 264.428 153.044 264.428C153.556 264.428 153.912 264.212 154.112 263.78H156.296C156.184 264.22 155.98 264.616 155.684 264.968C155.396 265.32 155.032 265.596 154.592 265.796C154.152 265.996 153.66 266.096 153.116 266.096C152.46 266.096 151.876 265.956 151.364 265.676C150.852 265.396 150.452 264.996 150.164 264.476C149.876 263.956 149.732 263.348 149.732 262.652C149.732 261.956 149.872 261.348 150.152 260.828C150.44 260.308 150.84 259.908 151.352 259.628C151.864 259.348 152.452 259.208 153.116 259.208C153.764 259.208 154.34 259.344 154.844 259.616C155.348 259.888 155.74 260.276 156.02 260.78C156.308 261.284 156.452 261.872 156.452 262.544ZM154.352 262.004C154.352 261.652 154.232 261.372 153.992 261.164C153.752 260.956 153.452 260.852 153.092 260.852C152.748 260.852 152.456 260.952 152.216 261.152C151.984 261.352 151.84 261.636 151.784 262.004H154.352ZM159.587 260.42C159.827 260.052 160.127 259.764 160.487 259.556C160.847 259.34 161.247 259.232 161.687 259.232V261.404H161.123C160.611 261.404 160.227 261.516 159.971 261.74C159.715 261.956 159.587 262.34 159.587 262.892V266H157.535V259.304H159.587V260.42ZM163.7 258.608C163.34 258.608 163.044 258.504 162.812 258.296C162.588 258.08 162.476 257.816 162.476 257.504C162.476 257.184 162.588 256.92 162.812 256.712C163.044 256.496 163.34 256.388 163.7 256.388C164.052 256.388 164.34 256.496 164.564 256.712C164.796 256.92 164.912 257.184 164.912 257.504C164.912 257.816 164.796 258.08 164.564 258.296C164.34 258.504 164.052 258.608 163.7 258.608ZM164.72 259.304V266H162.668V259.304H164.72ZM169.567 261.008H168.463V266H166.411V261.008H165.667V259.304H166.411V259.112C166.411 258.288 166.647 257.664 167.119 257.24C167.591 256.808 168.283 256.592 169.195 256.592C169.347 256.592 169.459 256.596 169.531 256.604V258.344C169.139 258.32 168.863 258.376 168.703 258.512C168.543 258.648 168.463 258.892 168.463 259.244V259.304H169.567V261.008ZM177.371 259.304L173.171 269.18H170.963L172.499 265.772L169.775 259.304H172.067L173.615 263.492L175.151 259.304H177.371Z" fill="#3E3D4A"/>
<path d="M27.5919 260.24C27.4399 259.96 27.2199 259.748 26.9319 259.604C26.6519 259.452 26.3199 259.376 25.9359 259.376C25.2719 259.376 24.7399 259.596 24.3399 260.036C23.9399 260.468 23.7399 261.048 23.7399 261.776C23.7399 262.552 23.9479 263.16 24.3639 263.6C24.7879 264.032 25.3679 264.248 26.1039 264.248C26.6079 264.248 27.0319 264.12 27.3759 263.864C27.7279 263.608 27.9839 263.24 28.1439 262.76H25.5399V261.248H30.0039V263.156C29.8519 263.668 29.5919 264.144 29.2239 264.584C28.8639 265.024 28.4039 265.38 27.8439 265.652C27.2839 265.924 26.6519 266.06 25.9479 266.06C25.1159 266.06 24.3719 265.88 23.7159 265.52C23.0679 265.152 22.5599 264.644 22.1919 263.996C21.8319 263.348 21.6519 262.608 21.6519 261.776C21.6519 260.944 21.8319 260.204 22.1919 259.556C22.5599 258.9 23.0679 258.392 23.7159 258.032C24.3639 257.664 25.1039 257.48 25.9359 257.48C26.9439 257.48 27.7919 257.724 28.4799 258.212C29.1759 258.7 29.6359 259.376 29.8599 260.24H27.5919ZM34.1885 266.096C33.5325 266.096 32.9405 265.956 32.4125 265.676C31.8925 265.396 31.4805 264.996 31.1765 264.476C30.8805 263.956 30.7325 263.348 30.7325 262.652C30.7325 261.964 30.8845 261.36 31.1885 260.84C31.4925 260.312 31.9085 259.908 32.4365 259.628C32.9645 259.348 33.5565 259.208 34.2125 259.208C34.8685 259.208 35.4605 259.348 35.9885 259.628C36.5165 259.908 36.9325 260.312 37.2365 260.84C37.5405 261.36 37.6925 261.964 37.6925 262.652C37.6925 263.34 37.5365 263.948 37.2245 264.476C36.9205 264.996 36.5005 265.396 35.9645 265.676C35.4365 265.956 34.8445 266.096 34.1885 266.096ZM34.1885 264.32C34.5805 264.32 34.9125 264.176 35.1845 263.888C35.4645 263.6 35.6045 263.188 35.6045 262.652C35.6045 262.116 35.4685 261.704 35.1965 261.416C34.9325 261.128 34.6045 260.984 34.2125 260.984C33.8125 260.984 33.4805 261.128 33.2165 261.416C32.9525 261.696 32.8205 262.108 32.8205 262.652C32.8205 263.188 32.9485 263.6 33.2045 263.888C33.4685 264.176 33.7965 264.32 34.1885 264.32ZM43.3761 264.416H46.0641V266H41.3241V257.576H43.3761V264.416ZM48.0748 258.608C47.7148 258.608 47.4188 258.504 47.1868 258.296C46.9628 258.08 46.8508 257.816 46.8508 257.504C46.8508 257.184 46.9628 256.92 47.1868 256.712C47.4188 256.496 47.7148 256.388 48.0748 256.388C48.4268 256.388 48.7148 256.496 48.9388 256.712C49.1708 256.92 49.2868 257.184 49.2868 257.504C49.2868 257.816 49.1708 258.08 48.9388 258.296C48.7148 258.504 48.4268 258.608 48.0748 258.608ZM49.0948 259.304V266H47.0428V259.304H49.0948ZM53.5939 264.08L55.0459 259.304H57.2299L54.8539 266H52.3219L49.9459 259.304H52.1419L53.5939 264.08ZM64.4056 262.544C64.4056 262.736 64.3936 262.936 64.3696 263.144H59.7256C59.7576 263.56 59.8896 263.88 60.1216 264.104C60.3616 264.32 60.6536 264.428 60.9976 264.428C61.5096 264.428 61.8656 264.212 62.0656 263.78H64.2496C64.1376 264.22 63.9336 264.616 63.6376 264.968C63.3496 265.32 62.9856 265.596 62.5456 265.796C62.1056 265.996 61.6136 266.096 61.0696 266.096C60.4136 266.096 59.8296 265.956 59.3176 265.676C58.8056 265.396 58.4056 264.996 58.1176 264.476C57.8296 263.956 57.6856 263.348 57.6856 262.652C57.6856 261.956 57.8256 261.348 58.1056 260.828C58.3936 260.308 58.7936 259.908 59.3056 259.628C59.8176 259.348 60.4056 259.208 61.0696 259.208C61.7176 259.208 62.2936 259.344 62.7976 259.616C63.3016 259.888 63.6936 260.276 63.9736 260.78C64.2616 261.284 64.4056 261.872 64.4056 262.544ZM62.3056 262.004C62.3056 261.652 62.1856 261.372 61.9456 261.164C61.7056 260.956 61.4056 260.852 61.0456 260.852C60.7016 260.852 60.4096 260.952 60.1696 261.152C59.9376 261.352 59.7936 261.636 59.7376 262.004H62.3056Z" fill="#3E3D4A"/>
<line x1="69" y1="211.5" x2="133" y2="211.5" stroke="#CE1700"/>
<line x1="185" y1="211.5" x2="249" y2="211.5" stroke="#CE1700"/>
<circle cx="275" cy="212" r="25.5" stroke="#CE1700"/>
<path d="M268.098 215.766V213.368L275.358 203.6H279.098L271.992 213.368L270.254 212.862H282.376V215.766H268.098ZM276.392 219V215.766L276.502 212.862V209.98H279.868V219H276.392Z" fill="#3E3D4A"/>
<circle cx="159" cy="212" r="25.5" stroke="#CE1700"/>
<path d="M158.552 219.264C157.481 219.264 156.418 219.125 155.362 218.846C154.321 218.553 153.426 218.142 152.678 217.614L154.086 214.886C154.673 215.311 155.347 215.649 156.11 215.898C156.887 216.147 157.672 216.272 158.464 216.272C159.359 216.272 160.063 216.096 160.576 215.744C161.089 215.392 161.346 214.901 161.346 214.27C161.346 213.874 161.243 213.522 161.038 213.214C160.833 212.906 160.466 212.671 159.938 212.51C159.425 212.349 158.699 212.268 157.76 212.268H153.822L154.614 203.6H164.008V206.46H155.89L157.738 204.832L157.188 211.014L155.34 209.386H158.596C160.121 209.386 161.346 209.599 162.27 210.024C163.209 210.435 163.891 210.999 164.316 211.718C164.741 212.437 164.954 213.251 164.954 214.16C164.954 215.069 164.727 215.913 164.272 216.69C163.817 217.453 163.113 218.076 162.16 218.56C161.221 219.029 160.019 219.264 158.552 219.264Z" fill="#3E3D4A"/>
<circle cx="43" cy="212" r="25.5" stroke="#CE1700"/>
<path d="M43.7401 219.264C42.3321 219.264 41.1074 218.971 40.0661 218.384C39.0394 217.797 38.2474 216.939 37.6901 215.81C37.1328 214.681 36.8541 213.287 36.8541 211.63C36.8541 209.855 37.1841 208.352 37.8441 207.12C38.5188 205.888 39.4428 204.949 40.6161 204.304C41.8041 203.659 43.1681 203.336 44.7081 203.336C45.5294 203.336 46.3141 203.424 47.0621 203.6C47.8101 203.776 48.4554 204.04 48.9981 204.392L47.6781 207.01C47.2528 206.717 46.7981 206.519 46.3141 206.416C45.8301 206.299 45.3241 206.24 44.7961 206.24C43.4614 206.24 42.4054 206.643 41.6281 207.45C40.8508 208.257 40.4621 209.452 40.4621 211.036C40.4621 211.3 40.4621 211.593 40.4621 211.916C40.4768 212.239 40.5208 212.561 40.5941 212.884L39.6041 211.96C39.8828 211.388 40.2421 210.911 40.6821 210.53C41.1221 210.134 41.6428 209.841 42.2441 209.65C42.8601 209.445 43.5348 209.342 44.2681 209.342C45.2654 209.342 46.1601 209.54 46.9521 209.936C47.7441 210.332 48.3748 210.889 48.8441 211.608C49.3281 212.327 49.5701 213.17 49.5701 214.138C49.5701 215.179 49.3061 216.089 48.7781 216.866C48.2648 217.629 47.5681 218.223 46.6881 218.648C45.8228 219.059 44.8401 219.264 43.7401 219.264ZM43.5421 216.602C44.0408 216.602 44.4808 216.514 44.8621 216.338C45.2581 216.147 45.5661 215.876 45.7861 215.524C46.0061 215.172 46.1161 214.769 46.1161 214.314C46.1161 213.61 45.8741 213.053 45.3901 212.642C44.9208 212.217 44.2901 212.004 43.4981 212.004C42.9701 212.004 42.5081 212.107 42.1121 212.312C41.7161 212.503 41.4008 212.774 41.1661 213.126C40.9461 213.463 40.8361 213.859 40.8361 214.314C40.8361 214.754 40.9461 215.15 41.1661 215.502C41.3861 215.839 41.6941 216.111 42.0901 216.316C42.4861 216.507 42.9701 216.602 43.5421 216.602Z" fill="#3E3D4A"/>
</svg>
