<svg width="1047" height="140" viewBox="0 0 1047 140" fill="none" xmlns="http://www.w3.org/2000/svg">
<path d="M21.4291 81.364C22.7611 81.364 23.9251 81.628 24.9211 82.156C25.9171 82.684 26.6851 83.428 27.2251 84.388C27.7771 85.336 28.0531 86.434 28.0531 87.682C28.0531 88.918 27.7771 90.016 27.2251 90.976C26.6851 91.936 25.9111 92.68 24.9031 93.208C23.9071 93.736 22.7491 94 21.4291 94H16.6951V81.364H21.4291ZM21.2311 91.336C22.3951 91.336 23.3011 91.018 23.9491 90.382C24.5971 89.746 24.9211 88.846 24.9211 87.682C24.9211 86.518 24.5971 85.612 23.9491 84.964C23.3011 84.316 22.3951 83.992 21.2311 83.992H19.7731V91.336H21.2311ZM31.3212 82.912C30.7812 82.912 30.3372 82.756 29.9892 82.444C29.6532 82.12 29.4852 81.724 29.4852 81.256C29.4852 80.776 29.6532 80.38 29.9892 80.068C30.3372 79.744 30.7812 79.582 31.3212 79.582C31.8492 79.582 32.2812 79.744 32.6172 80.068C32.9652 80.38 33.1392 80.776 33.1392 81.256C33.1392 81.724 32.9652 82.12 32.6172 82.444C32.2812 82.756 31.8492 82.912 31.3212 82.912ZM32.8512 83.956V94H29.7732V83.956H32.8512ZM39.1678 94.144C38.2918 94.144 37.5118 93.994 36.8278 93.694C36.1438 93.394 35.6038 92.986 35.2078 92.47C34.8118 91.942 34.5898 91.354 34.5418 90.706H37.5838C37.6198 91.054 37.7818 91.336 38.0698 91.552C38.3578 91.768 38.7118 91.876 39.1318 91.876C39.5158 91.876 39.8098 91.804 40.0138 91.66C40.2298 91.504 40.3378 91.306 40.3378 91.066C40.3378 90.778 40.1878 90.568 39.8878 90.436C39.5878 90.292 39.1018 90.136 38.4298 89.968C37.7098 89.8 37.1098 89.626 36.6298 89.446C36.1498 89.254 35.7358 88.96 35.3878 88.564C35.0398 88.156 34.8658 87.61 34.8658 86.926C34.8658 86.35 35.0218 85.828 35.3338 85.36C35.6578 84.88 36.1258 84.502 36.7378 84.226C37.3618 83.95 38.0998 83.812 38.9518 83.812C40.2118 83.812 41.2018 84.124 41.9218 84.748C42.6538 85.372 43.0738 86.2 43.1818 87.232H40.3378C40.2898 86.884 40.1338 86.608 39.8698 86.404C39.6178 86.2 39.2818 86.098 38.8618 86.098C38.5018 86.098 38.2258 86.17 38.0338 86.314C37.8418 86.446 37.7458 86.632 37.7458 86.872C37.7458 87.16 37.8958 87.376 38.1958 87.52C38.5078 87.664 38.9878 87.808 39.6358 87.952C40.3798 88.144 40.9858 88.336 41.4538 88.528C41.9218 88.708 42.3298 89.008 42.6778 89.428C43.0378 89.836 43.2238 90.388 43.2358 91.084C43.2358 91.672 43.0678 92.2 42.7318 92.668C42.4078 93.124 41.9338 93.484 41.3098 93.748C40.6978 94.012 39.9838 94.144 39.1678 94.144ZM44.5069 88.978C44.5069 87.934 44.7169 87.022 45.1369 86.242C45.5689 85.462 46.1629 84.862 46.9189 84.442C47.6869 84.022 48.5629 83.812 49.5469 83.812C50.8069 83.812 51.8569 84.142 52.6969 84.802C53.5489 85.462 54.1069 86.392 54.3709 87.592H51.0949C50.8189 86.824 50.2849 86.44 49.4929 86.44C48.9289 86.44 48.4789 86.662 48.1429 87.106C47.8069 87.538 47.6389 88.162 47.6389 88.978C47.6389 89.794 47.8069 90.424 48.1429 90.868C48.4789 91.3 48.9289 91.516 49.4929 91.516C50.2849 91.516 50.8189 91.132 51.0949 90.364H54.3709C54.1069 91.54 53.5489 92.464 52.6969 93.136C51.8449 93.808 50.7949 94.144 49.5469 94.144C48.5629 94.144 47.6869 93.934 46.9189 93.514C46.1629 93.094 45.5689 92.494 45.1369 91.714C44.7169 90.934 44.5069 90.022 44.5069 88.978ZM60.5894 94.144C59.6054 94.144 58.7174 93.934 57.9254 93.514C57.1454 93.094 56.5274 92.494 56.0714 91.714C55.6274 90.934 55.4054 90.022 55.4054 88.978C55.4054 87.946 55.6334 87.04 56.0894 86.26C56.5454 85.468 57.1694 84.862 57.9614 84.442C58.7534 84.022 59.6414 83.812 60.6254 83.812C61.6094 83.812 62.4974 84.022 63.2894 84.442C64.0814 84.862 64.7054 85.468 65.1614 86.26C65.6174 87.04 65.8454 87.946 65.8454 88.978C65.8454 90.01 65.6114 90.922 65.1434 91.714C64.6874 92.494 64.0574 93.094 63.2534 93.514C62.4614 93.934 61.5734 94.144 60.5894 94.144ZM60.5894 91.48C61.1774 91.48 61.6754 91.264 62.0834 90.832C62.5034 90.4 62.7134 89.782 62.7134 88.978C62.7134 88.174 62.5094 87.556 62.1014 87.124C61.7054 86.692 61.2134 86.476 60.6254 86.476C60.0254 86.476 59.5274 86.692 59.1314 87.124C58.7354 87.544 58.5374 88.162 58.5374 88.978C58.5374 89.782 58.7294 90.4 59.1134 90.832C59.5094 91.264 60.0014 91.48 60.5894 91.48ZM71.9963 91.12L74.1743 83.956H77.4503L73.8863 94H70.0883L66.5243 83.956H69.8183L71.9963 91.12ZM88.2139 88.816C88.2139 89.104 88.1959 89.404 88.1599 89.716H81.1939C81.2419 90.34 81.4399 90.82 81.7879 91.156C82.1479 91.48 82.5859 91.642 83.1019 91.642C83.8699 91.642 84.4039 91.318 84.7039 90.67H87.9799C87.8119 91.33 87.5059 91.924 87.0619 92.452C86.6299 92.98 86.0839 93.394 85.4239 93.694C84.7639 93.994 84.0259 94.144 83.2099 94.144C82.2259 94.144 81.3499 93.934 80.5819 93.514C79.8139 93.094 79.2139 92.494 78.7819 91.714C78.3499 90.934 78.1339 90.022 78.1339 88.978C78.1339 87.934 78.3439 87.022 78.7639 86.242C79.1959 85.462 79.7959 84.862 80.5639 84.442C81.3319 84.022 82.2139 83.812 83.2099 83.812C84.1819 83.812 85.0459 84.016 85.8019 84.424C86.5579 84.832 87.1459 85.414 87.5659 86.17C87.9979 86.926 88.2139 87.808 88.2139 88.816ZM85.0639 88.006C85.0639 87.478 84.8839 87.058 84.5239 86.746C84.1639 86.434 83.7139 86.278 83.1739 86.278C82.6579 86.278 82.2199 86.428 81.8599 86.728C81.5119 87.028 81.2959 87.454 81.2119 88.006H85.0639ZM92.9157 85.63C93.2757 85.078 93.7257 84.646 94.2657 84.334C94.8057 84.01 95.4057 83.848 96.0657 83.848V87.106H95.2197C94.4517 87.106 93.8757 87.274 93.4917 87.61C93.1077 87.934 92.9157 88.51 92.9157 89.338V94H89.8377V83.956H92.9157V85.63Z" fill="#3E3D4A"/>
<path d="M219.726 91.768H215.01L214.254 94H211.032L215.604 81.364H219.168L223.74 94H220.482L219.726 91.768ZM218.934 89.392L217.368 84.766L215.82 89.392H218.934ZM229.218 94.144C228.342 94.144 227.562 93.994 226.878 93.694C226.194 93.394 225.654 92.986 225.258 92.47C224.862 91.942 224.64 91.354 224.592 90.706H227.634C227.67 91.054 227.832 91.336 228.12 91.552C228.408 91.768 228.762 91.876 229.182 91.876C229.566 91.876 229.86 91.804 230.064 91.66C230.28 91.504 230.388 91.306 230.388 91.066C230.388 90.778 230.238 90.568 229.938 90.436C229.638 90.292 229.152 90.136 228.48 89.968C227.76 89.8 227.16 89.626 226.68 89.446C226.2 89.254 225.786 88.96 225.438 88.564C225.09 88.156 224.916 87.61 224.916 86.926C224.916 86.35 225.072 85.828 225.384 85.36C225.708 84.88 226.176 84.502 226.788 84.226C227.412 83.95 228.15 83.812 229.002 83.812C230.262 83.812 231.252 84.124 231.972 84.748C232.704 85.372 233.124 86.2 233.232 87.232H230.388C230.34 86.884 230.184 86.608 229.92 86.404C229.668 86.2 229.332 86.098 228.912 86.098C228.552 86.098 228.276 86.17 228.084 86.314C227.892 86.446 227.796 86.632 227.796 86.872C227.796 87.16 227.946 87.376 228.246 87.52C228.558 87.664 229.038 87.808 229.686 87.952C230.43 88.144 231.036 88.336 231.504 88.528C231.972 88.708 232.38 89.008 232.728 89.428C233.088 89.836 233.274 90.388 233.286 91.084C233.286 91.672 233.118 92.2 232.782 92.668C232.458 93.124 231.984 93.484 231.36 93.748C230.748 94.012 230.034 94.144 229.218 94.144ZM239.255 94.144C238.379 94.144 237.599 93.994 236.915 93.694C236.231 93.394 235.691 92.986 235.295 92.47C234.899 91.942 234.677 91.354 234.629 90.706H237.671C237.707 91.054 237.869 91.336 238.157 91.552C238.445 91.768 238.799 91.876 239.219 91.876C239.603 91.876 239.897 91.804 240.101 91.66C240.317 91.504 240.425 91.306 240.425 91.066C240.425 90.778 240.275 90.568 239.975 90.436C239.675 90.292 239.189 90.136 238.517 89.968C237.797 89.8 237.197 89.626 236.717 89.446C236.237 89.254 235.823 88.96 235.475 88.564C235.127 88.156 234.953 87.61 234.953 86.926C234.953 86.35 235.109 85.828 235.421 85.36C235.745 84.88 236.213 84.502 236.825 84.226C237.449 83.95 238.187 83.812 239.039 83.812C240.299 83.812 241.289 84.124 242.009 84.748C242.741 85.372 243.161 86.2 243.269 87.232H240.425C240.377 86.884 240.221 86.608 239.957 86.404C239.705 86.2 239.369 86.098 238.949 86.098C238.589 86.098 238.313 86.17 238.121 86.314C237.929 86.446 237.833 86.632 237.833 86.872C237.833 87.16 237.983 87.376 238.283 87.52C238.595 87.664 239.075 87.808 239.723 87.952C240.467 88.144 241.073 88.336 241.541 88.528C242.009 88.708 242.417 89.008 242.765 89.428C243.125 89.836 243.311 90.388 243.323 91.084C243.323 91.672 243.155 92.2 242.819 92.668C242.495 93.124 242.021 93.484 241.397 93.748C240.785 94.012 240.071 94.144 239.255 94.144ZM254.674 88.816C254.674 89.104 254.656 89.404 254.62 89.716H247.654C247.702 90.34 247.9 90.82 248.248 91.156C248.608 91.48 249.046 91.642 249.562 91.642C250.33 91.642 250.864 91.318 251.164 90.67H254.44C254.272 91.33 253.966 91.924 253.522 92.452C253.09 92.98 252.544 93.394 251.884 93.694C251.224 93.994 250.486 94.144 249.67 94.144C248.686 94.144 247.81 93.934 247.042 93.514C246.274 93.094 245.674 92.494 245.242 91.714C244.81 90.934 244.594 90.022 244.594 88.978C244.594 87.934 244.804 87.022 245.224 86.242C245.656 85.462 246.256 84.862 247.024 84.442C247.792 84.022 248.674 83.812 249.67 83.812C250.642 83.812 251.506 84.016 252.262 84.424C253.018 84.832 253.606 85.414 254.026 86.17C254.458 86.926 254.674 87.808 254.674 88.816ZM251.524 88.006C251.524 87.478 251.344 87.058 250.984 86.746C250.624 86.434 250.174 86.278 249.634 86.278C249.118 86.278 248.68 86.428 248.32 86.728C247.972 87.028 247.756 87.454 247.672 88.006H251.524ZM260.384 94.144C259.508 94.144 258.728 93.994 258.044 93.694C257.36 93.394 256.82 92.986 256.424 92.47C256.028 91.942 255.806 91.354 255.758 90.706H258.8C258.836 91.054 258.998 91.336 259.286 91.552C259.574 91.768 259.928 91.876 260.348 91.876C260.732 91.876 261.026 91.804 261.23 91.66C261.446 91.504 261.554 91.306 261.554 91.066C261.554 90.778 261.404 90.568 261.104 90.436C260.804 90.292 260.318 90.136 259.646 89.968C258.926 89.8 258.326 89.626 257.846 89.446C257.366 89.254 256.952 88.96 256.604 88.564C256.256 88.156 256.082 87.61 256.082 86.926C256.082 86.35 256.238 85.828 256.55 85.36C256.874 84.88 257.342 84.502 257.954 84.226C258.578 83.95 259.316 83.812 260.168 83.812C261.428 83.812 262.418 84.124 263.138 84.748C263.87 85.372 264.29 86.2 264.398 87.232H261.554C261.506 86.884 261.35 86.608 261.086 86.404C260.834 86.2 260.498 86.098 260.078 86.098C259.718 86.098 259.442 86.17 259.25 86.314C259.058 86.446 258.962 86.632 258.962 86.872C258.962 87.16 259.112 87.376 259.412 87.52C259.724 87.664 260.204 87.808 260.852 87.952C261.596 88.144 262.202 88.336 262.67 88.528C263.138 88.708 263.546 89.008 263.894 89.428C264.254 89.836 264.44 90.388 264.452 91.084C264.452 91.672 264.284 92.2 263.948 92.668C263.624 93.124 263.15 93.484 262.526 93.748C261.914 94.012 261.2 94.144 260.384 94.144ZM270.421 94.144C269.545 94.144 268.765 93.994 268.081 93.694C267.397 93.394 266.857 92.986 266.461 92.47C266.065 91.942 265.843 91.354 265.795 90.706H268.837C268.873 91.054 269.035 91.336 269.323 91.552C269.611 91.768 269.965 91.876 270.385 91.876C270.769 91.876 271.063 91.804 271.267 91.66C271.483 91.504 271.591 91.306 271.591 91.066C271.591 90.778 271.441 90.568 271.141 90.436C270.841 90.292 270.355 90.136 269.683 89.968C268.963 89.8 268.363 89.626 267.883 89.446C267.403 89.254 266.989 88.96 266.641 88.564C266.293 88.156 266.119 87.61 266.119 86.926C266.119 86.35 266.275 85.828 266.587 85.36C266.911 84.88 267.379 84.502 267.991 84.226C268.615 83.95 269.353 83.812 270.205 83.812C271.465 83.812 272.455 84.124 273.175 84.748C273.907 85.372 274.327 86.2 274.435 87.232H271.591C271.543 86.884 271.387 86.608 271.123 86.404C270.871 86.2 270.535 86.098 270.115 86.098C269.755 86.098 269.479 86.17 269.287 86.314C269.095 86.446 268.999 86.632 268.999 86.872C268.999 87.16 269.149 87.376 269.449 87.52C269.761 87.664 270.241 87.808 270.889 87.952C271.633 88.144 272.239 88.336 272.707 88.528C273.175 88.708 273.583 89.008 273.931 89.428C274.291 89.836 274.477 90.388 274.489 91.084C274.489 91.672 274.321 92.2 273.985 92.668C273.661 93.124 273.187 93.484 272.563 93.748C271.951 94.012 271.237 94.144 270.421 94.144Z" fill="#3E3D4A"/>
<path d="M396.021 91.768H391.305L390.549 94H387.327L391.899 81.364H395.463L400.035 94H396.777L396.021 91.768ZM395.229 89.392L393.663 84.766L392.115 89.392H395.229ZM404.505 85.63C404.865 85.078 405.315 84.646 405.855 84.334C406.395 84.01 406.995 83.848 407.655 83.848V87.106H406.809C406.041 87.106 405.465 87.274 405.081 87.61C404.697 87.934 404.505 88.51 404.505 89.338V94H401.427V83.956H404.505V85.63ZM408.514 88.978C408.514 87.934 408.724 87.022 409.144 86.242C409.576 85.462 410.17 84.862 410.926 84.442C411.694 84.022 412.57 83.812 413.554 83.812C414.814 83.812 415.864 84.142 416.704 84.802C417.556 85.462 418.114 86.392 418.378 87.592H415.102C414.826 86.824 414.292 86.44 413.5 86.44C412.936 86.44 412.486 86.662 412.15 87.106C411.814 87.538 411.646 88.162 411.646 88.978C411.646 89.794 411.814 90.424 412.15 90.868C412.486 91.3 412.936 91.516 413.5 91.516C414.292 91.516 414.826 91.132 415.102 90.364H418.378C418.114 91.54 417.556 92.464 416.704 93.136C415.852 93.808 414.802 94.144 413.554 94.144C412.57 94.144 411.694 93.934 410.926 93.514C410.17 93.094 409.576 92.494 409.144 91.714C408.724 90.934 408.514 90.022 408.514 88.978ZM426.198 83.848C427.35 83.848 428.274 84.232 428.97 85C429.666 85.756 430.014 86.8 430.014 88.132V94H426.954V88.546C426.954 87.874 426.78 87.352 426.432 86.98C426.084 86.608 425.616 86.422 425.028 86.422C424.44 86.422 423.972 86.608 423.624 86.98C423.276 87.352 423.102 87.874 423.102 88.546V94H420.024V80.68H423.102V85.306C423.414 84.862 423.84 84.508 424.38 84.244C424.92 83.98 425.526 83.848 426.198 83.848ZM433.701 82.912C433.161 82.912 432.717 82.756 432.369 82.444C432.033 82.12 431.865 81.724 431.865 81.256C431.865 80.776 432.033 80.38 432.369 80.068C432.717 79.744 433.161 79.582 433.701 79.582C434.229 79.582 434.661 79.744 434.997 80.068C435.345 80.38 435.519 80.776 435.519 81.256C435.519 81.724 435.345 82.12 434.997 82.444C434.661 82.756 434.229 82.912 433.701 82.912ZM435.231 83.956V94H432.153V83.956H435.231ZM443.06 91.39V94H441.494C440.378 94 439.508 93.73 438.884 93.19C438.26 92.638 437.948 91.744 437.948 90.508V86.512H436.724V83.956H437.948V81.508H441.026V83.956H443.042V86.512H441.026V90.544C441.026 90.844 441.098 91.06 441.242 91.192C441.386 91.324 441.626 91.39 441.962 91.39H443.06ZM454.242 88.816C454.242 89.104 454.224 89.404 454.188 89.716H447.222C447.27 90.34 447.468 90.82 447.816 91.156C448.176 91.48 448.614 91.642 449.13 91.642C449.898 91.642 450.432 91.318 450.732 90.67H454.008C453.84 91.33 453.534 91.924 453.09 92.452C452.658 92.98 452.112 93.394 451.452 93.694C450.792 93.994 450.054 94.144 449.238 94.144C448.254 94.144 447.378 93.934 446.61 93.514C445.842 93.094 445.242 92.494 444.81 91.714C444.378 90.934 444.162 90.022 444.162 88.978C444.162 87.934 444.372 87.022 444.792 86.242C445.224 85.462 445.824 84.862 446.592 84.442C447.36 84.022 448.242 83.812 449.238 83.812C450.21 83.812 451.074 84.016 451.83 84.424C452.586 84.832 453.174 85.414 453.594 86.17C454.026 86.926 454.242 87.808 454.242 88.816ZM451.092 88.006C451.092 87.478 450.912 87.058 450.552 86.746C450.192 86.434 449.742 86.278 449.202 86.278C448.686 86.278 448.248 86.428 447.888 86.728C447.54 87.028 447.324 87.454 447.24 88.006H451.092ZM455.254 88.978C455.254 87.934 455.464 87.022 455.884 86.242C456.316 85.462 456.91 84.862 457.666 84.442C458.434 84.022 459.31 83.812 460.294 83.812C461.554 83.812 462.604 84.142 463.444 84.802C464.296 85.462 464.854 86.392 465.118 87.592H461.842C461.566 86.824 461.032 86.44 460.24 86.44C459.676 86.44 459.226 86.662 458.89 87.106C458.554 87.538 458.386 88.162 458.386 88.978C458.386 89.794 458.554 90.424 458.89 90.868C459.226 91.3 459.676 91.516 460.24 91.516C461.032 91.516 461.566 91.132 461.842 90.364H465.118C464.854 91.54 464.296 92.464 463.444 93.136C462.592 93.808 461.542 94.144 460.294 94.144C459.31 94.144 458.434 93.934 457.666 93.514C456.91 93.094 456.316 92.494 455.884 91.714C455.464 90.934 455.254 90.022 455.254 88.978ZM472.362 91.39V94H470.796C469.68 94 468.81 93.73 468.186 93.19C467.562 92.638 467.25 91.744 467.25 90.508V86.512H466.026V83.956H467.25V81.508H470.328V83.956H472.344V86.512H470.328V90.544C470.328 90.844 470.4 91.06 470.544 91.192C470.688 91.324 470.928 91.39 471.264 91.39H472.362Z" fill="#3E3D4A"/>
<path d="M584.772 83.83V86.386H588.894V88.762H584.772V91.534H589.434V94H581.694V81.364H589.434V83.83H584.772ZM597.372 94L595.446 91.21L593.826 94H590.496L593.808 88.87L590.406 83.956H593.862L595.788 86.728L597.408 83.956H600.738L597.372 89.014L600.828 94H597.372ZM611.482 88.816C611.482 89.104 611.464 89.404 611.428 89.716H604.462C604.51 90.34 604.708 90.82 605.056 91.156C605.416 91.48 605.854 91.642 606.37 91.642C607.138 91.642 607.672 91.318 607.972 90.67H611.248C611.08 91.33 610.774 91.924 610.33 92.452C609.898 92.98 609.352 93.394 608.692 93.694C608.032 93.994 607.294 94.144 606.478 94.144C605.494 94.144 604.618 93.934 603.85 93.514C603.082 93.094 602.482 92.494 602.05 91.714C601.618 90.934 601.402 90.022 601.402 88.978C601.402 87.934 601.612 87.022 602.032 86.242C602.464 85.462 603.064 84.862 603.832 84.442C604.6 84.022 605.482 83.812 606.478 83.812C607.45 83.812 608.314 84.016 609.07 84.424C609.826 84.832 610.414 85.414 610.834 86.17C611.266 86.926 611.482 87.808 611.482 88.816ZM608.332 88.006C608.332 87.478 608.152 87.058 607.792 86.746C607.432 86.434 606.982 86.278 606.442 86.278C605.926 86.278 605.488 86.428 605.128 86.728C604.78 87.028 604.564 87.454 604.48 88.006H608.332ZM612.494 88.978C612.494 87.934 612.704 87.022 613.124 86.242C613.556 85.462 614.15 84.862 614.906 84.442C615.674 84.022 616.55 83.812 617.534 83.812C618.794 83.812 619.844 84.142 620.684 84.802C621.536 85.462 622.094 86.392 622.358 87.592H619.082C618.806 86.824 618.272 86.44 617.48 86.44C616.916 86.44 616.466 86.662 616.13 87.106C615.794 87.538 615.626 88.162 615.626 88.978C615.626 89.794 615.794 90.424 616.13 90.868C616.466 91.3 616.916 91.516 617.48 91.516C618.272 91.516 618.806 91.132 619.082 90.364H622.358C622.094 91.54 621.536 92.464 620.684 93.136C619.832 93.808 618.782 94.144 617.534 94.144C616.55 94.144 615.674 93.934 614.906 93.514C614.15 93.094 613.556 92.494 613.124 91.714C612.704 90.934 612.494 90.022 612.494 88.978ZM633.923 83.956V94H630.845V92.632C630.533 93.076 630.107 93.436 629.567 93.712C629.039 93.976 628.451 94.108 627.803 94.108C627.035 94.108 626.357 93.94 625.769 93.604C625.181 93.256 624.725 92.758 624.401 92.11C624.077 91.462 623.915 90.7 623.915 89.824V83.956H626.975V89.41C626.975 90.082 627.149 90.604 627.497 90.976C627.845 91.348 628.313 91.534 628.901 91.534C629.501 91.534 629.975 91.348 630.323 90.976C630.671 90.604 630.845 90.082 630.845 89.41V83.956H633.923ZM641.732 91.39V94H640.166C639.05 94 638.18 93.73 637.556 93.19C636.932 92.638 636.62 91.744 636.62 90.508V86.512H635.396V83.956H636.62V81.508H639.698V83.956H641.714V86.512H639.698V90.544C639.698 90.844 639.77 91.06 639.914 91.192C640.058 91.324 640.298 91.39 640.634 91.39H641.732ZM652.914 88.816C652.914 89.104 652.896 89.404 652.86 89.716H645.894C645.942 90.34 646.14 90.82 646.488 91.156C646.848 91.48 647.286 91.642 647.802 91.642C648.57 91.642 649.104 91.318 649.404 90.67H652.68C652.512 91.33 652.206 91.924 651.762 92.452C651.33 92.98 650.784 93.394 650.124 93.694C649.464 93.994 648.726 94.144 647.91 94.144C646.926 94.144 646.05 93.934 645.282 93.514C644.514 93.094 643.914 92.494 643.482 91.714C643.05 90.934 642.834 90.022 642.834 88.978C642.834 87.934 643.044 87.022 643.464 86.242C643.896 85.462 644.496 84.862 645.264 84.442C646.032 84.022 646.914 83.812 647.91 83.812C648.882 83.812 649.746 84.016 650.502 84.424C651.258 84.832 651.846 85.414 652.266 86.17C652.698 86.926 652.914 87.808 652.914 88.816ZM649.764 88.006C649.764 87.478 649.584 87.058 649.224 86.746C648.864 86.434 648.414 86.278 647.874 86.278C647.358 86.278 646.92 86.428 646.56 86.728C646.212 87.028 645.996 87.454 645.912 88.006H649.764Z" fill="#3E3D4A"/>
<path d="M789.424 81.364L784.942 94H781.09L776.608 81.364H779.884L783.016 90.904L786.166 81.364H789.424ZM800.179 88.816C800.179 89.104 800.161 89.404 800.125 89.716H793.159C793.207 90.34 793.405 90.82 793.753 91.156C794.113 91.48 794.551 91.642 795.067 91.642C795.835 91.642 796.369 91.318 796.669 90.67H799.945C799.777 91.33 799.471 91.924 799.027 92.452C798.595 92.98 798.049 93.394 797.389 93.694C796.729 93.994 795.991 94.144 795.175 94.144C794.191 94.144 793.315 93.934 792.547 93.514C791.779 93.094 791.179 92.494 790.747 91.714C790.315 90.934 790.099 90.022 790.099 88.978C790.099 87.934 790.309 87.022 790.729 86.242C791.161 85.462 791.761 84.862 792.529 84.442C793.297 84.022 794.179 83.812 795.175 83.812C796.147 83.812 797.011 84.016 797.767 84.424C798.523 84.832 799.111 85.414 799.531 86.17C799.963 86.926 800.179 87.808 800.179 88.816ZM797.029 88.006C797.029 87.478 796.849 87.058 796.489 86.746C796.129 86.434 795.679 86.278 795.139 86.278C794.623 86.278 794.185 86.428 793.825 86.728C793.477 87.028 793.261 87.454 793.177 88.006H797.029ZM804.881 85.63C805.241 85.078 805.691 84.646 806.231 84.334C806.771 84.01 807.371 83.848 808.031 83.848V87.106H807.185C806.417 87.106 805.841 87.274 805.457 87.61C805.073 87.934 804.881 88.51 804.881 89.338V94H801.803V83.956H804.881V85.63ZM811.05 82.912C810.51 82.912 810.066 82.756 809.718 82.444C809.382 82.12 809.214 81.724 809.214 81.256C809.214 80.776 809.382 80.38 809.718 80.068C810.066 79.744 810.51 79.582 811.05 79.582C811.578 79.582 812.01 79.744 812.346 80.068C812.694 80.38 812.868 80.776 812.868 81.256C812.868 81.724 812.694 82.12 812.346 82.444C812.01 82.756 811.578 82.912 811.05 82.912ZM812.58 83.956V94H809.502V83.956H812.58ZM819.85 86.512H818.194V94H815.116V86.512H814V83.956H815.116V83.668C815.116 82.432 815.47 81.496 816.178 80.86C816.886 80.212 817.924 79.888 819.292 79.888C819.52 79.888 819.688 79.894 819.796 79.906V82.516C819.208 82.48 818.794 82.564 818.554 82.768C818.314 82.972 818.194 83.338 818.194 83.866V83.956H819.85V86.512ZM831.557 83.956L825.257 98.77H821.945L824.249 93.658L820.163 83.956H823.601L825.923 90.238L828.227 83.956H831.557Z" fill="#3E3D4A"/>
<path d="M967.888 85.36C967.66 84.94 967.33 84.622 966.898 84.406C966.478 84.178 965.98 84.064 965.404 84.064C964.408 84.064 963.61 84.394 963.01 85.054C962.41 85.702 962.11 86.572 962.11 87.664C962.11 88.828 962.422 89.74 963.046 90.4C963.682 91.048 964.552 91.372 965.656 91.372C966.412 91.372 967.048 91.18 967.564 90.796C968.092 90.412 968.476 89.86 968.716 89.14H964.81V86.872H971.506V89.734C971.278 90.502 970.888 91.216 970.336 91.876C969.796 92.536 969.106 93.07 968.266 93.478C967.426 93.886 966.478 94.09 965.422 94.09C964.174 94.09 963.058 93.82 962.074 93.28C961.102 92.728 960.34 91.966 959.788 90.994C959.248 90.022 958.978 88.912 958.978 87.664C958.978 86.416 959.248 85.306 959.788 84.334C960.34 83.35 961.102 82.588 962.074 82.048C963.046 81.496 964.156 81.22 965.404 81.22C966.916 81.22 968.188 81.586 969.22 82.318C970.264 83.05 970.954 84.064 971.29 85.36H967.888ZM977.783 94.144C976.799 94.144 975.911 93.934 975.119 93.514C974.339 93.094 973.721 92.494 973.265 91.714C972.821 90.934 972.599 90.022 972.599 88.978C972.599 87.946 972.827 87.04 973.283 86.26C973.739 85.468 974.363 84.862 975.155 84.442C975.947 84.022 976.835 83.812 977.819 83.812C978.803 83.812 979.691 84.022 980.483 84.442C981.275 84.862 981.899 85.468 982.355 86.26C982.811 87.04 983.039 87.946 983.039 88.978C983.039 90.01 982.805 90.922 982.337 91.714C981.881 92.494 981.251 93.094 980.447 93.514C979.655 93.934 978.767 94.144 977.783 94.144ZM977.783 91.48C978.371 91.48 978.869 91.264 979.277 90.832C979.697 90.4 979.907 89.782 979.907 88.978C979.907 88.174 979.703 87.556 979.295 87.124C978.899 86.692 978.407 86.476 977.819 86.476C977.219 86.476 976.721 86.692 976.325 87.124C975.929 87.544 975.731 88.162 975.731 88.978C975.731 89.782 975.923 90.4 976.307 90.832C976.703 91.264 977.195 91.48 977.783 91.48ZM991.564 91.624H995.596V94H988.486V81.364H991.564V91.624ZM998.612 82.912C998.072 82.912 997.628 82.756 997.28 82.444C996.944 82.12 996.776 81.724 996.776 81.256C996.776 80.776 996.944 80.38 997.28 80.068C997.628 79.744 998.072 79.582 998.612 79.582C999.14 79.582 999.572 79.744 999.908 80.068C1000.26 80.38 1000.43 80.776 1000.43 81.256C1000.43 81.724 1000.26 82.12 999.908 82.444C999.572 82.756 999.14 82.912 998.612 82.912ZM1000.14 83.956V94H997.064V83.956H1000.14ZM1006.89 91.12L1009.07 83.956H1012.34L1008.78 94H1004.98L1001.42 83.956H1004.71L1006.89 91.12ZM1023.11 88.816C1023.11 89.104 1023.09 89.404 1023.05 89.716H1016.09C1016.14 90.34 1016.33 90.82 1016.68 91.156C1017.04 91.48 1017.48 91.642 1018 91.642C1018.76 91.642 1019.3 91.318 1019.6 90.67H1022.87C1022.71 91.33 1022.4 91.924 1021.96 92.452C1021.52 92.98 1020.98 93.394 1020.32 93.694C1019.66 93.994 1018.92 94.144 1018.1 94.144C1017.12 94.144 1016.24 93.934 1015.48 93.514C1014.71 93.094 1014.11 92.494 1013.68 91.714C1013.24 90.934 1013.03 90.022 1013.03 88.978C1013.03 87.934 1013.24 87.022 1013.66 86.242C1014.09 85.462 1014.69 84.862 1015.46 84.442C1016.23 84.022 1017.11 83.812 1018.1 83.812C1019.08 83.812 1019.94 84.016 1020.7 84.424C1021.45 84.832 1022.04 85.414 1022.46 86.17C1022.89 86.926 1023.11 87.808 1023.11 88.816ZM1019.96 88.006C1019.96 87.478 1019.78 87.058 1019.42 86.746C1019.06 86.434 1018.61 86.278 1018.07 86.278C1017.55 86.278 1017.11 86.428 1016.75 86.728C1016.41 87.028 1016.19 87.454 1016.11 88.006H1019.96Z" fill="#3E3D4A"/>
<circle cx="56" cy="26" r="25.5" stroke="#CE1700"/>
<path d="M54.6336 36V18.08L56.5936 20.04H50.7136V16.4H59.1696V36H54.6336Z" fill="#3E3D4A"/>
<circle cx="243" cy="26" r="25.5" stroke="#CE1700"/>
<path d="M235.666 36V33.06L243.226 25.92C243.824 25.3787 244.262 24.8933 244.542 24.464C244.822 24.0347 245.009 23.6427 245.102 23.288C245.214 22.9333 245.27 22.6067 245.27 22.308C245.27 21.524 245 20.9267 244.458 20.516C243.936 20.0867 243.161 19.872 242.134 19.872C241.313 19.872 240.548 20.0307 239.838 20.348C239.148 20.6653 238.56 21.16 238.074 21.832L234.77 19.704C235.517 18.584 236.562 17.6973 237.906 17.044C239.25 16.3907 240.8 16.064 242.554 16.064C244.01 16.064 245.28 16.3067 246.362 16.792C247.464 17.2587 248.313 17.9213 248.91 18.78C249.526 19.6387 249.834 20.6653 249.834 21.86C249.834 22.4947 249.75 23.1293 249.582 23.764C249.433 24.38 249.116 25.0333 248.63 25.724C248.164 26.4147 247.473 27.1893 246.558 28.048L240.286 33.956L239.418 32.304H250.478V36H235.666Z" fill="#3E3D4A"/>
<circle cx="430" cy="26" r="25.5" stroke="#CE1700"/>
<path d="M429.163 36.336C427.8 36.336 426.447 36.1587 425.103 35.804C423.759 35.4307 422.62 34.908 421.687 34.236L423.451 30.764C424.198 31.3053 425.066 31.7347 426.055 32.052C427.044 32.3693 428.043 32.528 429.051 32.528C430.19 32.528 431.086 32.304 431.739 31.856C432.392 31.408 432.719 30.792 432.719 30.008C432.719 29.2613 432.43 28.6733 431.851 28.244C431.272 27.8147 430.339 27.6 429.051 27.6H426.979V24.604L432.439 18.416L432.943 20.04H422.667V16.4H436.387V19.34L430.955 25.528L428.659 24.212H429.975C432.383 24.212 434.203 24.7533 435.435 25.836C436.667 26.9187 437.283 28.3093 437.283 30.008C437.283 31.1093 436.994 32.1453 436.415 33.116C435.836 34.068 434.95 34.8427 433.755 35.44C432.56 36.0373 431.03 36.336 429.163 36.336Z" fill="#3E3D4A"/>
<circle cx="617" cy="26" r="25.5" stroke="#CE1700"/>
<path d="M608.216 31.884V28.832L617.456 16.4H622.216L613.172 28.832L610.96 28.188H626.388V31.884H608.216ZM618.772 36V31.884L618.912 28.188V24.52H623.196V36H618.772Z" fill="#3E3D4A"/>
<circle cx="804" cy="26" r="25.5" stroke="#CE1700"/>
<path d="M803.43 36.336C802.067 36.336 800.714 36.1587 799.37 35.804C798.044 35.4307 796.906 34.908 795.954 34.236L797.746 30.764C798.492 31.3053 799.351 31.7347 800.322 32.052C801.311 32.3693 802.31 32.528 803.318 32.528C804.456 32.528 805.352 32.304 806.006 31.856C806.659 31.408 806.986 30.7827 806.986 29.98C806.986 29.476 806.855 29.028 806.594 28.636C806.332 28.244 805.866 27.9453 805.194 27.74C804.54 27.5347 803.616 27.432 802.422 27.432H797.41L798.418 16.4H810.374V20.04H800.042L802.394 17.968L801.694 25.836L799.342 23.764H803.486C805.427 23.764 806.986 24.0347 808.162 24.576C809.356 25.0987 810.224 25.8173 810.766 26.732C811.307 27.6467 811.578 28.6827 811.578 29.84C811.578 30.9973 811.288 32.0707 810.71 33.06C810.131 34.0307 809.235 34.824 808.022 35.44C806.827 36.0373 805.296 36.336 803.43 36.336Z" fill="#3E3D4A"/>
<circle cx="991" cy="26" r="25.5" stroke="#CE1700"/>
<path d="M991.942 36.336C990.15 36.336 988.591 35.9627 987.266 35.216C985.959 34.4693 984.951 33.3773 984.242 31.94C983.533 30.5027 983.178 28.7293 983.178 26.62C983.178 24.3613 983.598 22.448 984.438 20.88C985.297 19.312 986.473 18.1173 987.966 17.296C989.478 16.4747 991.214 16.064 993.174 16.064C994.219 16.064 995.218 16.176 996.17 16.4C997.122 16.624 997.943 16.96 998.634 17.408L996.954 20.74C996.413 20.3667 995.834 20.1147 995.218 19.984C994.602 19.8347 993.958 19.76 993.286 19.76C991.587 19.76 990.243 20.2733 989.254 21.3C988.265 22.3267 987.77 23.848 987.77 25.864C987.77 26.2 987.77 26.5733 987.77 26.984C987.789 27.3947 987.845 27.8053 987.938 28.216L986.678 27.04C987.033 26.312 987.49 25.7053 988.05 25.22C988.61 24.716 989.273 24.3427 990.038 24.1C990.822 23.8387 991.681 23.708 992.614 23.708C993.883 23.708 995.022 23.96 996.03 24.464C997.038 24.968 997.841 25.6773 998.438 26.592C999.054 27.5067 999.362 28.58 999.362 29.812C999.362 31.1373 999.026 32.2947 998.354 33.284C997.701 34.2547 996.814 35.0107 995.694 35.552C994.593 36.0747 993.342 36.336 991.942 36.336ZM991.69 32.948C992.325 32.948 992.885 32.836 993.37 32.612C993.874 32.3693 994.266 32.024 994.546 31.576C994.826 31.128 994.966 30.6147 994.966 30.036C994.966 29.14 994.658 28.4307 994.042 27.908C993.445 27.3667 992.642 27.096 991.634 27.096C990.962 27.096 990.374 27.2267 989.87 27.488C989.366 27.7307 988.965 28.076 988.666 28.524C988.386 28.9533 988.246 29.4573 988.246 30.036C988.246 30.596 988.386 31.1 988.666 31.548C988.946 31.9773 989.338 32.3227 989.842 32.584C990.346 32.8267 990.962 32.948 991.69 32.948Z" fill="#3E3D4A"/>
<line x1="82" y1="25.5" x2="217" y2="25.5" stroke="#CE1700"/>
<line x1="269" y1="25.5" x2="404" y2="25.5" stroke="#CE1700"/>
<line x1="456" y1="25.5" x2="591" y2="25.5" stroke="#CE1700"/>
<line x1="643" y1="25.5" x2="778" y2="25.5" stroke="#CE1700"/>
<line x1="830" y1="25.5" x2="965" y2="25.5" stroke="#CE1700"/>
</svg>
