<svg width="60" height="60" viewBox="0 0 60 60" fill="none" xmlns="http://www.w3.org/2000/svg">
<path d="M36 44L32.0287 49.4605C32.0182 49.475 32.0306 49.4949 32.0482 49.492L35 49L35.9866 52.4531C35.9915 52.4703 36.0148 52.4729 36.0234 52.4571L39 47L41.9766 52.4571C41.9852 52.4729 42.0085 52.4703 42.0134 52.4531L43 49L45.9484 49.4914C45.9665 49.4944 45.9788 49.4735 45.9673 49.4592L42 44.5" stroke="#CE1700" stroke-width="2"/>
<path d="M39.25 12V13H40.25H49V16.5V30V56H12V4H30.5H39.25V12ZM41.25 11V5.28398L47.4423 11H41.25Z" stroke="#CE1700" stroke-width="2"/>
<path d="M16.5 12H30M16.5 18H44.5" stroke="#CE1700" stroke-width="2"/>
<path d="M16.5 24H44.5" stroke="#CE1700" stroke-width="2"/>
<path d="M16.5 30H44.5" stroke="#CE1700" stroke-width="2"/>
<path d="M16.5 36H30" stroke="#CE1700" stroke-width="2"/>
<path d="M34 40C34 37.2386 36.2386 35 39 35C41.7614 35 44 37.2386 44 40C44 41.6722 43.1801 43.1528 41.916 44.0622C41.0954 44.6525 40.0897 45 39 45C37.9103 45 36.9046 44.6525 36.084 44.0622C34.8199 43.1528 34 41.6722 34 40Z" stroke="#CE1700" stroke-width="2"/>
</svg>
