<svg width="402" height="316" viewBox="0 0 402 316" fill="none" xmlns="http://www.w3.org/2000/svg">
<path d="M354.426 127.5C358.426 126.5 367.066 126.521 371.926 133C374.926 137 375.426 140.5 375.426 144" stroke="#CE1700" stroke-width="2"/>
<path d="M374.426 144.311C377.092 143.664 382.853 143.677 386.092 147.874C388.092 150.465 388.426 152.733 388.426 155" stroke="#CE1700" stroke-width="2"/>
<path d="M384.31 137.836L384.387 138.295L384.787 138.532C393.953 143.949 401.856 152.258 400.206 164.516C399.272 171.451 395.569 175.789 391.135 178.422C386.665 181.077 381.439 182 377.582 182H332.758C331.941 181.93 331.099 181.875 330.239 181.819C327.197 181.622 323.937 181.41 320.83 180.439C316.924 179.217 313.349 176.805 311.121 171.626C308.485 165.498 308.528 160.637 310.04 156.742C311.563 152.819 314.632 149.732 318.312 147.288L318.894 146.901L318.731 146.221C317.077 139.327 319.187 134.624 321.763 132.114C323.059 130.851 325.321 129.666 327.82 129.071C330.322 128.475 332.872 128.515 334.788 129.469L335.594 129.871L336.078 129.111C339.001 124.511 342.884 120.439 348.007 118.1C353.112 115.769 359.551 115.11 367.696 117.509C372.79 119.009 376.502 121.589 379.157 125.008C381.82 128.438 383.463 132.772 384.31 137.836Z" stroke="#3E3D4A" stroke-width="2"/>
<path d="M178 91.5C188.667 86.9444 212 72.6 212 57.6667C212 42.7333 212 21.8889 212 13.3333L178 1" stroke="#3E3D4A" stroke-width="2"/>
<path d="M178 91.5C167.333 86.9444 143 72.6 143 57.6667C143 42.7333 143 21.8889 143 13.3333L178 1" stroke="#3E3D4A" stroke-width="2"/>
<path d="M165 40.3448L173.667 54L191 32" stroke="#CE1700" stroke-width="2"/>
<path d="M359.293 203.293C359.683 202.902 360.317 202.902 360.707 203.293L367.071 209.657C367.462 210.047 367.462 210.681 367.071 211.071C366.681 211.462 366.047 211.462 365.657 211.071L360 205.414L354.343 211.071C353.953 211.462 353.319 211.462 352.929 211.071C352.538 210.681 352.538 210.047 352.929 209.657L359.293 203.293ZM361 204V237H359V204H361ZM344 254H227V252H344V254ZM361 237C361 246.389 353.389 254 344 254V252C352.284 252 359 245.284 359 237H361Z" fill="#3E3D4A"/>
<path d="M359.293 95.7071C359.683 96.0976 360.317 96.0976 360.707 95.7071L367.071 89.3431C367.462 88.9526 367.462 88.3195 367.071 87.9289C366.681 87.5384 366.047 87.5384 365.657 87.9289L360 93.5858L354.343 87.9289C353.953 87.5384 353.319 87.5384 352.929 87.9289C352.538 88.3195 352.538 88.9526 352.929 89.3431L359.293 95.7071ZM361 95V62H359V95H361ZM344 45H227V47H344V45ZM361 62C361 52.6112 353.389 45 344 45V47C352.284 47 359 53.7157 359 62H361Z" fill="#3E3D4A"/>
<path d="M25.4538 147.197V119.607M25.4538 147.197L1 160.992M25.4538 147.197L49.9076 160.992M25.4538 119.607L49.9076 105L74.3613 119.607M25.4538 119.607L49.9076 133.402M74.3613 119.607V147.197M74.3613 119.607L49.9076 133.402M74.3613 147.197L98 160.992M74.3613 147.197L49.9076 160.992M98 160.992L74.3613 175.598M98 160.992V188.582L74.3613 204M74.3613 175.598L49.9076 160.992M74.3613 175.598V204M49.9076 160.992L25.4538 175.598M49.9076 160.992V188.582M49.9076 160.992V133.402M25.4538 175.598V204M25.4538 175.598L1 160.992M25.4538 204L1 188.582V160.992M25.4538 204L49.9076 188.582M49.9076 188.582L74.3613 204" stroke="#3E3D4A" stroke-width="2"/>
<path d="M50 161V133.5M50 161L74 147L74.5 119.5M50 161L25.5 147V119.5M50 133.5L74.5 119.5M50 133.5L25.5 119.5M74.5 119.5L50 105L25.5 119.5" stroke="#CE1700" stroke-width="2"/>
<path d="M286.707 152.207C287.098 151.817 287.098 151.183 286.707 150.793L280.343 144.429C279.953 144.038 279.319 144.038 278.929 144.429C278.538 144.819 278.538 145.453 278.929 145.843L284.586 151.5L278.929 157.157C278.538 157.547 278.538 158.181 278.929 158.571C279.319 158.962 279.953 158.962 280.343 158.571L286.707 152.207ZM108 152.5H286V150.5H108V152.5Z" fill="#3E3D4A"/>
<line x1="125" y1="312" x2="227" y2="312" stroke="#3E3D4A" stroke-width="2"/>
<rect x="168" y="308" width="18" height="8" fill="#CE1700"/>
<line x1="177" y1="292" x2="177" y2="308" stroke="#3E3D4A" stroke-width="2"/>
<rect x="146" y="222" width="62" height="70" stroke="#3E3D4A" stroke-width="2"/>
<rect x="186" y="232" width="11" height="4" fill="#CE1700"/>
<rect x="186" y="256" width="11" height="4" fill="#CE1700"/>
<path d="M146 246.5H208" stroke="#3E3D4A" stroke-width="2"/>
<path d="M146 270H208" stroke="#3E3D4A" stroke-width="2"/>
<rect x="186" y="279" width="11" height="4" fill="#CE1700"/>
</svg>
