<svg width="375" height="317" viewBox="0 0 375 317" fill="none" xmlns="http://www.w3.org/2000/svg">
<mask id="mask0_1015_6158" style="mask-type:alpha" maskUnits="userSpaceOnUse" x="0" y="0" width="375" height="317">
<rect width="375" height="317" fill="#EFEFF0"/>
</mask>
<g mask="url(#mask0_1015_6158)">
<rect width="375" height="317" fill="#EFEFF0"/>
<g opacity="0.3">
<path d="M217.046 219.719L385.683 291.071" stroke="#CE1700"/>
<path d="M337.356 170.742L265.466 340.65" stroke="#CE1700"/>
<path d="M209.961 261.797L360.539 325.509" stroke="#CE1700"/>
<path d="M242.19 185.273L393.442 249.27" stroke="#CE1700"/>
<path d="M265.921 339.569C312.378 359.226 365.973 337.5 385.63 291.043C405.286 244.586 383.56 190.99 337.103 171.334C290.647 151.677 237.051 173.403 217.394 219.86C197.738 266.317 219.464 319.912 265.921 339.569Z" stroke="#CE1700"/>
<path d="M265.921 339.575C296.548 352.534 337.312 325.378 356.969 278.922C376.625 232.465 367.731 184.298 337.103 171.339C306.476 158.38 265.712 185.536 246.056 231.993C226.399 278.45 235.293 326.616 265.921 339.575Z" stroke="#CE1700"/>
<path d="M265.921 339.573C280.546 345.761 308.337 313.117 327.994 266.66C347.651 220.203 351.729 177.526 337.103 171.338C322.478 165.149 294.687 197.794 275.03 244.251C255.374 290.707 251.295 333.385 265.921 339.573Z" stroke="#CE1700"/>
</g>
</g>
</svg>
