<svg width="1320" height="383" viewBox="0 0 1320 383" fill="none" xmlns="http://www.w3.org/2000/svg">
<mask id="mask0_1009_5982" style="mask-type:alpha" maskUnits="userSpaceOnUse" x="0" y="0" width="1320" height="383">
<rect width="1320" height="383" fill="#EFEFF0"/>
</mask>
<g mask="url(#mask0_1009_5982)">
<rect width="1320" height="383" fill="#EFEFF0"/>
<path opacity="0.3" d="M171 248C175.833 257.833 188.8 280.8 202 294C218.5 310.5 325.913 414.079 397 294C434 231.5 344.5 212 312 248C279.5 284 296.783 316.422 413 354.5C559.5 402.5 689.5 440.5 768 470.5C880.333 445.333 1059.5 470.5 1147.5 344.5C1185.29 290.387 1175.5 233 1121.5 223.5C1067.5 214 1050.94 265.86 1060 287C1075 322 1168.5 330.79 1238 279C1287.5 242.114 1304.83 137.5 1270.5 130.5" stroke="#CE1700" stroke-dasharray="7 7"/>
<g opacity="0.3">
<path d="M1084.96 -55.4766L1346.78 55.301" stroke="#CE1700"/>
<path d="M1271.75 -131.516L1160.14 132.273" stroke="#CE1700"/>
<path d="M1073.96 9.85938L1307.74 108.774" stroke="#CE1700"/>
<path d="M1160.84 130.605C1232.97 161.123 1316.18 127.392 1346.7 55.2661C1377.21 -16.8601 1343.48 -100.069 1271.36 -130.587C1199.23 -161.104 1116.02 -127.374 1085.5 -55.2477C1054.99 16.8785 1088.72 100.088 1160.84 130.605Z" stroke="#CE1700"/>
<path d="M1160.84 130.606C1208.39 150.725 1271.68 108.565 1302.2 36.4392C1332.72 -35.687 1318.91 -110.467 1271.36 -130.586C1223.81 -150.706 1160.52 -108.546 1130 -36.4196C1099.48 35.7066 1113.29 110.486 1160.84 130.606Z" stroke="#CE1700"/>
<path d="M1160.84 130.611C1183.55 140.219 1226.7 89.5374 1257.21 17.4112C1287.73 -54.715 1294.06 -120.973 1271.36 -130.581C1248.65 -140.188 1205.5 -89.5067 1174.99 -17.3805C1144.47 54.7456 1138.14 121.004 1160.84 130.611Z" stroke="#CE1700"/>
</g>
<g opacity="0.3">
<path d="M-109.036 160.523L152.779 271.301" stroke="#CE1700"/>
<path d="M77.7493 84.4844L-33.8634 348.273" stroke="#CE1700"/>
<path d="M-120.037 225.859L113.742 324.774" stroke="#CE1700"/>
<path d="M-69.9993 107.055L164.824 206.412" stroke="#CE1700"/>
<path d="M-33.1571 346.605C38.9691 377.123 122.178 343.392 152.696 271.266C183.213 199.14 149.483 115.931 77.3568 85.4132C5.23057 54.8956 -77.9786 88.6261 -108.496 160.752C-139.014 232.878 -105.283 316.088 -33.1571 346.605Z" stroke="#CE1700"/>
<path d="M-33.1572 346.606C14.3936 366.725 77.6806 324.565 108.198 252.439C138.716 180.313 124.908 105.533 77.3567 85.4138C29.8059 65.2944 -33.4811 107.454 -63.9986 179.58C-94.5162 251.707 -80.708 326.486 -33.1572 346.606Z" stroke="#CE1700"/>
<path d="M-33.1572 346.611C-10.4506 356.219 32.6962 305.537 63.2137 233.411C93.7313 161.285 100.063 95.0268 77.3567 85.4193C54.65 75.8118 11.5033 126.493 -19.0143 198.619C-49.5318 270.746 -55.8638 337.004 -33.1572 346.611Z" stroke="#CE1700"/>
</g>
</g>
</svg>
