<svg width="60" height="60" viewBox="0 0 60 60" fill="none" xmlns="http://www.w3.org/2000/svg">
<path d="M46 4H20C16.6863 4 14 6.68629 14 10V48.6056C14 51.0325 15.9675 53 18.3944 53H46.8222C49.6818 53 52 50.6818 52 47.8222V10C52 6.68629 49.3137 4 46 4Z" stroke="#3E3D4A" stroke-width="2"/>
<path d="M42.9219 35.6869C42.9219 41.0131 38.4862 45.3738 32.9609 45.3738C27.4356 45.3738 23 41.0131 23 35.6869C23 30.3607 27.4356 26 32.9609 26C38.4862 26 42.9219 30.3607 42.9219 35.6869Z" stroke="#CE1700" stroke-width="2"/>
<path d="M32.7561 29.3828V42.5359M35.7889 33.6953C35.7889 31.5391 30.3535 30.2453 29.7232 33.6953C29.29 36.0672 31.7512 36.072 32.7561 36.2828C34.4045 36.6286 35.7889 36.2828 36.2221 38.2234C36.3184 38.6547 36.2163 40.0606 34.9224 40.5953C33.6008 41.1414 31.6729 41.2422 29.7233 39.7328" stroke="#CE1700" stroke-width="2" stroke-linecap="round"/>
<rect x="20" y="11" width="26" height="7" stroke="#3E3D4A" stroke-width="2"/>
</svg>
